G04 #@! TF.GenerationSoftware,KiCad,Pcbnew,(5.1.9)-1*
G04 #@! TF.CreationDate,2023-03-18T10:12:14+09:00*
G04 #@! TF.ProjectId,SMB80TE_SD,534d4238-3054-4455-9f53-442e6b696361,rev?*
G04 #@! TF.SameCoordinates,PX53920b0PY93c3260*
G04 #@! TF.FileFunction,Copper,L1,Top*
G04 #@! TF.FilePolarity,Positive*
%FSLAX46Y46*%
G04 Gerber Fmt 4.6, Leading zero omitted, Abs format (unit mm)*
G04 Created by KiCad (PCBNEW (5.1.9)-1) date 2023-03-18 10:12:14*
%MOMM*%
%LPD*%
G01*
G04 APERTURE LIST*
G04 #@! TA.AperFunction,ComponentPad*
%ADD10R,1.700000X1.700000*%
G04 #@! TD*
G04 #@! TA.AperFunction,ComponentPad*
%ADD11O,1.700000X1.700000*%
G04 #@! TD*
G04 #@! TA.AperFunction,ComponentPad*
%ADD12R,1.600000X1.600000*%
G04 #@! TD*
G04 #@! TA.AperFunction,ComponentPad*
%ADD13O,1.600000X1.600000*%
G04 #@! TD*
G04 #@! TA.AperFunction,ComponentPad*
%ADD14O,1.600000X2.400000*%
G04 #@! TD*
G04 #@! TA.AperFunction,ComponentPad*
%ADD15R,1.600000X2.400000*%
G04 #@! TD*
G04 #@! TA.AperFunction,ViaPad*
%ADD16C,0.500000*%
G04 #@! TD*
G04 #@! TA.AperFunction,Conductor*
%ADD17C,0.400000*%
G04 #@! TD*
G04 #@! TA.AperFunction,Conductor*
%ADD18C,0.200000*%
G04 #@! TD*
G04 #@! TA.AperFunction,Conductor*
%ADD19C,0.254000*%
G04 #@! TD*
G04 #@! TA.AperFunction,Conductor*
%ADD20C,0.100000*%
G04 #@! TD*
G04 APERTURE END LIST*
D10*
X40270000Y60080000D03*
D11*
X42810000Y60080000D03*
X45350000Y60080000D03*
X47890000Y60080000D03*
X50430000Y60080000D03*
X52970000Y60080000D03*
X55510000Y60080000D03*
X58050000Y60080000D03*
X60590000Y60080000D03*
X60590000Y88020000D03*
X60590000Y85480000D03*
X40270000Y88020000D03*
X40270000Y85480000D03*
D12*
X16000000Y77500000D03*
D13*
X16000000Y74960000D03*
X16000000Y72420000D03*
X31240000Y49560000D03*
X16000000Y69880000D03*
X31240000Y52100000D03*
X16000000Y67340000D03*
X31240000Y54640000D03*
X16000000Y64800000D03*
X31240000Y57180000D03*
X16000000Y62260000D03*
X31240000Y59720000D03*
X16000000Y59720000D03*
X31240000Y62260000D03*
X16000000Y57180000D03*
X31240000Y64800000D03*
X16000000Y54640000D03*
X31240000Y67340000D03*
X16000000Y52100000D03*
X31240000Y69880000D03*
X16000000Y49560000D03*
X31240000Y72420000D03*
X31240000Y74960000D03*
X31240000Y77500000D03*
X28700000Y68610000D03*
X28700000Y66070000D03*
X28700000Y58450000D03*
X28700000Y55910000D03*
D10*
X44715000Y49412000D03*
D11*
X47255000Y49412000D03*
X49795000Y49412000D03*
X52335000Y49412000D03*
X54875000Y49412000D03*
X57415000Y49412000D03*
D14*
X15575000Y19765000D03*
X63835000Y4525000D03*
X18115000Y19765000D03*
X61295000Y4525000D03*
X20655000Y19765000D03*
X58755000Y4525000D03*
X23195000Y19765000D03*
X56215000Y4525000D03*
X25735000Y19765000D03*
X53675000Y4525000D03*
X28275000Y19765000D03*
X51135000Y4525000D03*
X30815000Y19765000D03*
X48595000Y4525000D03*
X33355000Y19765000D03*
X46055000Y4525000D03*
X35895000Y19765000D03*
X43515000Y4525000D03*
X38435000Y19765000D03*
X40975000Y4525000D03*
X40975000Y19765000D03*
X38435000Y4525000D03*
X43515000Y19765000D03*
X35895000Y4525000D03*
X46055000Y19765000D03*
X33355000Y4525000D03*
X48595000Y19765000D03*
X30815000Y4525000D03*
X51135000Y19765000D03*
X28275000Y4525000D03*
X53675000Y19765000D03*
X25735000Y4525000D03*
X56215000Y19765000D03*
X23195000Y4525000D03*
X58755000Y19765000D03*
X20655000Y4525000D03*
X61295000Y19765000D03*
X18115000Y4525000D03*
X63835000Y19765000D03*
D15*
X15575000Y4525000D03*
X15575000Y23775000D03*
D14*
X63835000Y39015000D03*
X18115000Y23775000D03*
X61295000Y39015000D03*
X20655000Y23775000D03*
X58755000Y39015000D03*
X23195000Y23775000D03*
X56215000Y39015000D03*
X25735000Y23775000D03*
X53675000Y39015000D03*
X28275000Y23775000D03*
X51135000Y39015000D03*
X30815000Y23775000D03*
X48595000Y39015000D03*
X33355000Y23775000D03*
X46055000Y39015000D03*
X35895000Y23775000D03*
X43515000Y39015000D03*
X38435000Y23775000D03*
X40975000Y39015000D03*
X40975000Y23775000D03*
X38435000Y39015000D03*
X43515000Y23775000D03*
X35895000Y39015000D03*
X46055000Y23775000D03*
X33355000Y39015000D03*
X48595000Y23775000D03*
X30815000Y39015000D03*
X51135000Y23775000D03*
X28275000Y39015000D03*
X53675000Y23775000D03*
X25735000Y39015000D03*
X56215000Y23775000D03*
X23195000Y39015000D03*
X58755000Y23775000D03*
X20655000Y39015000D03*
X61295000Y23775000D03*
X18115000Y39015000D03*
X63835000Y23775000D03*
X15575000Y39015000D03*
D10*
X7000000Y5000000D03*
D11*
X4460000Y5000000D03*
D16*
X35635100Y27935900D03*
D17*
X47255000Y49412000D02*
X47255000Y50662300D01*
X47255000Y50662300D02*
X40270000Y57647300D01*
X40270000Y57647300D02*
X40270000Y60080000D01*
D18*
X51135000Y19765000D02*
X51135000Y21265300D01*
X51135000Y39015000D02*
X51135000Y37514700D01*
X51135000Y37514700D02*
X52270500Y36379200D01*
X52270500Y36379200D02*
X52270500Y22400800D01*
X52270500Y22400800D02*
X51135000Y21265300D01*
D17*
X47255000Y49412000D02*
X47255000Y46745000D01*
X51135000Y42865000D02*
X51135000Y39015000D01*
X47255000Y46745000D02*
X51135000Y42865000D01*
X44715000Y49412000D02*
X44715000Y48161700D01*
X40975000Y23775000D02*
X40975000Y25375300D01*
X40975000Y25375300D02*
X42245000Y26645300D01*
X42245000Y26645300D02*
X42245000Y45691700D01*
X42245000Y45691700D02*
X44715000Y48161700D01*
D18*
X61295000Y4525000D02*
X61295000Y6025300D01*
X61295000Y23775000D02*
X61295000Y22274700D01*
X61295000Y22274700D02*
X60125400Y21105100D01*
X60125400Y21105100D02*
X60125400Y7194900D01*
X60125400Y7194900D02*
X61295000Y6025300D01*
X63835000Y4525000D02*
X63835000Y6025300D01*
X63835000Y23775000D02*
X63835000Y22274700D01*
X63835000Y22274700D02*
X62723800Y21163500D01*
X62723800Y21163500D02*
X62723800Y7136500D01*
X62723800Y7136500D02*
X63835000Y6025300D01*
X15575000Y4525000D02*
X15575000Y6025300D01*
X15575000Y23775000D02*
X15575000Y22274700D01*
X15575000Y22274700D02*
X14474700Y21174400D01*
X14474700Y21174400D02*
X14474700Y7125600D01*
X14474700Y7125600D02*
X15575000Y6025300D01*
X15575000Y37514700D02*
X16703300Y36386400D01*
X16703300Y36386400D02*
X16703300Y22393600D01*
X16703300Y22393600D02*
X15575000Y21265300D01*
X15575000Y19765000D02*
X15575000Y21265300D01*
X15575000Y39015000D02*
X15575000Y37514700D01*
X18115000Y37514700D02*
X19226100Y36403600D01*
X19226100Y36403600D02*
X19226100Y22376400D01*
X19226100Y22376400D02*
X18115000Y21265300D01*
X18115000Y19765000D02*
X18115000Y21265300D01*
X18115000Y39015000D02*
X18115000Y37514700D01*
X20655000Y37514700D02*
X21766100Y36403600D01*
X21766100Y36403600D02*
X21766100Y22376400D01*
X21766100Y22376400D02*
X20655000Y21265300D01*
X20655000Y19765000D02*
X20655000Y21265300D01*
X20655000Y39015000D02*
X20655000Y37514700D01*
X20655000Y4525000D02*
X20655000Y6025300D01*
X20655000Y23775000D02*
X20655000Y22274700D01*
X20655000Y22274700D02*
X19485400Y21105100D01*
X19485400Y21105100D02*
X19485400Y7194900D01*
X19485400Y7194900D02*
X20655000Y6025300D01*
X18115000Y4525000D02*
X18115000Y6025300D01*
X18115000Y23775000D02*
X18115000Y22274700D01*
X18115000Y22274700D02*
X16945400Y21105100D01*
X16945400Y21105100D02*
X16945400Y7194900D01*
X16945400Y7194900D02*
X18115000Y6025300D01*
X50430000Y60080000D02*
X49279700Y60080000D01*
X31240000Y57180000D02*
X32340300Y57180000D01*
X32340300Y57180000D02*
X36404200Y61243900D01*
X36404200Y61243900D02*
X48354100Y61243900D01*
X48354100Y61243900D02*
X49279700Y60318300D01*
X49279700Y60318300D02*
X49279700Y60080000D01*
X50430000Y60080000D02*
X50430000Y58929700D01*
X54875000Y49412000D02*
X54875000Y54484700D01*
X54875000Y54484700D02*
X50430000Y58929700D01*
X57415000Y49412000D02*
X57415000Y50562300D01*
X57415000Y50562300D02*
X58050000Y51197300D01*
X58050000Y51197300D02*
X58050000Y60080000D01*
X23195000Y37514700D02*
X24306100Y36403600D01*
X24306100Y36403600D02*
X24306100Y22376400D01*
X24306100Y22376400D02*
X23195000Y21265300D01*
X23195000Y19765000D02*
X23195000Y21265300D01*
X23195000Y39015000D02*
X23195000Y37514700D01*
X56215000Y4525000D02*
X56215000Y6025300D01*
X56215000Y23775000D02*
X56215000Y22274700D01*
X56215000Y22274700D02*
X55103800Y21163500D01*
X55103800Y21163500D02*
X55103800Y7136500D01*
X55103800Y7136500D02*
X56215000Y6025300D01*
X25735000Y37514700D02*
X26846100Y36403600D01*
X26846100Y36403600D02*
X26846100Y22376400D01*
X26846100Y22376400D02*
X25735000Y21265300D01*
X25735000Y19765000D02*
X25735000Y21265300D01*
X25735000Y39015000D02*
X25735000Y37514700D01*
X28275000Y37514700D02*
X29386100Y36403600D01*
X29386100Y36403600D02*
X29386100Y22376400D01*
X29386100Y22376400D02*
X28275000Y21265300D01*
X28275000Y19765000D02*
X28275000Y21265300D01*
X28275000Y39015000D02*
X28275000Y37514700D01*
X51135000Y4525000D02*
X51135000Y6025300D01*
X51135000Y23775000D02*
X51135000Y22274700D01*
X51135000Y22274700D02*
X50023800Y21163500D01*
X50023800Y21163500D02*
X50023800Y7136500D01*
X50023800Y7136500D02*
X51135000Y6025300D01*
X30815000Y37514700D02*
X31926100Y36403600D01*
X31926100Y36403600D02*
X31926100Y22376400D01*
X31926100Y22376400D02*
X30815000Y21265300D01*
X30815000Y19765000D02*
X30815000Y21265300D01*
X30815000Y39015000D02*
X30815000Y37514700D01*
X33355000Y37514700D02*
X34466100Y36403600D01*
X34466100Y36403600D02*
X34466100Y22376400D01*
X34466100Y22376400D02*
X33355000Y21265300D01*
X33355000Y19765000D02*
X33355000Y21265300D01*
X33355000Y39015000D02*
X33355000Y37514700D01*
X46055000Y4525000D02*
X46055000Y6025300D01*
X46055000Y23775000D02*
X46055000Y22274700D01*
X46055000Y22274700D02*
X44943800Y21163500D01*
X44943800Y21163500D02*
X44943800Y7136500D01*
X44943800Y7136500D02*
X46055000Y6025300D01*
X35895000Y39015000D02*
X35895000Y37514700D01*
X35895000Y37514700D02*
X35635100Y37254800D01*
X35635100Y37254800D02*
X35635100Y27935900D01*
X43515000Y4525000D02*
X43515000Y6025300D01*
X43515000Y23775000D02*
X43515000Y22274700D01*
X43515000Y22274700D02*
X42345400Y21105100D01*
X42345400Y21105100D02*
X42345400Y7194900D01*
X42345400Y7194900D02*
X43515000Y6025300D01*
X38435000Y19765000D02*
X38435000Y21265300D01*
X38435000Y39015000D02*
X38435000Y37514700D01*
X38435000Y37514700D02*
X37306400Y36386100D01*
X37306400Y36386100D02*
X37306400Y22393900D01*
X37306400Y22393900D02*
X38435000Y21265300D01*
X40975000Y19765000D02*
X40975000Y21265300D01*
X40975000Y39015000D02*
X40975000Y37514700D01*
X40975000Y37514700D02*
X39846400Y36386100D01*
X39846400Y36386100D02*
X39846400Y22393900D01*
X39846400Y22393900D02*
X40975000Y21265300D01*
X38435000Y4525000D02*
X38435000Y6025300D01*
X38435000Y23775000D02*
X38435000Y22274700D01*
X38435000Y22274700D02*
X39546100Y21163600D01*
X39546100Y21163600D02*
X39546100Y7136400D01*
X39546100Y7136400D02*
X38435000Y6025300D01*
X43515000Y39015000D02*
X43515000Y37514700D01*
X43515000Y37514700D02*
X44639200Y36390500D01*
X44639200Y36390500D02*
X44639200Y22832600D01*
X44639200Y22832600D02*
X43515000Y21708400D01*
X43515000Y21708400D02*
X43515000Y19765000D01*
X35895000Y4525000D02*
X35895000Y6025300D01*
X35895000Y23775000D02*
X35895000Y22274700D01*
X35895000Y22274700D02*
X37006100Y21163600D01*
X37006100Y21163600D02*
X37006100Y7136400D01*
X37006100Y7136400D02*
X35895000Y6025300D01*
X46055000Y19765000D02*
X46055000Y21265300D01*
X46055000Y39015000D02*
X46055000Y37514700D01*
X46055000Y37514700D02*
X47190500Y36379200D01*
X47190500Y36379200D02*
X47190500Y22400800D01*
X47190500Y22400800D02*
X46055000Y21265300D01*
X33355000Y4525000D02*
X33355000Y6025300D01*
X33355000Y23775000D02*
X33355000Y22274700D01*
X33355000Y22274700D02*
X32243800Y21163500D01*
X32243800Y21163500D02*
X32243800Y7136500D01*
X32243800Y7136500D02*
X33355000Y6025300D01*
X48595000Y19765000D02*
X48595000Y21265300D01*
X48595000Y39015000D02*
X48595000Y37514700D01*
X48595000Y37514700D02*
X49744200Y36365500D01*
X49744200Y36365500D02*
X49744200Y22414500D01*
X49744200Y22414500D02*
X48595000Y21265300D01*
X30815000Y4525000D02*
X30815000Y6025300D01*
X30815000Y23775000D02*
X30815000Y22274700D01*
X30815000Y22274700D02*
X29645400Y21105100D01*
X29645400Y21105100D02*
X29645400Y7194900D01*
X29645400Y7194900D02*
X30815000Y6025300D01*
X28275000Y4525000D02*
X28275000Y6025300D01*
X28275000Y23775000D02*
X28275000Y22274700D01*
X28275000Y22274700D02*
X27105400Y21105100D01*
X27105400Y21105100D02*
X27105400Y7194900D01*
X27105400Y7194900D02*
X28275000Y6025300D01*
X25735000Y4525000D02*
X25735000Y6025300D01*
X25735000Y23775000D02*
X25735000Y22274700D01*
X25735000Y22274700D02*
X24565400Y21105100D01*
X24565400Y21105100D02*
X24565400Y7194900D01*
X24565400Y7194900D02*
X25735000Y6025300D01*
X56215000Y19765000D02*
X56215000Y21265300D01*
X56215000Y39015000D02*
X56215000Y37514700D01*
X56215000Y37514700D02*
X57350500Y36379200D01*
X57350500Y36379200D02*
X57350500Y22400800D01*
X57350500Y22400800D02*
X56215000Y21265300D01*
X23195000Y4525000D02*
X23195000Y6025300D01*
X23195000Y23775000D02*
X23195000Y22274700D01*
X23195000Y22274700D02*
X22025400Y21105100D01*
X22025400Y21105100D02*
X22025400Y7194900D01*
X22025400Y7194900D02*
X23195000Y6025300D01*
X61295000Y37514700D02*
X62419200Y36390500D01*
X62419200Y36390500D02*
X62419200Y22832600D01*
X62419200Y22832600D02*
X61295000Y21708400D01*
X61295000Y21708400D02*
X61295000Y19765000D01*
X61295000Y39015000D02*
X61295000Y37514700D01*
X63835000Y19765000D02*
X63835000Y21265300D01*
X63835000Y39015000D02*
X63835000Y37514700D01*
X63835000Y37514700D02*
X64960800Y36388900D01*
X64960800Y36388900D02*
X64960800Y22391100D01*
X64960800Y22391100D02*
X63835000Y21265300D01*
D19*
X39566589Y89335990D02*
X39323368Y89173475D01*
X39116525Y88966632D01*
X38954010Y88723411D01*
X38842068Y88453158D01*
X38785000Y88166260D01*
X38785000Y87873740D01*
X38842068Y87586842D01*
X38954010Y87316589D01*
X39116525Y87073368D01*
X39323368Y86866525D01*
X39497760Y86750000D01*
X39323368Y86633475D01*
X39116525Y86426632D01*
X38954010Y86183411D01*
X38842068Y85913158D01*
X38785000Y85626260D01*
X38785000Y85333740D01*
X38842068Y85046842D01*
X38954010Y84776589D01*
X39116525Y84533368D01*
X39323368Y84326525D01*
X39566589Y84164010D01*
X39836842Y84052068D01*
X40123740Y83995000D01*
X40416260Y83995000D01*
X40703158Y84052068D01*
X40973411Y84164010D01*
X41216632Y84326525D01*
X41423475Y84533368D01*
X41585990Y84776589D01*
X41697932Y85046842D01*
X41755000Y85333740D01*
X41755000Y85626260D01*
X41697932Y85913158D01*
X41585990Y86183411D01*
X41423475Y86426632D01*
X41216632Y86633475D01*
X41042240Y86750000D01*
X41216632Y86866525D01*
X41423475Y87073368D01*
X41585990Y87316589D01*
X41697932Y87586842D01*
X41755000Y87873740D01*
X41755000Y88166260D01*
X41697932Y88453158D01*
X41585990Y88723411D01*
X41423475Y88966632D01*
X41216632Y89173475D01*
X40973411Y89335990D01*
X40963730Y89340000D01*
X59896270Y89340000D01*
X59886589Y89335990D01*
X59643368Y89173475D01*
X59436525Y88966632D01*
X59274010Y88723411D01*
X59162068Y88453158D01*
X59105000Y88166260D01*
X59105000Y87873740D01*
X59162068Y87586842D01*
X59274010Y87316589D01*
X59436525Y87073368D01*
X59643368Y86866525D01*
X59817760Y86750000D01*
X59643368Y86633475D01*
X59436525Y86426632D01*
X59274010Y86183411D01*
X59162068Y85913158D01*
X59105000Y85626260D01*
X59105000Y85333740D01*
X59162068Y85046842D01*
X59274010Y84776589D01*
X59436525Y84533368D01*
X59643368Y84326525D01*
X59886589Y84164010D01*
X60156842Y84052068D01*
X60443740Y83995000D01*
X60736260Y83995000D01*
X61023158Y84052068D01*
X61293411Y84164010D01*
X61536632Y84326525D01*
X61743475Y84533368D01*
X61905990Y84776589D01*
X62017932Y85046842D01*
X62075000Y85333740D01*
X62075000Y85626260D01*
X62017932Y85913158D01*
X61905990Y86183411D01*
X61743475Y86426632D01*
X61536632Y86633475D01*
X61362240Y86750000D01*
X61536632Y86866525D01*
X61743475Y87073368D01*
X61905990Y87316589D01*
X62017932Y87586842D01*
X62075000Y87873740D01*
X62075000Y88166260D01*
X62017932Y88453158D01*
X61905990Y88723411D01*
X61743475Y88966632D01*
X61536632Y89173475D01*
X61293411Y89335990D01*
X61283730Y89340000D01*
X67840001Y89340000D01*
X67840000Y660000D01*
X660000Y660000D01*
X660000Y4643109D01*
X3018519Y4643109D01*
X3115843Y4368748D01*
X3264822Y4118645D01*
X3459731Y3902412D01*
X3693080Y3728359D01*
X3955901Y3603175D01*
X4103110Y3558524D01*
X4333000Y3679845D01*
X4333000Y4873000D01*
X3139186Y4873000D01*
X3018519Y4643109D01*
X660000Y4643109D01*
X660000Y5356891D01*
X3018519Y5356891D01*
X3139186Y5127000D01*
X4333000Y5127000D01*
X4333000Y6320155D01*
X4587000Y6320155D01*
X4587000Y5127000D01*
X4607000Y5127000D01*
X4607000Y4873000D01*
X4587000Y4873000D01*
X4587000Y3679845D01*
X4816890Y3558524D01*
X4964099Y3603175D01*
X5226920Y3728359D01*
X5460269Y3902412D01*
X5536034Y3986466D01*
X5560498Y3905820D01*
X5619463Y3795506D01*
X5698815Y3698815D01*
X5795506Y3619463D01*
X5905820Y3560498D01*
X6025518Y3524188D01*
X6150000Y3511928D01*
X7850000Y3511928D01*
X7974482Y3524188D01*
X8094180Y3560498D01*
X8204494Y3619463D01*
X8301185Y3698815D01*
X8380537Y3795506D01*
X8439502Y3905820D01*
X8475812Y4025518D01*
X8488072Y4150000D01*
X8488072Y5850000D01*
X8475812Y5974482D01*
X8439502Y6094180D01*
X8380537Y6204494D01*
X8301185Y6301185D01*
X8204494Y6380537D01*
X8094180Y6439502D01*
X7974482Y6475812D01*
X7850000Y6488072D01*
X6150000Y6488072D01*
X6025518Y6475812D01*
X5905820Y6439502D01*
X5795506Y6380537D01*
X5698815Y6301185D01*
X5619463Y6204494D01*
X5560498Y6094180D01*
X5536034Y6013534D01*
X5460269Y6097588D01*
X5226920Y6271641D01*
X4964099Y6396825D01*
X4816890Y6441476D01*
X4587000Y6320155D01*
X4333000Y6320155D01*
X4103110Y6441476D01*
X3955901Y6396825D01*
X3693080Y6271641D01*
X3459731Y6097588D01*
X3264822Y5881355D01*
X3115843Y5631252D01*
X3018519Y5356891D01*
X660000Y5356891D01*
X660000Y21174400D01*
X13736144Y21174400D01*
X13739700Y21138295D01*
X13739701Y7161715D01*
X13736144Y7125600D01*
X13750335Y6981515D01*
X13789088Y6853767D01*
X13792364Y6842967D01*
X13860614Y6715280D01*
X13952463Y6603362D01*
X13980508Y6580346D01*
X14357239Y6203615D01*
X14323815Y6176185D01*
X14244463Y6079494D01*
X14185498Y5969180D01*
X14149188Y5849482D01*
X14136928Y5725000D01*
X14136928Y3325000D01*
X14149188Y3200518D01*
X14185498Y3080820D01*
X14244463Y2970506D01*
X14323815Y2873815D01*
X14420506Y2794463D01*
X14530820Y2735498D01*
X14650518Y2699188D01*
X14775000Y2686928D01*
X16375000Y2686928D01*
X16499482Y2699188D01*
X16619180Y2735498D01*
X16729494Y2794463D01*
X16826185Y2873815D01*
X16905537Y2970506D01*
X16964502Y3080820D01*
X17000812Y3200518D01*
X17002581Y3218483D01*
X17095393Y3105392D01*
X17313900Y2926068D01*
X17563193Y2792818D01*
X17833692Y2710764D01*
X18115000Y2683057D01*
X18396309Y2710764D01*
X18666808Y2792818D01*
X18916101Y2926068D01*
X19134608Y3105392D01*
X19313932Y3323899D01*
X19385000Y3456858D01*
X19456068Y3323899D01*
X19635393Y3105392D01*
X19853900Y2926068D01*
X20103193Y2792818D01*
X20373692Y2710764D01*
X20655000Y2683057D01*
X20936309Y2710764D01*
X21206808Y2792818D01*
X21456101Y2926068D01*
X21674608Y3105392D01*
X21853932Y3323899D01*
X21925000Y3456858D01*
X21996068Y3323899D01*
X22175393Y3105392D01*
X22393900Y2926068D01*
X22643193Y2792818D01*
X22913692Y2710764D01*
X23195000Y2683057D01*
X23476309Y2710764D01*
X23746808Y2792818D01*
X23996101Y2926068D01*
X24214608Y3105392D01*
X24393932Y3323899D01*
X24465000Y3456858D01*
X24536068Y3323899D01*
X24715393Y3105392D01*
X24933900Y2926068D01*
X25183193Y2792818D01*
X25453692Y2710764D01*
X25735000Y2683057D01*
X26016309Y2710764D01*
X26286808Y2792818D01*
X26536101Y2926068D01*
X26754608Y3105392D01*
X26933932Y3323899D01*
X27005000Y3456858D01*
X27076068Y3323899D01*
X27255393Y3105392D01*
X27473900Y2926068D01*
X27723193Y2792818D01*
X27993692Y2710764D01*
X28275000Y2683057D01*
X28556309Y2710764D01*
X28826808Y2792818D01*
X29076101Y2926068D01*
X29294608Y3105392D01*
X29473932Y3323899D01*
X29545000Y3456858D01*
X29616068Y3323899D01*
X29795393Y3105392D01*
X30013900Y2926068D01*
X30263193Y2792818D01*
X30533692Y2710764D01*
X30815000Y2683057D01*
X31096309Y2710764D01*
X31366808Y2792818D01*
X31616101Y2926068D01*
X31834608Y3105392D01*
X32013932Y3323899D01*
X32085000Y3456858D01*
X32156068Y3323899D01*
X32335393Y3105392D01*
X32553900Y2926068D01*
X32803193Y2792818D01*
X33073692Y2710764D01*
X33355000Y2683057D01*
X33636309Y2710764D01*
X33906808Y2792818D01*
X34156101Y2926068D01*
X34374608Y3105392D01*
X34553932Y3323899D01*
X34625000Y3456858D01*
X34696068Y3323899D01*
X34875393Y3105392D01*
X35093900Y2926068D01*
X35343193Y2792818D01*
X35613692Y2710764D01*
X35895000Y2683057D01*
X36176309Y2710764D01*
X36446808Y2792818D01*
X36696101Y2926068D01*
X36914608Y3105392D01*
X37093932Y3323899D01*
X37165000Y3456858D01*
X37236068Y3323899D01*
X37415393Y3105392D01*
X37633900Y2926068D01*
X37883193Y2792818D01*
X38153692Y2710764D01*
X38435000Y2683057D01*
X38716309Y2710764D01*
X38986808Y2792818D01*
X39236101Y2926068D01*
X39454608Y3105392D01*
X39633932Y3323899D01*
X39702265Y3451741D01*
X39852399Y3222161D01*
X40050105Y3020500D01*
X40283354Y2861285D01*
X40543182Y2750633D01*
X40625961Y2733096D01*
X40848000Y2855085D01*
X40848000Y4398000D01*
X40828000Y4398000D01*
X40828000Y4652000D01*
X40848000Y4652000D01*
X40848000Y6194915D01*
X40625961Y6316904D01*
X40543182Y6299367D01*
X40283354Y6188715D01*
X40050105Y6029500D01*
X39852399Y5827839D01*
X39702265Y5598259D01*
X39633932Y5726101D01*
X39454607Y5944608D01*
X39421184Y5972038D01*
X40040293Y6591146D01*
X40068338Y6614162D01*
X40160187Y6726080D01*
X40160241Y6726181D01*
X40228437Y6853766D01*
X40270465Y6992315D01*
X40284656Y7136400D01*
X40281100Y7172505D01*
X40281100Y18108768D01*
X40423193Y18032818D01*
X40693692Y17950764D01*
X40975000Y17923057D01*
X41256309Y17950764D01*
X41526808Y18032818D01*
X41610400Y18077499D01*
X41610401Y7231015D01*
X41606844Y7194900D01*
X41621035Y7050815D01*
X41663064Y6912267D01*
X41731314Y6784580D01*
X41823163Y6672662D01*
X41851208Y6649646D01*
X42528816Y5972037D01*
X42495392Y5944607D01*
X42316068Y5726100D01*
X42247735Y5598258D01*
X42097601Y5827839D01*
X41899895Y6029500D01*
X41666646Y6188715D01*
X41406818Y6299367D01*
X41324039Y6316904D01*
X41102000Y6194915D01*
X41102000Y4652000D01*
X41122000Y4652000D01*
X41122000Y4398000D01*
X41102000Y4398000D01*
X41102000Y2855085D01*
X41324039Y2733096D01*
X41406818Y2750633D01*
X41666646Y2861285D01*
X41899895Y3020500D01*
X42097601Y3222161D01*
X42247735Y3451741D01*
X42316068Y3323899D01*
X42495393Y3105392D01*
X42713900Y2926068D01*
X42963193Y2792818D01*
X43233692Y2710764D01*
X43515000Y2683057D01*
X43796309Y2710764D01*
X44066808Y2792818D01*
X44316101Y2926068D01*
X44534608Y3105392D01*
X44713932Y3323899D01*
X44785000Y3456858D01*
X44856068Y3323899D01*
X45035393Y3105392D01*
X45253900Y2926068D01*
X45503193Y2792818D01*
X45773692Y2710764D01*
X46055000Y2683057D01*
X46336309Y2710764D01*
X46606808Y2792818D01*
X46856101Y2926068D01*
X47074608Y3105392D01*
X47253932Y3323899D01*
X47325000Y3456858D01*
X47396068Y3323899D01*
X47575393Y3105392D01*
X47793900Y2926068D01*
X48043193Y2792818D01*
X48313692Y2710764D01*
X48595000Y2683057D01*
X48876309Y2710764D01*
X49146808Y2792818D01*
X49396101Y2926068D01*
X49614608Y3105392D01*
X49793932Y3323899D01*
X49865000Y3456858D01*
X49936068Y3323899D01*
X50115393Y3105392D01*
X50333900Y2926068D01*
X50583193Y2792818D01*
X50853692Y2710764D01*
X51135000Y2683057D01*
X51416309Y2710764D01*
X51686808Y2792818D01*
X51936101Y2926068D01*
X52154608Y3105392D01*
X52333932Y3323899D01*
X52405000Y3456858D01*
X52476068Y3323899D01*
X52655393Y3105392D01*
X52873900Y2926068D01*
X53123193Y2792818D01*
X53393692Y2710764D01*
X53675000Y2683057D01*
X53956309Y2710764D01*
X54226808Y2792818D01*
X54476101Y2926068D01*
X54694608Y3105392D01*
X54873932Y3323899D01*
X54945000Y3456858D01*
X55016068Y3323899D01*
X55195393Y3105392D01*
X55413900Y2926068D01*
X55663193Y2792818D01*
X55933692Y2710764D01*
X56215000Y2683057D01*
X56496309Y2710764D01*
X56766808Y2792818D01*
X57016101Y2926068D01*
X57234608Y3105392D01*
X57413932Y3323899D01*
X57485000Y3456858D01*
X57556068Y3323899D01*
X57735393Y3105392D01*
X57953900Y2926068D01*
X58203193Y2792818D01*
X58473692Y2710764D01*
X58755000Y2683057D01*
X59036309Y2710764D01*
X59306808Y2792818D01*
X59556101Y2926068D01*
X59774608Y3105392D01*
X59953932Y3323899D01*
X60025000Y3456858D01*
X60096068Y3323899D01*
X60275393Y3105392D01*
X60493900Y2926068D01*
X60743193Y2792818D01*
X61013692Y2710764D01*
X61295000Y2683057D01*
X61576309Y2710764D01*
X61846808Y2792818D01*
X62096101Y2926068D01*
X62314608Y3105392D01*
X62493932Y3323899D01*
X62565000Y3456858D01*
X62636068Y3323899D01*
X62815393Y3105392D01*
X63033900Y2926068D01*
X63283193Y2792818D01*
X63553692Y2710764D01*
X63835000Y2683057D01*
X64116309Y2710764D01*
X64386808Y2792818D01*
X64636101Y2926068D01*
X64854608Y3105392D01*
X65033932Y3323899D01*
X65167182Y3573192D01*
X65249236Y3843691D01*
X65270000Y4054509D01*
X65270000Y4995492D01*
X65249236Y5206309D01*
X65167182Y5476808D01*
X65033932Y5726101D01*
X64854607Y5944608D01*
X64636100Y6123932D01*
X64559826Y6164701D01*
X64559365Y6169385D01*
X64557303Y6176185D01*
X64519935Y6299367D01*
X64517337Y6307933D01*
X64449087Y6435620D01*
X64357238Y6547538D01*
X64329193Y6570554D01*
X63458800Y7440946D01*
X63458800Y17979549D01*
X63553692Y17950764D01*
X63835000Y17923057D01*
X64116309Y17950764D01*
X64386808Y18032818D01*
X64636101Y18166068D01*
X64854608Y18345392D01*
X65033932Y18563899D01*
X65167182Y18813192D01*
X65249236Y19083691D01*
X65270000Y19294509D01*
X65270000Y20235492D01*
X65249236Y20446309D01*
X65167182Y20716808D01*
X65033932Y20966101D01*
X64854607Y21184608D01*
X64821184Y21212038D01*
X65454993Y21845846D01*
X65483038Y21868862D01*
X65574887Y21980780D01*
X65580367Y21991033D01*
X65643137Y22108466D01*
X65685165Y22247015D01*
X65699356Y22391100D01*
X65695800Y22427205D01*
X65695800Y36352795D01*
X65699356Y36388900D01*
X65685165Y36532985D01*
X65643137Y36671534D01*
X65574887Y36799220D01*
X65506053Y36883094D01*
X65506050Y36883097D01*
X65483037Y36911138D01*
X65454997Y36934150D01*
X64821184Y37567962D01*
X64854608Y37595392D01*
X65033932Y37813899D01*
X65167182Y38063192D01*
X65249236Y38333691D01*
X65270000Y38544509D01*
X65270000Y39485492D01*
X65249236Y39696309D01*
X65167182Y39966808D01*
X65033932Y40216101D01*
X64854607Y40434608D01*
X64636100Y40613932D01*
X64386807Y40747182D01*
X64116308Y40829236D01*
X63835000Y40856943D01*
X63553691Y40829236D01*
X63283192Y40747182D01*
X63033899Y40613932D01*
X62815392Y40434607D01*
X62636068Y40216100D01*
X62565000Y40083142D01*
X62493932Y40216101D01*
X62314607Y40434608D01*
X62096100Y40613932D01*
X61846807Y40747182D01*
X61576308Y40829236D01*
X61295000Y40856943D01*
X61013691Y40829236D01*
X60743192Y40747182D01*
X60493899Y40613932D01*
X60275392Y40434607D01*
X60096068Y40216100D01*
X60025000Y40083142D01*
X59953932Y40216101D01*
X59774607Y40434608D01*
X59556100Y40613932D01*
X59306807Y40747182D01*
X59036308Y40829236D01*
X58755000Y40856943D01*
X58473691Y40829236D01*
X58203192Y40747182D01*
X57953899Y40613932D01*
X57735392Y40434607D01*
X57556068Y40216100D01*
X57485000Y40083142D01*
X57413932Y40216101D01*
X57234607Y40434608D01*
X57016100Y40613932D01*
X56766807Y40747182D01*
X56496308Y40829236D01*
X56215000Y40856943D01*
X55933691Y40829236D01*
X55663192Y40747182D01*
X55413899Y40613932D01*
X55195392Y40434607D01*
X55016068Y40216100D01*
X54945000Y40083142D01*
X54873932Y40216101D01*
X54694607Y40434608D01*
X54476100Y40613932D01*
X54226807Y40747182D01*
X53956308Y40829236D01*
X53675000Y40856943D01*
X53393691Y40829236D01*
X53123192Y40747182D01*
X52873899Y40613932D01*
X52655392Y40434607D01*
X52476068Y40216100D01*
X52405000Y40083142D01*
X52333932Y40216101D01*
X52154607Y40434608D01*
X51970000Y40586111D01*
X51970000Y42823982D01*
X51974040Y42865000D01*
X51957918Y43028688D01*
X51910172Y43186087D01*
X51832636Y43331146D01*
X51754439Y43426430D01*
X51754437Y43426432D01*
X51728291Y43458291D01*
X51696433Y43484436D01*
X48090000Y47090867D01*
X48090000Y48183935D01*
X48201632Y48258525D01*
X48408475Y48465368D01*
X48525000Y48639760D01*
X48641525Y48465368D01*
X48848368Y48258525D01*
X49091589Y48096010D01*
X49361842Y47984068D01*
X49648740Y47927000D01*
X49941260Y47927000D01*
X50228158Y47984068D01*
X50498411Y48096010D01*
X50741632Y48258525D01*
X50948475Y48465368D01*
X51065000Y48639760D01*
X51181525Y48465368D01*
X51388368Y48258525D01*
X51631589Y48096010D01*
X51901842Y47984068D01*
X52188740Y47927000D01*
X52481260Y47927000D01*
X52768158Y47984068D01*
X53038411Y48096010D01*
X53281632Y48258525D01*
X53488475Y48465368D01*
X53605000Y48639760D01*
X53721525Y48465368D01*
X53928368Y48258525D01*
X54171589Y48096010D01*
X54441842Y47984068D01*
X54728740Y47927000D01*
X55021260Y47927000D01*
X55308158Y47984068D01*
X55578411Y48096010D01*
X55821632Y48258525D01*
X56028475Y48465368D01*
X56145000Y48639760D01*
X56261525Y48465368D01*
X56468368Y48258525D01*
X56711589Y48096010D01*
X56981842Y47984068D01*
X57268740Y47927000D01*
X57561260Y47927000D01*
X57848158Y47984068D01*
X58118411Y48096010D01*
X58361632Y48258525D01*
X58568475Y48465368D01*
X58730990Y48708589D01*
X58842932Y48978842D01*
X58900000Y49265740D01*
X58900000Y49558260D01*
X58842932Y49845158D01*
X58730990Y50115411D01*
X58568475Y50358632D01*
X58409627Y50517480D01*
X58544197Y50652050D01*
X58572237Y50675062D01*
X58595250Y50703103D01*
X58595253Y50703106D01*
X58664087Y50786980D01*
X58732337Y50914666D01*
X58774365Y51053215D01*
X58788556Y51197300D01*
X58785000Y51233405D01*
X58785000Y58785117D01*
X58996632Y58926525D01*
X59203475Y59133368D01*
X59320000Y59307760D01*
X59436525Y59133368D01*
X59643368Y58926525D01*
X59886589Y58764010D01*
X60156842Y58652068D01*
X60443740Y58595000D01*
X60736260Y58595000D01*
X61023158Y58652068D01*
X61293411Y58764010D01*
X61536632Y58926525D01*
X61743475Y59133368D01*
X61905990Y59376589D01*
X62017932Y59646842D01*
X62075000Y59933740D01*
X62075000Y60226260D01*
X62017932Y60513158D01*
X61905990Y60783411D01*
X61743475Y61026632D01*
X61536632Y61233475D01*
X61293411Y61395990D01*
X61023158Y61507932D01*
X60736260Y61565000D01*
X60443740Y61565000D01*
X60156842Y61507932D01*
X59886589Y61395990D01*
X59643368Y61233475D01*
X59436525Y61026632D01*
X59320000Y60852240D01*
X59203475Y61026632D01*
X58996632Y61233475D01*
X58753411Y61395990D01*
X58483158Y61507932D01*
X58196260Y61565000D01*
X57903740Y61565000D01*
X57616842Y61507932D01*
X57346589Y61395990D01*
X57103368Y61233475D01*
X56896525Y61026632D01*
X56780000Y60852240D01*
X56663475Y61026632D01*
X56456632Y61233475D01*
X56213411Y61395990D01*
X55943158Y61507932D01*
X55656260Y61565000D01*
X55363740Y61565000D01*
X55076842Y61507932D01*
X54806589Y61395990D01*
X54563368Y61233475D01*
X54356525Y61026632D01*
X54240000Y60852240D01*
X54123475Y61026632D01*
X53916632Y61233475D01*
X53673411Y61395990D01*
X53403158Y61507932D01*
X53116260Y61565000D01*
X52823740Y61565000D01*
X52536842Y61507932D01*
X52266589Y61395990D01*
X52023368Y61233475D01*
X51816525Y61026632D01*
X51700000Y60852240D01*
X51583475Y61026632D01*
X51376632Y61233475D01*
X51133411Y61395990D01*
X50863158Y61507932D01*
X50576260Y61565000D01*
X50283740Y61565000D01*
X49996842Y61507932D01*
X49726589Y61395990D01*
X49483368Y61233475D01*
X49443670Y61193777D01*
X48899358Y61738088D01*
X48876338Y61766138D01*
X48764420Y61857987D01*
X48636733Y61926237D01*
X48498185Y61968265D01*
X48390205Y61978900D01*
X48354100Y61982456D01*
X48317995Y61978900D01*
X36440294Y61978900D01*
X36404199Y61982455D01*
X36368104Y61978900D01*
X36368095Y61978900D01*
X36260115Y61968265D01*
X36121567Y61926237D01*
X35993880Y61857987D01*
X35881962Y61766138D01*
X35858946Y61738093D01*
X32285125Y58164271D01*
X32154759Y58294637D01*
X31922241Y58450000D01*
X32154759Y58605363D01*
X32354637Y58805241D01*
X32511680Y59040273D01*
X32619853Y59301426D01*
X32675000Y59578665D01*
X32675000Y59861335D01*
X32619853Y60138574D01*
X32511680Y60399727D01*
X32354637Y60634759D01*
X32154759Y60834637D01*
X31922241Y60990000D01*
X32154759Y61145363D01*
X32354637Y61345241D01*
X32511680Y61580273D01*
X32619853Y61841426D01*
X32675000Y62118665D01*
X32675000Y62401335D01*
X32619853Y62678574D01*
X32511680Y62939727D01*
X32354637Y63174759D01*
X32154759Y63374637D01*
X31922241Y63530000D01*
X32154759Y63685363D01*
X32354637Y63885241D01*
X32511680Y64120273D01*
X32619853Y64381426D01*
X32675000Y64658665D01*
X32675000Y64941335D01*
X32619853Y65218574D01*
X32511680Y65479727D01*
X32354637Y65714759D01*
X32154759Y65914637D01*
X31922241Y66070000D01*
X32154759Y66225363D01*
X32354637Y66425241D01*
X32511680Y66660273D01*
X32619853Y66921426D01*
X32675000Y67198665D01*
X32675000Y67481335D01*
X32619853Y67758574D01*
X32511680Y68019727D01*
X32354637Y68254759D01*
X32154759Y68454637D01*
X31922241Y68610000D01*
X32154759Y68765363D01*
X32354637Y68965241D01*
X32511680Y69200273D01*
X32619853Y69461426D01*
X32675000Y69738665D01*
X32675000Y70021335D01*
X32619853Y70298574D01*
X32511680Y70559727D01*
X32354637Y70794759D01*
X32154759Y70994637D01*
X31922241Y71150000D01*
X32154759Y71305363D01*
X32354637Y71505241D01*
X32511680Y71740273D01*
X32619853Y72001426D01*
X32675000Y72278665D01*
X32675000Y72561335D01*
X32619853Y72838574D01*
X32511680Y73099727D01*
X32354637Y73334759D01*
X32154759Y73534637D01*
X31919727Y73691680D01*
X31909135Y73696067D01*
X32095131Y73807615D01*
X32303519Y73996586D01*
X32471037Y74222580D01*
X32591246Y74476913D01*
X32631904Y74610961D01*
X32509915Y74833000D01*
X31367000Y74833000D01*
X31367000Y74813000D01*
X31113000Y74813000D01*
X31113000Y74833000D01*
X29970085Y74833000D01*
X29848096Y74610961D01*
X29888754Y74476913D01*
X30008963Y74222580D01*
X30176481Y73996586D01*
X30384869Y73807615D01*
X30570865Y73696067D01*
X30560273Y73691680D01*
X30325241Y73534637D01*
X30125363Y73334759D01*
X29968320Y73099727D01*
X29860147Y72838574D01*
X29805000Y72561335D01*
X29805000Y72278665D01*
X29860147Y72001426D01*
X29968320Y71740273D01*
X30125363Y71505241D01*
X30325241Y71305363D01*
X30557759Y71150000D01*
X30325241Y70994637D01*
X30125363Y70794759D01*
X29968320Y70559727D01*
X29860147Y70298574D01*
X29805000Y70021335D01*
X29805000Y69738665D01*
X29860147Y69461426D01*
X29865354Y69448856D01*
X29814637Y69524759D01*
X29614759Y69724637D01*
X29379727Y69881680D01*
X29118574Y69989853D01*
X28841335Y70045000D01*
X28558665Y70045000D01*
X28281426Y69989853D01*
X28020273Y69881680D01*
X27785241Y69724637D01*
X27585363Y69524759D01*
X27428320Y69289727D01*
X27320147Y69028574D01*
X27265000Y68751335D01*
X27265000Y68468665D01*
X27320147Y68191426D01*
X27428320Y67930273D01*
X27585363Y67695241D01*
X27785241Y67495363D01*
X28017759Y67340000D01*
X27785241Y67184637D01*
X27585363Y66984759D01*
X27428320Y66749727D01*
X27320147Y66488574D01*
X27265000Y66211335D01*
X27265000Y65928665D01*
X27320147Y65651426D01*
X27428320Y65390273D01*
X27585363Y65155241D01*
X27785241Y64955363D01*
X28020273Y64798320D01*
X28281426Y64690147D01*
X28558665Y64635000D01*
X28841335Y64635000D01*
X29118574Y64690147D01*
X29379727Y64798320D01*
X29614759Y64955363D01*
X29814637Y65155241D01*
X29865354Y65231144D01*
X29860147Y65218574D01*
X29805000Y64941335D01*
X29805000Y64658665D01*
X29860147Y64381426D01*
X29968320Y64120273D01*
X30125363Y63885241D01*
X30325241Y63685363D01*
X30557759Y63530000D01*
X30325241Y63374637D01*
X30125363Y63174759D01*
X29968320Y62939727D01*
X29860147Y62678574D01*
X29805000Y62401335D01*
X29805000Y62118665D01*
X29860147Y61841426D01*
X29968320Y61580273D01*
X30125363Y61345241D01*
X30325241Y61145363D01*
X30557759Y60990000D01*
X30325241Y60834637D01*
X30125363Y60634759D01*
X29968320Y60399727D01*
X29860147Y60138574D01*
X29805000Y59861335D01*
X29805000Y59578665D01*
X29860147Y59301426D01*
X29865354Y59288856D01*
X29814637Y59364759D01*
X29614759Y59564637D01*
X29379727Y59721680D01*
X29118574Y59829853D01*
X28841335Y59885000D01*
X28558665Y59885000D01*
X28281426Y59829853D01*
X28020273Y59721680D01*
X27785241Y59564637D01*
X27585363Y59364759D01*
X27428320Y59129727D01*
X27320147Y58868574D01*
X27265000Y58591335D01*
X27265000Y58308665D01*
X27320147Y58031426D01*
X27428320Y57770273D01*
X27585363Y57535241D01*
X27785241Y57335363D01*
X28017759Y57180000D01*
X27785241Y57024637D01*
X27585363Y56824759D01*
X27428320Y56589727D01*
X27320147Y56328574D01*
X27265000Y56051335D01*
X27265000Y55768665D01*
X27320147Y55491426D01*
X27428320Y55230273D01*
X27585363Y54995241D01*
X27785241Y54795363D01*
X28020273Y54638320D01*
X28281426Y54530147D01*
X28558665Y54475000D01*
X28841335Y54475000D01*
X29118574Y54530147D01*
X29379727Y54638320D01*
X29614759Y54795363D01*
X29814637Y54995241D01*
X29865354Y55071144D01*
X29860147Y55058574D01*
X29805000Y54781335D01*
X29805000Y54498665D01*
X29860147Y54221426D01*
X29968320Y53960273D01*
X30125363Y53725241D01*
X30325241Y53525363D01*
X30557759Y53370000D01*
X30325241Y53214637D01*
X30125363Y53014759D01*
X29968320Y52779727D01*
X29860147Y52518574D01*
X29805000Y52241335D01*
X29805000Y51958665D01*
X29860147Y51681426D01*
X29968320Y51420273D01*
X30125363Y51185241D01*
X30325241Y50985363D01*
X30557759Y50830000D01*
X30325241Y50674637D01*
X30125363Y50474759D01*
X29968320Y50239727D01*
X29860147Y49978574D01*
X29805000Y49701335D01*
X29805000Y49418665D01*
X29860147Y49141426D01*
X29968320Y48880273D01*
X30125363Y48645241D01*
X30325241Y48445363D01*
X30560273Y48288320D01*
X30821426Y48180147D01*
X31098665Y48125000D01*
X31381335Y48125000D01*
X31658574Y48180147D01*
X31919727Y48288320D01*
X32154759Y48445363D01*
X32271396Y48562000D01*
X43226928Y48562000D01*
X43239188Y48437518D01*
X43275498Y48317820D01*
X43334463Y48207506D01*
X43413815Y48110815D01*
X43510506Y48031463D01*
X43620820Y47972498D01*
X43740518Y47936188D01*
X43865000Y47923928D01*
X44429250Y47927000D01*
X44588000Y48085750D01*
X44588000Y49285000D01*
X43388750Y49285000D01*
X43230000Y49126250D01*
X43226928Y48562000D01*
X32271396Y48562000D01*
X32354637Y48645241D01*
X32511680Y48880273D01*
X32619853Y49141426D01*
X32675000Y49418665D01*
X32675000Y49701335D01*
X32619853Y49978574D01*
X32511680Y50239727D01*
X32496798Y50262000D01*
X43226928Y50262000D01*
X43230000Y49697750D01*
X43388750Y49539000D01*
X44588000Y49539000D01*
X44588000Y50738250D01*
X44429250Y50897000D01*
X43865000Y50900072D01*
X43740518Y50887812D01*
X43620820Y50851502D01*
X43510506Y50792537D01*
X43413815Y50713185D01*
X43334463Y50616494D01*
X43275498Y50506180D01*
X43239188Y50386482D01*
X43226928Y50262000D01*
X32496798Y50262000D01*
X32354637Y50474759D01*
X32154759Y50674637D01*
X31922241Y50830000D01*
X32154759Y50985363D01*
X32354637Y51185241D01*
X32511680Y51420273D01*
X32619853Y51681426D01*
X32675000Y51958665D01*
X32675000Y52241335D01*
X32619853Y52518574D01*
X32511680Y52779727D01*
X32354637Y53014759D01*
X32154759Y53214637D01*
X31922241Y53370000D01*
X32154759Y53525363D01*
X32354637Y53725241D01*
X32511680Y53960273D01*
X32619853Y54221426D01*
X32675000Y54498665D01*
X32675000Y54781335D01*
X32619853Y55058574D01*
X32511680Y55319727D01*
X32354637Y55554759D01*
X32154759Y55754637D01*
X31922241Y55910000D01*
X32154759Y56065363D01*
X32354637Y56265241D01*
X32481676Y56455368D01*
X32484385Y56455635D01*
X32622933Y56497663D01*
X32750620Y56565913D01*
X32862538Y56657762D01*
X32885559Y56685813D01*
X36708647Y60508900D01*
X38781928Y60508900D01*
X38781928Y59230000D01*
X38794188Y59105518D01*
X38830498Y58985820D01*
X38889463Y58875506D01*
X38968815Y58778815D01*
X39065506Y58699463D01*
X39175820Y58640498D01*
X39295518Y58604188D01*
X39420000Y58591928D01*
X39435000Y58591928D01*
X39435000Y57688319D01*
X39430960Y57647300D01*
X39435000Y57606282D01*
X39447082Y57483612D01*
X39494828Y57326214D01*
X39572364Y57181155D01*
X39676709Y57054009D01*
X39708579Y57027854D01*
X46239662Y50496769D01*
X46176513Y50433620D01*
X46154502Y50506180D01*
X46095537Y50616494D01*
X46016185Y50713185D01*
X45919494Y50792537D01*
X45809180Y50851502D01*
X45689482Y50887812D01*
X45565000Y50900072D01*
X45000750Y50897000D01*
X44842000Y50738250D01*
X44842000Y49539000D01*
X44862000Y49539000D01*
X44862000Y49285000D01*
X44842000Y49285000D01*
X44842000Y48085750D01*
X45000750Y47927000D01*
X45565000Y47923928D01*
X45689482Y47936188D01*
X45809180Y47972498D01*
X45919494Y48031463D01*
X46016185Y48110815D01*
X46095537Y48207506D01*
X46154502Y48317820D01*
X46176513Y48390380D01*
X46308368Y48258525D01*
X46420000Y48183935D01*
X46420001Y46786028D01*
X46415960Y46745000D01*
X46432082Y46581312D01*
X46479828Y46423914D01*
X46479829Y46423913D01*
X46557365Y46278854D01*
X46661710Y46151709D01*
X46693574Y46125559D01*
X50300000Y42519131D01*
X50300001Y40586112D01*
X50115392Y40434607D01*
X49936068Y40216100D01*
X49865000Y40083142D01*
X49793932Y40216101D01*
X49614607Y40434608D01*
X49396100Y40613932D01*
X49146807Y40747182D01*
X48876308Y40829236D01*
X48595000Y40856943D01*
X48313691Y40829236D01*
X48043192Y40747182D01*
X47793899Y40613932D01*
X47575392Y40434607D01*
X47396068Y40216100D01*
X47325000Y40083142D01*
X47253932Y40216101D01*
X47074607Y40434608D01*
X46856100Y40613932D01*
X46606807Y40747182D01*
X46336308Y40829236D01*
X46055000Y40856943D01*
X45773691Y40829236D01*
X45503192Y40747182D01*
X45253899Y40613932D01*
X45035392Y40434607D01*
X44856068Y40216100D01*
X44785000Y40083142D01*
X44713932Y40216101D01*
X44534607Y40434608D01*
X44316100Y40613932D01*
X44066807Y40747182D01*
X43796308Y40829236D01*
X43515000Y40856943D01*
X43233691Y40829236D01*
X42963192Y40747182D01*
X42713899Y40613932D01*
X42495392Y40434607D01*
X42316068Y40216100D01*
X42245000Y40083142D01*
X42173932Y40216101D01*
X41994607Y40434608D01*
X41776100Y40613932D01*
X41526807Y40747182D01*
X41256308Y40829236D01*
X40975000Y40856943D01*
X40693691Y40829236D01*
X40423192Y40747182D01*
X40173899Y40613932D01*
X39955392Y40434607D01*
X39776068Y40216100D01*
X39705000Y40083142D01*
X39633932Y40216101D01*
X39454607Y40434608D01*
X39236100Y40613932D01*
X38986807Y40747182D01*
X38716308Y40829236D01*
X38435000Y40856943D01*
X38153691Y40829236D01*
X37883192Y40747182D01*
X37633899Y40613932D01*
X37415392Y40434607D01*
X37236068Y40216100D01*
X37165000Y40083142D01*
X37093932Y40216101D01*
X36914607Y40434608D01*
X36696100Y40613932D01*
X36446807Y40747182D01*
X36176308Y40829236D01*
X35895000Y40856943D01*
X35613691Y40829236D01*
X35343192Y40747182D01*
X35093899Y40613932D01*
X34875392Y40434607D01*
X34696068Y40216100D01*
X34625000Y40083142D01*
X34553932Y40216101D01*
X34374607Y40434608D01*
X34156100Y40613932D01*
X33906807Y40747182D01*
X33636308Y40829236D01*
X33355000Y40856943D01*
X33073691Y40829236D01*
X32803192Y40747182D01*
X32553899Y40613932D01*
X32335392Y40434607D01*
X32156068Y40216100D01*
X32085000Y40083142D01*
X32013932Y40216101D01*
X31834607Y40434608D01*
X31616100Y40613932D01*
X31366807Y40747182D01*
X31096308Y40829236D01*
X30815000Y40856943D01*
X30533691Y40829236D01*
X30263192Y40747182D01*
X30013899Y40613932D01*
X29795392Y40434607D01*
X29616068Y40216100D01*
X29545000Y40083142D01*
X29473932Y40216101D01*
X29294607Y40434608D01*
X29076100Y40613932D01*
X28826807Y40747182D01*
X28556308Y40829236D01*
X28275000Y40856943D01*
X27993691Y40829236D01*
X27723192Y40747182D01*
X27473899Y40613932D01*
X27255392Y40434607D01*
X27076068Y40216100D01*
X27005000Y40083142D01*
X26933932Y40216101D01*
X26754607Y40434608D01*
X26536100Y40613932D01*
X26286807Y40747182D01*
X26016308Y40829236D01*
X25735000Y40856943D01*
X25453691Y40829236D01*
X25183192Y40747182D01*
X24933899Y40613932D01*
X24715392Y40434607D01*
X24536068Y40216100D01*
X24465000Y40083142D01*
X24393932Y40216101D01*
X24214607Y40434608D01*
X23996100Y40613932D01*
X23746807Y40747182D01*
X23476308Y40829236D01*
X23195000Y40856943D01*
X22913691Y40829236D01*
X22643192Y40747182D01*
X22393899Y40613932D01*
X22175392Y40434607D01*
X21996068Y40216100D01*
X21925000Y40083142D01*
X21853932Y40216101D01*
X21674607Y40434608D01*
X21456100Y40613932D01*
X21206807Y40747182D01*
X20936308Y40829236D01*
X20655000Y40856943D01*
X20373691Y40829236D01*
X20103192Y40747182D01*
X19853899Y40613932D01*
X19635392Y40434607D01*
X19456068Y40216100D01*
X19385000Y40083142D01*
X19313932Y40216101D01*
X19134607Y40434608D01*
X18916100Y40613932D01*
X18666807Y40747182D01*
X18396308Y40829236D01*
X18115000Y40856943D01*
X17833691Y40829236D01*
X17563192Y40747182D01*
X17313899Y40613932D01*
X17095392Y40434607D01*
X16916068Y40216100D01*
X16845000Y40083142D01*
X16773932Y40216101D01*
X16594607Y40434608D01*
X16376100Y40613932D01*
X16126807Y40747182D01*
X15856308Y40829236D01*
X15575000Y40856943D01*
X15293691Y40829236D01*
X15023192Y40747182D01*
X14773899Y40613932D01*
X14555392Y40434607D01*
X14376068Y40216100D01*
X14242818Y39966807D01*
X14160764Y39696308D01*
X14140000Y39485491D01*
X14140000Y38544508D01*
X14160764Y38333691D01*
X14242818Y38063192D01*
X14376068Y37813899D01*
X14555393Y37595392D01*
X14773900Y37416068D01*
X14850174Y37375299D01*
X14850635Y37370615D01*
X14874816Y37290904D01*
X14892664Y37232067D01*
X14960914Y37104380D01*
X15052763Y36992462D01*
X15080808Y36969446D01*
X15968300Y36081953D01*
X15968301Y25613072D01*
X14775000Y25613072D01*
X14650518Y25600812D01*
X14530820Y25564502D01*
X14420506Y25505537D01*
X14323815Y25426185D01*
X14244463Y25329494D01*
X14185498Y25219180D01*
X14149188Y25099482D01*
X14136928Y24975000D01*
X14136928Y22575000D01*
X14149188Y22450518D01*
X14185498Y22330820D01*
X14244463Y22220506D01*
X14323815Y22123815D01*
X14357239Y22096385D01*
X13980508Y21719654D01*
X13952462Y21696637D01*
X13860613Y21584719D01*
X13792363Y21457032D01*
X13771341Y21387732D01*
X13750335Y21318485D01*
X13736144Y21174400D01*
X660000Y21174400D01*
X660000Y78300000D01*
X14561928Y78300000D01*
X14561928Y76700000D01*
X14574188Y76575518D01*
X14610498Y76455820D01*
X14669463Y76345506D01*
X14748815Y76248815D01*
X14845506Y76169463D01*
X14955820Y76110498D01*
X15075518Y76074188D01*
X15083961Y76073357D01*
X14885363Y75874759D01*
X14728320Y75639727D01*
X14620147Y75378574D01*
X14565000Y75101335D01*
X14565000Y74818665D01*
X14620147Y74541426D01*
X14728320Y74280273D01*
X14885363Y74045241D01*
X15085241Y73845363D01*
X15317759Y73690000D01*
X15085241Y73534637D01*
X14885363Y73334759D01*
X14728320Y73099727D01*
X14620147Y72838574D01*
X14565000Y72561335D01*
X14565000Y72278665D01*
X14620147Y72001426D01*
X14728320Y71740273D01*
X14885363Y71505241D01*
X15085241Y71305363D01*
X15317759Y71150000D01*
X15085241Y70994637D01*
X14885363Y70794759D01*
X14728320Y70559727D01*
X14620147Y70298574D01*
X14565000Y70021335D01*
X14565000Y69738665D01*
X14620147Y69461426D01*
X14728320Y69200273D01*
X14885363Y68965241D01*
X15085241Y68765363D01*
X15317759Y68610000D01*
X15085241Y68454637D01*
X14885363Y68254759D01*
X14728320Y68019727D01*
X14620147Y67758574D01*
X14565000Y67481335D01*
X14565000Y67198665D01*
X14620147Y66921426D01*
X14728320Y66660273D01*
X14885363Y66425241D01*
X15085241Y66225363D01*
X15317759Y66070000D01*
X15085241Y65914637D01*
X14885363Y65714759D01*
X14728320Y65479727D01*
X14620147Y65218574D01*
X14565000Y64941335D01*
X14565000Y64658665D01*
X14620147Y64381426D01*
X14728320Y64120273D01*
X14885363Y63885241D01*
X15085241Y63685363D01*
X15317759Y63530000D01*
X15085241Y63374637D01*
X14885363Y63174759D01*
X14728320Y62939727D01*
X14620147Y62678574D01*
X14565000Y62401335D01*
X14565000Y62118665D01*
X14620147Y61841426D01*
X14728320Y61580273D01*
X14885363Y61345241D01*
X15085241Y61145363D01*
X15317759Y60990000D01*
X15085241Y60834637D01*
X14885363Y60634759D01*
X14728320Y60399727D01*
X14620147Y60138574D01*
X14565000Y59861335D01*
X14565000Y59578665D01*
X14620147Y59301426D01*
X14728320Y59040273D01*
X14885363Y58805241D01*
X15085241Y58605363D01*
X15317759Y58450000D01*
X15085241Y58294637D01*
X14885363Y58094759D01*
X14728320Y57859727D01*
X14620147Y57598574D01*
X14565000Y57321335D01*
X14565000Y57038665D01*
X14620147Y56761426D01*
X14728320Y56500273D01*
X14885363Y56265241D01*
X15085241Y56065363D01*
X15317759Y55910000D01*
X15085241Y55754637D01*
X14885363Y55554759D01*
X14728320Y55319727D01*
X14620147Y55058574D01*
X14565000Y54781335D01*
X14565000Y54498665D01*
X14620147Y54221426D01*
X14728320Y53960273D01*
X14885363Y53725241D01*
X15085241Y53525363D01*
X15317759Y53370000D01*
X15085241Y53214637D01*
X14885363Y53014759D01*
X14728320Y52779727D01*
X14620147Y52518574D01*
X14565000Y52241335D01*
X14565000Y51958665D01*
X14620147Y51681426D01*
X14728320Y51420273D01*
X14885363Y51185241D01*
X15085241Y50985363D01*
X15317759Y50830000D01*
X15085241Y50674637D01*
X14885363Y50474759D01*
X14728320Y50239727D01*
X14620147Y49978574D01*
X14565000Y49701335D01*
X14565000Y49418665D01*
X14620147Y49141426D01*
X14728320Y48880273D01*
X14885363Y48645241D01*
X15085241Y48445363D01*
X15320273Y48288320D01*
X15581426Y48180147D01*
X15858665Y48125000D01*
X16141335Y48125000D01*
X16418574Y48180147D01*
X16679727Y48288320D01*
X16914759Y48445363D01*
X17114637Y48645241D01*
X17271680Y48880273D01*
X17379853Y49141426D01*
X17435000Y49418665D01*
X17435000Y49701335D01*
X17379853Y49978574D01*
X17271680Y50239727D01*
X17114637Y50474759D01*
X16914759Y50674637D01*
X16682241Y50830000D01*
X16914759Y50985363D01*
X17114637Y51185241D01*
X17271680Y51420273D01*
X17379853Y51681426D01*
X17435000Y51958665D01*
X17435000Y52241335D01*
X17379853Y52518574D01*
X17271680Y52779727D01*
X17114637Y53014759D01*
X16914759Y53214637D01*
X16682241Y53370000D01*
X16914759Y53525363D01*
X17114637Y53725241D01*
X17271680Y53960273D01*
X17379853Y54221426D01*
X17435000Y54498665D01*
X17435000Y54781335D01*
X17379853Y55058574D01*
X17271680Y55319727D01*
X17114637Y55554759D01*
X16914759Y55754637D01*
X16682241Y55910000D01*
X16914759Y56065363D01*
X17114637Y56265241D01*
X17271680Y56500273D01*
X17379853Y56761426D01*
X17435000Y57038665D01*
X17435000Y57321335D01*
X17379853Y57598574D01*
X17271680Y57859727D01*
X17114637Y58094759D01*
X16914759Y58294637D01*
X16682241Y58450000D01*
X16914759Y58605363D01*
X17114637Y58805241D01*
X17271680Y59040273D01*
X17379853Y59301426D01*
X17435000Y59578665D01*
X17435000Y59861335D01*
X17379853Y60138574D01*
X17271680Y60399727D01*
X17114637Y60634759D01*
X16914759Y60834637D01*
X16682241Y60990000D01*
X16914759Y61145363D01*
X17114637Y61345241D01*
X17271680Y61580273D01*
X17379853Y61841426D01*
X17435000Y62118665D01*
X17435000Y62401335D01*
X17379853Y62678574D01*
X17271680Y62939727D01*
X17114637Y63174759D01*
X16914759Y63374637D01*
X16682241Y63530000D01*
X16914759Y63685363D01*
X17114637Y63885241D01*
X17271680Y64120273D01*
X17379853Y64381426D01*
X17435000Y64658665D01*
X17435000Y64941335D01*
X17379853Y65218574D01*
X17271680Y65479727D01*
X17114637Y65714759D01*
X16914759Y65914637D01*
X16682241Y66070000D01*
X16914759Y66225363D01*
X17114637Y66425241D01*
X17271680Y66660273D01*
X17379853Y66921426D01*
X17435000Y67198665D01*
X17435000Y67481335D01*
X17379853Y67758574D01*
X17271680Y68019727D01*
X17114637Y68254759D01*
X16914759Y68454637D01*
X16682241Y68610000D01*
X16914759Y68765363D01*
X17114637Y68965241D01*
X17271680Y69200273D01*
X17379853Y69461426D01*
X17435000Y69738665D01*
X17435000Y70021335D01*
X17379853Y70298574D01*
X17271680Y70559727D01*
X17114637Y70794759D01*
X16914759Y70994637D01*
X16682241Y71150000D01*
X16914759Y71305363D01*
X17114637Y71505241D01*
X17271680Y71740273D01*
X17379853Y72001426D01*
X17435000Y72278665D01*
X17435000Y72561335D01*
X17379853Y72838574D01*
X17271680Y73099727D01*
X17114637Y73334759D01*
X16914759Y73534637D01*
X16682241Y73690000D01*
X16914759Y73845363D01*
X17114637Y74045241D01*
X17271680Y74280273D01*
X17379853Y74541426D01*
X17435000Y74818665D01*
X17435000Y75101335D01*
X17379853Y75378574D01*
X17271680Y75639727D01*
X17114637Y75874759D01*
X16916039Y76073357D01*
X16924482Y76074188D01*
X17044180Y76110498D01*
X17154494Y76169463D01*
X17251185Y76248815D01*
X17330537Y76345506D01*
X17389502Y76455820D01*
X17425812Y76575518D01*
X17438072Y76700000D01*
X17438072Y77641335D01*
X29805000Y77641335D01*
X29805000Y77358665D01*
X29860147Y77081426D01*
X29968320Y76820273D01*
X30125363Y76585241D01*
X30325241Y76385363D01*
X30560273Y76228320D01*
X30570865Y76223933D01*
X30384869Y76112385D01*
X30176481Y75923414D01*
X30008963Y75697420D01*
X29888754Y75443087D01*
X29848096Y75309039D01*
X29970085Y75087000D01*
X31113000Y75087000D01*
X31113000Y75107000D01*
X31367000Y75107000D01*
X31367000Y75087000D01*
X32509915Y75087000D01*
X32631904Y75309039D01*
X32591246Y75443087D01*
X32471037Y75697420D01*
X32303519Y75923414D01*
X32095131Y76112385D01*
X31909135Y76223933D01*
X31919727Y76228320D01*
X32154759Y76385363D01*
X32354637Y76585241D01*
X32511680Y76820273D01*
X32619853Y77081426D01*
X32675000Y77358665D01*
X32675000Y77641335D01*
X32619853Y77918574D01*
X32511680Y78179727D01*
X32354637Y78414759D01*
X32154759Y78614637D01*
X31919727Y78771680D01*
X31658574Y78879853D01*
X31381335Y78935000D01*
X31098665Y78935000D01*
X30821426Y78879853D01*
X30560273Y78771680D01*
X30325241Y78614637D01*
X30125363Y78414759D01*
X29968320Y78179727D01*
X29860147Y77918574D01*
X29805000Y77641335D01*
X17438072Y77641335D01*
X17438072Y78300000D01*
X17425812Y78424482D01*
X17389502Y78544180D01*
X17330537Y78654494D01*
X17251185Y78751185D01*
X17154494Y78830537D01*
X17044180Y78889502D01*
X16924482Y78925812D01*
X16800000Y78938072D01*
X15200000Y78938072D01*
X15075518Y78925812D01*
X14955820Y78889502D01*
X14845506Y78830537D01*
X14748815Y78751185D01*
X14669463Y78654494D01*
X14610498Y78544180D01*
X14574188Y78424482D01*
X14561928Y78300000D01*
X660000Y78300000D01*
X660000Y89340000D01*
X39576270Y89340000D01*
X39566589Y89335990D01*
G04 #@! TA.AperFunction,Conductor*
D20*
G36*
X39566589Y89335990D02*
G01*
X39323368Y89173475D01*
X39116525Y88966632D01*
X38954010Y88723411D01*
X38842068Y88453158D01*
X38785000Y88166260D01*
X38785000Y87873740D01*
X38842068Y87586842D01*
X38954010Y87316589D01*
X39116525Y87073368D01*
X39323368Y86866525D01*
X39497760Y86750000D01*
X39323368Y86633475D01*
X39116525Y86426632D01*
X38954010Y86183411D01*
X38842068Y85913158D01*
X38785000Y85626260D01*
X38785000Y85333740D01*
X38842068Y85046842D01*
X38954010Y84776589D01*
X39116525Y84533368D01*
X39323368Y84326525D01*
X39566589Y84164010D01*
X39836842Y84052068D01*
X40123740Y83995000D01*
X40416260Y83995000D01*
X40703158Y84052068D01*
X40973411Y84164010D01*
X41216632Y84326525D01*
X41423475Y84533368D01*
X41585990Y84776589D01*
X41697932Y85046842D01*
X41755000Y85333740D01*
X41755000Y85626260D01*
X41697932Y85913158D01*
X41585990Y86183411D01*
X41423475Y86426632D01*
X41216632Y86633475D01*
X41042240Y86750000D01*
X41216632Y86866525D01*
X41423475Y87073368D01*
X41585990Y87316589D01*
X41697932Y87586842D01*
X41755000Y87873740D01*
X41755000Y88166260D01*
X41697932Y88453158D01*
X41585990Y88723411D01*
X41423475Y88966632D01*
X41216632Y89173475D01*
X40973411Y89335990D01*
X40963730Y89340000D01*
X59896270Y89340000D01*
X59886589Y89335990D01*
X59643368Y89173475D01*
X59436525Y88966632D01*
X59274010Y88723411D01*
X59162068Y88453158D01*
X59105000Y88166260D01*
X59105000Y87873740D01*
X59162068Y87586842D01*
X59274010Y87316589D01*
X59436525Y87073368D01*
X59643368Y86866525D01*
X59817760Y86750000D01*
X59643368Y86633475D01*
X59436525Y86426632D01*
X59274010Y86183411D01*
X59162068Y85913158D01*
X59105000Y85626260D01*
X59105000Y85333740D01*
X59162068Y85046842D01*
X59274010Y84776589D01*
X59436525Y84533368D01*
X59643368Y84326525D01*
X59886589Y84164010D01*
X60156842Y84052068D01*
X60443740Y83995000D01*
X60736260Y83995000D01*
X61023158Y84052068D01*
X61293411Y84164010D01*
X61536632Y84326525D01*
X61743475Y84533368D01*
X61905990Y84776589D01*
X62017932Y85046842D01*
X62075000Y85333740D01*
X62075000Y85626260D01*
X62017932Y85913158D01*
X61905990Y86183411D01*
X61743475Y86426632D01*
X61536632Y86633475D01*
X61362240Y86750000D01*
X61536632Y86866525D01*
X61743475Y87073368D01*
X61905990Y87316589D01*
X62017932Y87586842D01*
X62075000Y87873740D01*
X62075000Y88166260D01*
X62017932Y88453158D01*
X61905990Y88723411D01*
X61743475Y88966632D01*
X61536632Y89173475D01*
X61293411Y89335990D01*
X61283730Y89340000D01*
X67840001Y89340000D01*
X67840000Y660000D01*
X660000Y660000D01*
X660000Y4643109D01*
X3018519Y4643109D01*
X3115843Y4368748D01*
X3264822Y4118645D01*
X3459731Y3902412D01*
X3693080Y3728359D01*
X3955901Y3603175D01*
X4103110Y3558524D01*
X4333000Y3679845D01*
X4333000Y4873000D01*
X3139186Y4873000D01*
X3018519Y4643109D01*
X660000Y4643109D01*
X660000Y5356891D01*
X3018519Y5356891D01*
X3139186Y5127000D01*
X4333000Y5127000D01*
X4333000Y6320155D01*
X4587000Y6320155D01*
X4587000Y5127000D01*
X4607000Y5127000D01*
X4607000Y4873000D01*
X4587000Y4873000D01*
X4587000Y3679845D01*
X4816890Y3558524D01*
X4964099Y3603175D01*
X5226920Y3728359D01*
X5460269Y3902412D01*
X5536034Y3986466D01*
X5560498Y3905820D01*
X5619463Y3795506D01*
X5698815Y3698815D01*
X5795506Y3619463D01*
X5905820Y3560498D01*
X6025518Y3524188D01*
X6150000Y3511928D01*
X7850000Y3511928D01*
X7974482Y3524188D01*
X8094180Y3560498D01*
X8204494Y3619463D01*
X8301185Y3698815D01*
X8380537Y3795506D01*
X8439502Y3905820D01*
X8475812Y4025518D01*
X8488072Y4150000D01*
X8488072Y5850000D01*
X8475812Y5974482D01*
X8439502Y6094180D01*
X8380537Y6204494D01*
X8301185Y6301185D01*
X8204494Y6380537D01*
X8094180Y6439502D01*
X7974482Y6475812D01*
X7850000Y6488072D01*
X6150000Y6488072D01*
X6025518Y6475812D01*
X5905820Y6439502D01*
X5795506Y6380537D01*
X5698815Y6301185D01*
X5619463Y6204494D01*
X5560498Y6094180D01*
X5536034Y6013534D01*
X5460269Y6097588D01*
X5226920Y6271641D01*
X4964099Y6396825D01*
X4816890Y6441476D01*
X4587000Y6320155D01*
X4333000Y6320155D01*
X4103110Y6441476D01*
X3955901Y6396825D01*
X3693080Y6271641D01*
X3459731Y6097588D01*
X3264822Y5881355D01*
X3115843Y5631252D01*
X3018519Y5356891D01*
X660000Y5356891D01*
X660000Y21174400D01*
X13736144Y21174400D01*
X13739700Y21138295D01*
X13739701Y7161715D01*
X13736144Y7125600D01*
X13750335Y6981515D01*
X13789088Y6853767D01*
X13792364Y6842967D01*
X13860614Y6715280D01*
X13952463Y6603362D01*
X13980508Y6580346D01*
X14357239Y6203615D01*
X14323815Y6176185D01*
X14244463Y6079494D01*
X14185498Y5969180D01*
X14149188Y5849482D01*
X14136928Y5725000D01*
X14136928Y3325000D01*
X14149188Y3200518D01*
X14185498Y3080820D01*
X14244463Y2970506D01*
X14323815Y2873815D01*
X14420506Y2794463D01*
X14530820Y2735498D01*
X14650518Y2699188D01*
X14775000Y2686928D01*
X16375000Y2686928D01*
X16499482Y2699188D01*
X16619180Y2735498D01*
X16729494Y2794463D01*
X16826185Y2873815D01*
X16905537Y2970506D01*
X16964502Y3080820D01*
X17000812Y3200518D01*
X17002581Y3218483D01*
X17095393Y3105392D01*
X17313900Y2926068D01*
X17563193Y2792818D01*
X17833692Y2710764D01*
X18115000Y2683057D01*
X18396309Y2710764D01*
X18666808Y2792818D01*
X18916101Y2926068D01*
X19134608Y3105392D01*
X19313932Y3323899D01*
X19385000Y3456858D01*
X19456068Y3323899D01*
X19635393Y3105392D01*
X19853900Y2926068D01*
X20103193Y2792818D01*
X20373692Y2710764D01*
X20655000Y2683057D01*
X20936309Y2710764D01*
X21206808Y2792818D01*
X21456101Y2926068D01*
X21674608Y3105392D01*
X21853932Y3323899D01*
X21925000Y3456858D01*
X21996068Y3323899D01*
X22175393Y3105392D01*
X22393900Y2926068D01*
X22643193Y2792818D01*
X22913692Y2710764D01*
X23195000Y2683057D01*
X23476309Y2710764D01*
X23746808Y2792818D01*
X23996101Y2926068D01*
X24214608Y3105392D01*
X24393932Y3323899D01*
X24465000Y3456858D01*
X24536068Y3323899D01*
X24715393Y3105392D01*
X24933900Y2926068D01*
X25183193Y2792818D01*
X25453692Y2710764D01*
X25735000Y2683057D01*
X26016309Y2710764D01*
X26286808Y2792818D01*
X26536101Y2926068D01*
X26754608Y3105392D01*
X26933932Y3323899D01*
X27005000Y3456858D01*
X27076068Y3323899D01*
X27255393Y3105392D01*
X27473900Y2926068D01*
X27723193Y2792818D01*
X27993692Y2710764D01*
X28275000Y2683057D01*
X28556309Y2710764D01*
X28826808Y2792818D01*
X29076101Y2926068D01*
X29294608Y3105392D01*
X29473932Y3323899D01*
X29545000Y3456858D01*
X29616068Y3323899D01*
X29795393Y3105392D01*
X30013900Y2926068D01*
X30263193Y2792818D01*
X30533692Y2710764D01*
X30815000Y2683057D01*
X31096309Y2710764D01*
X31366808Y2792818D01*
X31616101Y2926068D01*
X31834608Y3105392D01*
X32013932Y3323899D01*
X32085000Y3456858D01*
X32156068Y3323899D01*
X32335393Y3105392D01*
X32553900Y2926068D01*
X32803193Y2792818D01*
X33073692Y2710764D01*
X33355000Y2683057D01*
X33636309Y2710764D01*
X33906808Y2792818D01*
X34156101Y2926068D01*
X34374608Y3105392D01*
X34553932Y3323899D01*
X34625000Y3456858D01*
X34696068Y3323899D01*
X34875393Y3105392D01*
X35093900Y2926068D01*
X35343193Y2792818D01*
X35613692Y2710764D01*
X35895000Y2683057D01*
X36176309Y2710764D01*
X36446808Y2792818D01*
X36696101Y2926068D01*
X36914608Y3105392D01*
X37093932Y3323899D01*
X37165000Y3456858D01*
X37236068Y3323899D01*
X37415393Y3105392D01*
X37633900Y2926068D01*
X37883193Y2792818D01*
X38153692Y2710764D01*
X38435000Y2683057D01*
X38716309Y2710764D01*
X38986808Y2792818D01*
X39236101Y2926068D01*
X39454608Y3105392D01*
X39633932Y3323899D01*
X39702265Y3451741D01*
X39852399Y3222161D01*
X40050105Y3020500D01*
X40283354Y2861285D01*
X40543182Y2750633D01*
X40625961Y2733096D01*
X40848000Y2855085D01*
X40848000Y4398000D01*
X40828000Y4398000D01*
X40828000Y4652000D01*
X40848000Y4652000D01*
X40848000Y6194915D01*
X40625961Y6316904D01*
X40543182Y6299367D01*
X40283354Y6188715D01*
X40050105Y6029500D01*
X39852399Y5827839D01*
X39702265Y5598259D01*
X39633932Y5726101D01*
X39454607Y5944608D01*
X39421184Y5972038D01*
X40040293Y6591146D01*
X40068338Y6614162D01*
X40160187Y6726080D01*
X40160241Y6726181D01*
X40228437Y6853766D01*
X40270465Y6992315D01*
X40284656Y7136400D01*
X40281100Y7172505D01*
X40281100Y18108768D01*
X40423193Y18032818D01*
X40693692Y17950764D01*
X40975000Y17923057D01*
X41256309Y17950764D01*
X41526808Y18032818D01*
X41610400Y18077499D01*
X41610401Y7231015D01*
X41606844Y7194900D01*
X41621035Y7050815D01*
X41663064Y6912267D01*
X41731314Y6784580D01*
X41823163Y6672662D01*
X41851208Y6649646D01*
X42528816Y5972037D01*
X42495392Y5944607D01*
X42316068Y5726100D01*
X42247735Y5598258D01*
X42097601Y5827839D01*
X41899895Y6029500D01*
X41666646Y6188715D01*
X41406818Y6299367D01*
X41324039Y6316904D01*
X41102000Y6194915D01*
X41102000Y4652000D01*
X41122000Y4652000D01*
X41122000Y4398000D01*
X41102000Y4398000D01*
X41102000Y2855085D01*
X41324039Y2733096D01*
X41406818Y2750633D01*
X41666646Y2861285D01*
X41899895Y3020500D01*
X42097601Y3222161D01*
X42247735Y3451741D01*
X42316068Y3323899D01*
X42495393Y3105392D01*
X42713900Y2926068D01*
X42963193Y2792818D01*
X43233692Y2710764D01*
X43515000Y2683057D01*
X43796309Y2710764D01*
X44066808Y2792818D01*
X44316101Y2926068D01*
X44534608Y3105392D01*
X44713932Y3323899D01*
X44785000Y3456858D01*
X44856068Y3323899D01*
X45035393Y3105392D01*
X45253900Y2926068D01*
X45503193Y2792818D01*
X45773692Y2710764D01*
X46055000Y2683057D01*
X46336309Y2710764D01*
X46606808Y2792818D01*
X46856101Y2926068D01*
X47074608Y3105392D01*
X47253932Y3323899D01*
X47325000Y3456858D01*
X47396068Y3323899D01*
X47575393Y3105392D01*
X47793900Y2926068D01*
X48043193Y2792818D01*
X48313692Y2710764D01*
X48595000Y2683057D01*
X48876309Y2710764D01*
X49146808Y2792818D01*
X49396101Y2926068D01*
X49614608Y3105392D01*
X49793932Y3323899D01*
X49865000Y3456858D01*
X49936068Y3323899D01*
X50115393Y3105392D01*
X50333900Y2926068D01*
X50583193Y2792818D01*
X50853692Y2710764D01*
X51135000Y2683057D01*
X51416309Y2710764D01*
X51686808Y2792818D01*
X51936101Y2926068D01*
X52154608Y3105392D01*
X52333932Y3323899D01*
X52405000Y3456858D01*
X52476068Y3323899D01*
X52655393Y3105392D01*
X52873900Y2926068D01*
X53123193Y2792818D01*
X53393692Y2710764D01*
X53675000Y2683057D01*
X53956309Y2710764D01*
X54226808Y2792818D01*
X54476101Y2926068D01*
X54694608Y3105392D01*
X54873932Y3323899D01*
X54945000Y3456858D01*
X55016068Y3323899D01*
X55195393Y3105392D01*
X55413900Y2926068D01*
X55663193Y2792818D01*
X55933692Y2710764D01*
X56215000Y2683057D01*
X56496309Y2710764D01*
X56766808Y2792818D01*
X57016101Y2926068D01*
X57234608Y3105392D01*
X57413932Y3323899D01*
X57485000Y3456858D01*
X57556068Y3323899D01*
X57735393Y3105392D01*
X57953900Y2926068D01*
X58203193Y2792818D01*
X58473692Y2710764D01*
X58755000Y2683057D01*
X59036309Y2710764D01*
X59306808Y2792818D01*
X59556101Y2926068D01*
X59774608Y3105392D01*
X59953932Y3323899D01*
X60025000Y3456858D01*
X60096068Y3323899D01*
X60275393Y3105392D01*
X60493900Y2926068D01*
X60743193Y2792818D01*
X61013692Y2710764D01*
X61295000Y2683057D01*
X61576309Y2710764D01*
X61846808Y2792818D01*
X62096101Y2926068D01*
X62314608Y3105392D01*
X62493932Y3323899D01*
X62565000Y3456858D01*
X62636068Y3323899D01*
X62815393Y3105392D01*
X63033900Y2926068D01*
X63283193Y2792818D01*
X63553692Y2710764D01*
X63835000Y2683057D01*
X64116309Y2710764D01*
X64386808Y2792818D01*
X64636101Y2926068D01*
X64854608Y3105392D01*
X65033932Y3323899D01*
X65167182Y3573192D01*
X65249236Y3843691D01*
X65270000Y4054509D01*
X65270000Y4995492D01*
X65249236Y5206309D01*
X65167182Y5476808D01*
X65033932Y5726101D01*
X64854607Y5944608D01*
X64636100Y6123932D01*
X64559826Y6164701D01*
X64559365Y6169385D01*
X64557303Y6176185D01*
X64519935Y6299367D01*
X64517337Y6307933D01*
X64449087Y6435620D01*
X64357238Y6547538D01*
X64329193Y6570554D01*
X63458800Y7440946D01*
X63458800Y17979549D01*
X63553692Y17950764D01*
X63835000Y17923057D01*
X64116309Y17950764D01*
X64386808Y18032818D01*
X64636101Y18166068D01*
X64854608Y18345392D01*
X65033932Y18563899D01*
X65167182Y18813192D01*
X65249236Y19083691D01*
X65270000Y19294509D01*
X65270000Y20235492D01*
X65249236Y20446309D01*
X65167182Y20716808D01*
X65033932Y20966101D01*
X64854607Y21184608D01*
X64821184Y21212038D01*
X65454993Y21845846D01*
X65483038Y21868862D01*
X65574887Y21980780D01*
X65580367Y21991033D01*
X65643137Y22108466D01*
X65685165Y22247015D01*
X65699356Y22391100D01*
X65695800Y22427205D01*
X65695800Y36352795D01*
X65699356Y36388900D01*
X65685165Y36532985D01*
X65643137Y36671534D01*
X65574887Y36799220D01*
X65506053Y36883094D01*
X65506050Y36883097D01*
X65483037Y36911138D01*
X65454997Y36934150D01*
X64821184Y37567962D01*
X64854608Y37595392D01*
X65033932Y37813899D01*
X65167182Y38063192D01*
X65249236Y38333691D01*
X65270000Y38544509D01*
X65270000Y39485492D01*
X65249236Y39696309D01*
X65167182Y39966808D01*
X65033932Y40216101D01*
X64854607Y40434608D01*
X64636100Y40613932D01*
X64386807Y40747182D01*
X64116308Y40829236D01*
X63835000Y40856943D01*
X63553691Y40829236D01*
X63283192Y40747182D01*
X63033899Y40613932D01*
X62815392Y40434607D01*
X62636068Y40216100D01*
X62565000Y40083142D01*
X62493932Y40216101D01*
X62314607Y40434608D01*
X62096100Y40613932D01*
X61846807Y40747182D01*
X61576308Y40829236D01*
X61295000Y40856943D01*
X61013691Y40829236D01*
X60743192Y40747182D01*
X60493899Y40613932D01*
X60275392Y40434607D01*
X60096068Y40216100D01*
X60025000Y40083142D01*
X59953932Y40216101D01*
X59774607Y40434608D01*
X59556100Y40613932D01*
X59306807Y40747182D01*
X59036308Y40829236D01*
X58755000Y40856943D01*
X58473691Y40829236D01*
X58203192Y40747182D01*
X57953899Y40613932D01*
X57735392Y40434607D01*
X57556068Y40216100D01*
X57485000Y40083142D01*
X57413932Y40216101D01*
X57234607Y40434608D01*
X57016100Y40613932D01*
X56766807Y40747182D01*
X56496308Y40829236D01*
X56215000Y40856943D01*
X55933691Y40829236D01*
X55663192Y40747182D01*
X55413899Y40613932D01*
X55195392Y40434607D01*
X55016068Y40216100D01*
X54945000Y40083142D01*
X54873932Y40216101D01*
X54694607Y40434608D01*
X54476100Y40613932D01*
X54226807Y40747182D01*
X53956308Y40829236D01*
X53675000Y40856943D01*
X53393691Y40829236D01*
X53123192Y40747182D01*
X52873899Y40613932D01*
X52655392Y40434607D01*
X52476068Y40216100D01*
X52405000Y40083142D01*
X52333932Y40216101D01*
X52154607Y40434608D01*
X51970000Y40586111D01*
X51970000Y42823982D01*
X51974040Y42865000D01*
X51957918Y43028688D01*
X51910172Y43186087D01*
X51832636Y43331146D01*
X51754439Y43426430D01*
X51754437Y43426432D01*
X51728291Y43458291D01*
X51696433Y43484436D01*
X48090000Y47090867D01*
X48090000Y48183935D01*
X48201632Y48258525D01*
X48408475Y48465368D01*
X48525000Y48639760D01*
X48641525Y48465368D01*
X48848368Y48258525D01*
X49091589Y48096010D01*
X49361842Y47984068D01*
X49648740Y47927000D01*
X49941260Y47927000D01*
X50228158Y47984068D01*
X50498411Y48096010D01*
X50741632Y48258525D01*
X50948475Y48465368D01*
X51065000Y48639760D01*
X51181525Y48465368D01*
X51388368Y48258525D01*
X51631589Y48096010D01*
X51901842Y47984068D01*
X52188740Y47927000D01*
X52481260Y47927000D01*
X52768158Y47984068D01*
X53038411Y48096010D01*
X53281632Y48258525D01*
X53488475Y48465368D01*
X53605000Y48639760D01*
X53721525Y48465368D01*
X53928368Y48258525D01*
X54171589Y48096010D01*
X54441842Y47984068D01*
X54728740Y47927000D01*
X55021260Y47927000D01*
X55308158Y47984068D01*
X55578411Y48096010D01*
X55821632Y48258525D01*
X56028475Y48465368D01*
X56145000Y48639760D01*
X56261525Y48465368D01*
X56468368Y48258525D01*
X56711589Y48096010D01*
X56981842Y47984068D01*
X57268740Y47927000D01*
X57561260Y47927000D01*
X57848158Y47984068D01*
X58118411Y48096010D01*
X58361632Y48258525D01*
X58568475Y48465368D01*
X58730990Y48708589D01*
X58842932Y48978842D01*
X58900000Y49265740D01*
X58900000Y49558260D01*
X58842932Y49845158D01*
X58730990Y50115411D01*
X58568475Y50358632D01*
X58409627Y50517480D01*
X58544197Y50652050D01*
X58572237Y50675062D01*
X58595250Y50703103D01*
X58595253Y50703106D01*
X58664087Y50786980D01*
X58732337Y50914666D01*
X58774365Y51053215D01*
X58788556Y51197300D01*
X58785000Y51233405D01*
X58785000Y58785117D01*
X58996632Y58926525D01*
X59203475Y59133368D01*
X59320000Y59307760D01*
X59436525Y59133368D01*
X59643368Y58926525D01*
X59886589Y58764010D01*
X60156842Y58652068D01*
X60443740Y58595000D01*
X60736260Y58595000D01*
X61023158Y58652068D01*
X61293411Y58764010D01*
X61536632Y58926525D01*
X61743475Y59133368D01*
X61905990Y59376589D01*
X62017932Y59646842D01*
X62075000Y59933740D01*
X62075000Y60226260D01*
X62017932Y60513158D01*
X61905990Y60783411D01*
X61743475Y61026632D01*
X61536632Y61233475D01*
X61293411Y61395990D01*
X61023158Y61507932D01*
X60736260Y61565000D01*
X60443740Y61565000D01*
X60156842Y61507932D01*
X59886589Y61395990D01*
X59643368Y61233475D01*
X59436525Y61026632D01*
X59320000Y60852240D01*
X59203475Y61026632D01*
X58996632Y61233475D01*
X58753411Y61395990D01*
X58483158Y61507932D01*
X58196260Y61565000D01*
X57903740Y61565000D01*
X57616842Y61507932D01*
X57346589Y61395990D01*
X57103368Y61233475D01*
X56896525Y61026632D01*
X56780000Y60852240D01*
X56663475Y61026632D01*
X56456632Y61233475D01*
X56213411Y61395990D01*
X55943158Y61507932D01*
X55656260Y61565000D01*
X55363740Y61565000D01*
X55076842Y61507932D01*
X54806589Y61395990D01*
X54563368Y61233475D01*
X54356525Y61026632D01*
X54240000Y60852240D01*
X54123475Y61026632D01*
X53916632Y61233475D01*
X53673411Y61395990D01*
X53403158Y61507932D01*
X53116260Y61565000D01*
X52823740Y61565000D01*
X52536842Y61507932D01*
X52266589Y61395990D01*
X52023368Y61233475D01*
X51816525Y61026632D01*
X51700000Y60852240D01*
X51583475Y61026632D01*
X51376632Y61233475D01*
X51133411Y61395990D01*
X50863158Y61507932D01*
X50576260Y61565000D01*
X50283740Y61565000D01*
X49996842Y61507932D01*
X49726589Y61395990D01*
X49483368Y61233475D01*
X49443670Y61193777D01*
X48899358Y61738088D01*
X48876338Y61766138D01*
X48764420Y61857987D01*
X48636733Y61926237D01*
X48498185Y61968265D01*
X48390205Y61978900D01*
X48354100Y61982456D01*
X48317995Y61978900D01*
X36440294Y61978900D01*
X36404199Y61982455D01*
X36368104Y61978900D01*
X36368095Y61978900D01*
X36260115Y61968265D01*
X36121567Y61926237D01*
X35993880Y61857987D01*
X35881962Y61766138D01*
X35858946Y61738093D01*
X32285125Y58164271D01*
X32154759Y58294637D01*
X31922241Y58450000D01*
X32154759Y58605363D01*
X32354637Y58805241D01*
X32511680Y59040273D01*
X32619853Y59301426D01*
X32675000Y59578665D01*
X32675000Y59861335D01*
X32619853Y60138574D01*
X32511680Y60399727D01*
X32354637Y60634759D01*
X32154759Y60834637D01*
X31922241Y60990000D01*
X32154759Y61145363D01*
X32354637Y61345241D01*
X32511680Y61580273D01*
X32619853Y61841426D01*
X32675000Y62118665D01*
X32675000Y62401335D01*
X32619853Y62678574D01*
X32511680Y62939727D01*
X32354637Y63174759D01*
X32154759Y63374637D01*
X31922241Y63530000D01*
X32154759Y63685363D01*
X32354637Y63885241D01*
X32511680Y64120273D01*
X32619853Y64381426D01*
X32675000Y64658665D01*
X32675000Y64941335D01*
X32619853Y65218574D01*
X32511680Y65479727D01*
X32354637Y65714759D01*
X32154759Y65914637D01*
X31922241Y66070000D01*
X32154759Y66225363D01*
X32354637Y66425241D01*
X32511680Y66660273D01*
X32619853Y66921426D01*
X32675000Y67198665D01*
X32675000Y67481335D01*
X32619853Y67758574D01*
X32511680Y68019727D01*
X32354637Y68254759D01*
X32154759Y68454637D01*
X31922241Y68610000D01*
X32154759Y68765363D01*
X32354637Y68965241D01*
X32511680Y69200273D01*
X32619853Y69461426D01*
X32675000Y69738665D01*
X32675000Y70021335D01*
X32619853Y70298574D01*
X32511680Y70559727D01*
X32354637Y70794759D01*
X32154759Y70994637D01*
X31922241Y71150000D01*
X32154759Y71305363D01*
X32354637Y71505241D01*
X32511680Y71740273D01*
X32619853Y72001426D01*
X32675000Y72278665D01*
X32675000Y72561335D01*
X32619853Y72838574D01*
X32511680Y73099727D01*
X32354637Y73334759D01*
X32154759Y73534637D01*
X31919727Y73691680D01*
X31909135Y73696067D01*
X32095131Y73807615D01*
X32303519Y73996586D01*
X32471037Y74222580D01*
X32591246Y74476913D01*
X32631904Y74610961D01*
X32509915Y74833000D01*
X31367000Y74833000D01*
X31367000Y74813000D01*
X31113000Y74813000D01*
X31113000Y74833000D01*
X29970085Y74833000D01*
X29848096Y74610961D01*
X29888754Y74476913D01*
X30008963Y74222580D01*
X30176481Y73996586D01*
X30384869Y73807615D01*
X30570865Y73696067D01*
X30560273Y73691680D01*
X30325241Y73534637D01*
X30125363Y73334759D01*
X29968320Y73099727D01*
X29860147Y72838574D01*
X29805000Y72561335D01*
X29805000Y72278665D01*
X29860147Y72001426D01*
X29968320Y71740273D01*
X30125363Y71505241D01*
X30325241Y71305363D01*
X30557759Y71150000D01*
X30325241Y70994637D01*
X30125363Y70794759D01*
X29968320Y70559727D01*
X29860147Y70298574D01*
X29805000Y70021335D01*
X29805000Y69738665D01*
X29860147Y69461426D01*
X29865354Y69448856D01*
X29814637Y69524759D01*
X29614759Y69724637D01*
X29379727Y69881680D01*
X29118574Y69989853D01*
X28841335Y70045000D01*
X28558665Y70045000D01*
X28281426Y69989853D01*
X28020273Y69881680D01*
X27785241Y69724637D01*
X27585363Y69524759D01*
X27428320Y69289727D01*
X27320147Y69028574D01*
X27265000Y68751335D01*
X27265000Y68468665D01*
X27320147Y68191426D01*
X27428320Y67930273D01*
X27585363Y67695241D01*
X27785241Y67495363D01*
X28017759Y67340000D01*
X27785241Y67184637D01*
X27585363Y66984759D01*
X27428320Y66749727D01*
X27320147Y66488574D01*
X27265000Y66211335D01*
X27265000Y65928665D01*
X27320147Y65651426D01*
X27428320Y65390273D01*
X27585363Y65155241D01*
X27785241Y64955363D01*
X28020273Y64798320D01*
X28281426Y64690147D01*
X28558665Y64635000D01*
X28841335Y64635000D01*
X29118574Y64690147D01*
X29379727Y64798320D01*
X29614759Y64955363D01*
X29814637Y65155241D01*
X29865354Y65231144D01*
X29860147Y65218574D01*
X29805000Y64941335D01*
X29805000Y64658665D01*
X29860147Y64381426D01*
X29968320Y64120273D01*
X30125363Y63885241D01*
X30325241Y63685363D01*
X30557759Y63530000D01*
X30325241Y63374637D01*
X30125363Y63174759D01*
X29968320Y62939727D01*
X29860147Y62678574D01*
X29805000Y62401335D01*
X29805000Y62118665D01*
X29860147Y61841426D01*
X29968320Y61580273D01*
X30125363Y61345241D01*
X30325241Y61145363D01*
X30557759Y60990000D01*
X30325241Y60834637D01*
X30125363Y60634759D01*
X29968320Y60399727D01*
X29860147Y60138574D01*
X29805000Y59861335D01*
X29805000Y59578665D01*
X29860147Y59301426D01*
X29865354Y59288856D01*
X29814637Y59364759D01*
X29614759Y59564637D01*
X29379727Y59721680D01*
X29118574Y59829853D01*
X28841335Y59885000D01*
X28558665Y59885000D01*
X28281426Y59829853D01*
X28020273Y59721680D01*
X27785241Y59564637D01*
X27585363Y59364759D01*
X27428320Y59129727D01*
X27320147Y58868574D01*
X27265000Y58591335D01*
X27265000Y58308665D01*
X27320147Y58031426D01*
X27428320Y57770273D01*
X27585363Y57535241D01*
X27785241Y57335363D01*
X28017759Y57180000D01*
X27785241Y57024637D01*
X27585363Y56824759D01*
X27428320Y56589727D01*
X27320147Y56328574D01*
X27265000Y56051335D01*
X27265000Y55768665D01*
X27320147Y55491426D01*
X27428320Y55230273D01*
X27585363Y54995241D01*
X27785241Y54795363D01*
X28020273Y54638320D01*
X28281426Y54530147D01*
X28558665Y54475000D01*
X28841335Y54475000D01*
X29118574Y54530147D01*
X29379727Y54638320D01*
X29614759Y54795363D01*
X29814637Y54995241D01*
X29865354Y55071144D01*
X29860147Y55058574D01*
X29805000Y54781335D01*
X29805000Y54498665D01*
X29860147Y54221426D01*
X29968320Y53960273D01*
X30125363Y53725241D01*
X30325241Y53525363D01*
X30557759Y53370000D01*
X30325241Y53214637D01*
X30125363Y53014759D01*
X29968320Y52779727D01*
X29860147Y52518574D01*
X29805000Y52241335D01*
X29805000Y51958665D01*
X29860147Y51681426D01*
X29968320Y51420273D01*
X30125363Y51185241D01*
X30325241Y50985363D01*
X30557759Y50830000D01*
X30325241Y50674637D01*
X30125363Y50474759D01*
X29968320Y50239727D01*
X29860147Y49978574D01*
X29805000Y49701335D01*
X29805000Y49418665D01*
X29860147Y49141426D01*
X29968320Y48880273D01*
X30125363Y48645241D01*
X30325241Y48445363D01*
X30560273Y48288320D01*
X30821426Y48180147D01*
X31098665Y48125000D01*
X31381335Y48125000D01*
X31658574Y48180147D01*
X31919727Y48288320D01*
X32154759Y48445363D01*
X32271396Y48562000D01*
X43226928Y48562000D01*
X43239188Y48437518D01*
X43275498Y48317820D01*
X43334463Y48207506D01*
X43413815Y48110815D01*
X43510506Y48031463D01*
X43620820Y47972498D01*
X43740518Y47936188D01*
X43865000Y47923928D01*
X44429250Y47927000D01*
X44588000Y48085750D01*
X44588000Y49285000D01*
X43388750Y49285000D01*
X43230000Y49126250D01*
X43226928Y48562000D01*
X32271396Y48562000D01*
X32354637Y48645241D01*
X32511680Y48880273D01*
X32619853Y49141426D01*
X32675000Y49418665D01*
X32675000Y49701335D01*
X32619853Y49978574D01*
X32511680Y50239727D01*
X32496798Y50262000D01*
X43226928Y50262000D01*
X43230000Y49697750D01*
X43388750Y49539000D01*
X44588000Y49539000D01*
X44588000Y50738250D01*
X44429250Y50897000D01*
X43865000Y50900072D01*
X43740518Y50887812D01*
X43620820Y50851502D01*
X43510506Y50792537D01*
X43413815Y50713185D01*
X43334463Y50616494D01*
X43275498Y50506180D01*
X43239188Y50386482D01*
X43226928Y50262000D01*
X32496798Y50262000D01*
X32354637Y50474759D01*
X32154759Y50674637D01*
X31922241Y50830000D01*
X32154759Y50985363D01*
X32354637Y51185241D01*
X32511680Y51420273D01*
X32619853Y51681426D01*
X32675000Y51958665D01*
X32675000Y52241335D01*
X32619853Y52518574D01*
X32511680Y52779727D01*
X32354637Y53014759D01*
X32154759Y53214637D01*
X31922241Y53370000D01*
X32154759Y53525363D01*
X32354637Y53725241D01*
X32511680Y53960273D01*
X32619853Y54221426D01*
X32675000Y54498665D01*
X32675000Y54781335D01*
X32619853Y55058574D01*
X32511680Y55319727D01*
X32354637Y55554759D01*
X32154759Y55754637D01*
X31922241Y55910000D01*
X32154759Y56065363D01*
X32354637Y56265241D01*
X32481676Y56455368D01*
X32484385Y56455635D01*
X32622933Y56497663D01*
X32750620Y56565913D01*
X32862538Y56657762D01*
X32885559Y56685813D01*
X36708647Y60508900D01*
X38781928Y60508900D01*
X38781928Y59230000D01*
X38794188Y59105518D01*
X38830498Y58985820D01*
X38889463Y58875506D01*
X38968815Y58778815D01*
X39065506Y58699463D01*
X39175820Y58640498D01*
X39295518Y58604188D01*
X39420000Y58591928D01*
X39435000Y58591928D01*
X39435000Y57688319D01*
X39430960Y57647300D01*
X39435000Y57606282D01*
X39447082Y57483612D01*
X39494828Y57326214D01*
X39572364Y57181155D01*
X39676709Y57054009D01*
X39708579Y57027854D01*
X46239662Y50496769D01*
X46176513Y50433620D01*
X46154502Y50506180D01*
X46095537Y50616494D01*
X46016185Y50713185D01*
X45919494Y50792537D01*
X45809180Y50851502D01*
X45689482Y50887812D01*
X45565000Y50900072D01*
X45000750Y50897000D01*
X44842000Y50738250D01*
X44842000Y49539000D01*
X44862000Y49539000D01*
X44862000Y49285000D01*
X44842000Y49285000D01*
X44842000Y48085750D01*
X45000750Y47927000D01*
X45565000Y47923928D01*
X45689482Y47936188D01*
X45809180Y47972498D01*
X45919494Y48031463D01*
X46016185Y48110815D01*
X46095537Y48207506D01*
X46154502Y48317820D01*
X46176513Y48390380D01*
X46308368Y48258525D01*
X46420000Y48183935D01*
X46420001Y46786028D01*
X46415960Y46745000D01*
X46432082Y46581312D01*
X46479828Y46423914D01*
X46479829Y46423913D01*
X46557365Y46278854D01*
X46661710Y46151709D01*
X46693574Y46125559D01*
X50300000Y42519131D01*
X50300001Y40586112D01*
X50115392Y40434607D01*
X49936068Y40216100D01*
X49865000Y40083142D01*
X49793932Y40216101D01*
X49614607Y40434608D01*
X49396100Y40613932D01*
X49146807Y40747182D01*
X48876308Y40829236D01*
X48595000Y40856943D01*
X48313691Y40829236D01*
X48043192Y40747182D01*
X47793899Y40613932D01*
X47575392Y40434607D01*
X47396068Y40216100D01*
X47325000Y40083142D01*
X47253932Y40216101D01*
X47074607Y40434608D01*
X46856100Y40613932D01*
X46606807Y40747182D01*
X46336308Y40829236D01*
X46055000Y40856943D01*
X45773691Y40829236D01*
X45503192Y40747182D01*
X45253899Y40613932D01*
X45035392Y40434607D01*
X44856068Y40216100D01*
X44785000Y40083142D01*
X44713932Y40216101D01*
X44534607Y40434608D01*
X44316100Y40613932D01*
X44066807Y40747182D01*
X43796308Y40829236D01*
X43515000Y40856943D01*
X43233691Y40829236D01*
X42963192Y40747182D01*
X42713899Y40613932D01*
X42495392Y40434607D01*
X42316068Y40216100D01*
X42245000Y40083142D01*
X42173932Y40216101D01*
X41994607Y40434608D01*
X41776100Y40613932D01*
X41526807Y40747182D01*
X41256308Y40829236D01*
X40975000Y40856943D01*
X40693691Y40829236D01*
X40423192Y40747182D01*
X40173899Y40613932D01*
X39955392Y40434607D01*
X39776068Y40216100D01*
X39705000Y40083142D01*
X39633932Y40216101D01*
X39454607Y40434608D01*
X39236100Y40613932D01*
X38986807Y40747182D01*
X38716308Y40829236D01*
X38435000Y40856943D01*
X38153691Y40829236D01*
X37883192Y40747182D01*
X37633899Y40613932D01*
X37415392Y40434607D01*
X37236068Y40216100D01*
X37165000Y40083142D01*
X37093932Y40216101D01*
X36914607Y40434608D01*
X36696100Y40613932D01*
X36446807Y40747182D01*
X36176308Y40829236D01*
X35895000Y40856943D01*
X35613691Y40829236D01*
X35343192Y40747182D01*
X35093899Y40613932D01*
X34875392Y40434607D01*
X34696068Y40216100D01*
X34625000Y40083142D01*
X34553932Y40216101D01*
X34374607Y40434608D01*
X34156100Y40613932D01*
X33906807Y40747182D01*
X33636308Y40829236D01*
X33355000Y40856943D01*
X33073691Y40829236D01*
X32803192Y40747182D01*
X32553899Y40613932D01*
X32335392Y40434607D01*
X32156068Y40216100D01*
X32085000Y40083142D01*
X32013932Y40216101D01*
X31834607Y40434608D01*
X31616100Y40613932D01*
X31366807Y40747182D01*
X31096308Y40829236D01*
X30815000Y40856943D01*
X30533691Y40829236D01*
X30263192Y40747182D01*
X30013899Y40613932D01*
X29795392Y40434607D01*
X29616068Y40216100D01*
X29545000Y40083142D01*
X29473932Y40216101D01*
X29294607Y40434608D01*
X29076100Y40613932D01*
X28826807Y40747182D01*
X28556308Y40829236D01*
X28275000Y40856943D01*
X27993691Y40829236D01*
X27723192Y40747182D01*
X27473899Y40613932D01*
X27255392Y40434607D01*
X27076068Y40216100D01*
X27005000Y40083142D01*
X26933932Y40216101D01*
X26754607Y40434608D01*
X26536100Y40613932D01*
X26286807Y40747182D01*
X26016308Y40829236D01*
X25735000Y40856943D01*
X25453691Y40829236D01*
X25183192Y40747182D01*
X24933899Y40613932D01*
X24715392Y40434607D01*
X24536068Y40216100D01*
X24465000Y40083142D01*
X24393932Y40216101D01*
X24214607Y40434608D01*
X23996100Y40613932D01*
X23746807Y40747182D01*
X23476308Y40829236D01*
X23195000Y40856943D01*
X22913691Y40829236D01*
X22643192Y40747182D01*
X22393899Y40613932D01*
X22175392Y40434607D01*
X21996068Y40216100D01*
X21925000Y40083142D01*
X21853932Y40216101D01*
X21674607Y40434608D01*
X21456100Y40613932D01*
X21206807Y40747182D01*
X20936308Y40829236D01*
X20655000Y40856943D01*
X20373691Y40829236D01*
X20103192Y40747182D01*
X19853899Y40613932D01*
X19635392Y40434607D01*
X19456068Y40216100D01*
X19385000Y40083142D01*
X19313932Y40216101D01*
X19134607Y40434608D01*
X18916100Y40613932D01*
X18666807Y40747182D01*
X18396308Y40829236D01*
X18115000Y40856943D01*
X17833691Y40829236D01*
X17563192Y40747182D01*
X17313899Y40613932D01*
X17095392Y40434607D01*
X16916068Y40216100D01*
X16845000Y40083142D01*
X16773932Y40216101D01*
X16594607Y40434608D01*
X16376100Y40613932D01*
X16126807Y40747182D01*
X15856308Y40829236D01*
X15575000Y40856943D01*
X15293691Y40829236D01*
X15023192Y40747182D01*
X14773899Y40613932D01*
X14555392Y40434607D01*
X14376068Y40216100D01*
X14242818Y39966807D01*
X14160764Y39696308D01*
X14140000Y39485491D01*
X14140000Y38544508D01*
X14160764Y38333691D01*
X14242818Y38063192D01*
X14376068Y37813899D01*
X14555393Y37595392D01*
X14773900Y37416068D01*
X14850174Y37375299D01*
X14850635Y37370615D01*
X14874816Y37290904D01*
X14892664Y37232067D01*
X14960914Y37104380D01*
X15052763Y36992462D01*
X15080808Y36969446D01*
X15968300Y36081953D01*
X15968301Y25613072D01*
X14775000Y25613072D01*
X14650518Y25600812D01*
X14530820Y25564502D01*
X14420506Y25505537D01*
X14323815Y25426185D01*
X14244463Y25329494D01*
X14185498Y25219180D01*
X14149188Y25099482D01*
X14136928Y24975000D01*
X14136928Y22575000D01*
X14149188Y22450518D01*
X14185498Y22330820D01*
X14244463Y22220506D01*
X14323815Y22123815D01*
X14357239Y22096385D01*
X13980508Y21719654D01*
X13952462Y21696637D01*
X13860613Y21584719D01*
X13792363Y21457032D01*
X13771341Y21387732D01*
X13750335Y21318485D01*
X13736144Y21174400D01*
X660000Y21174400D01*
X660000Y78300000D01*
X14561928Y78300000D01*
X14561928Y76700000D01*
X14574188Y76575518D01*
X14610498Y76455820D01*
X14669463Y76345506D01*
X14748815Y76248815D01*
X14845506Y76169463D01*
X14955820Y76110498D01*
X15075518Y76074188D01*
X15083961Y76073357D01*
X14885363Y75874759D01*
X14728320Y75639727D01*
X14620147Y75378574D01*
X14565000Y75101335D01*
X14565000Y74818665D01*
X14620147Y74541426D01*
X14728320Y74280273D01*
X14885363Y74045241D01*
X15085241Y73845363D01*
X15317759Y73690000D01*
X15085241Y73534637D01*
X14885363Y73334759D01*
X14728320Y73099727D01*
X14620147Y72838574D01*
X14565000Y72561335D01*
X14565000Y72278665D01*
X14620147Y72001426D01*
X14728320Y71740273D01*
X14885363Y71505241D01*
X15085241Y71305363D01*
X15317759Y71150000D01*
X15085241Y70994637D01*
X14885363Y70794759D01*
X14728320Y70559727D01*
X14620147Y70298574D01*
X14565000Y70021335D01*
X14565000Y69738665D01*
X14620147Y69461426D01*
X14728320Y69200273D01*
X14885363Y68965241D01*
X15085241Y68765363D01*
X15317759Y68610000D01*
X15085241Y68454637D01*
X14885363Y68254759D01*
X14728320Y68019727D01*
X14620147Y67758574D01*
X14565000Y67481335D01*
X14565000Y67198665D01*
X14620147Y66921426D01*
X14728320Y66660273D01*
X14885363Y66425241D01*
X15085241Y66225363D01*
X15317759Y66070000D01*
X15085241Y65914637D01*
X14885363Y65714759D01*
X14728320Y65479727D01*
X14620147Y65218574D01*
X14565000Y64941335D01*
X14565000Y64658665D01*
X14620147Y64381426D01*
X14728320Y64120273D01*
X14885363Y63885241D01*
X15085241Y63685363D01*
X15317759Y63530000D01*
X15085241Y63374637D01*
X14885363Y63174759D01*
X14728320Y62939727D01*
X14620147Y62678574D01*
X14565000Y62401335D01*
X14565000Y62118665D01*
X14620147Y61841426D01*
X14728320Y61580273D01*
X14885363Y61345241D01*
X15085241Y61145363D01*
X15317759Y60990000D01*
X15085241Y60834637D01*
X14885363Y60634759D01*
X14728320Y60399727D01*
X14620147Y60138574D01*
X14565000Y59861335D01*
X14565000Y59578665D01*
X14620147Y59301426D01*
X14728320Y59040273D01*
X14885363Y58805241D01*
X15085241Y58605363D01*
X15317759Y58450000D01*
X15085241Y58294637D01*
X14885363Y58094759D01*
X14728320Y57859727D01*
X14620147Y57598574D01*
X14565000Y57321335D01*
X14565000Y57038665D01*
X14620147Y56761426D01*
X14728320Y56500273D01*
X14885363Y56265241D01*
X15085241Y56065363D01*
X15317759Y55910000D01*
X15085241Y55754637D01*
X14885363Y55554759D01*
X14728320Y55319727D01*
X14620147Y55058574D01*
X14565000Y54781335D01*
X14565000Y54498665D01*
X14620147Y54221426D01*
X14728320Y53960273D01*
X14885363Y53725241D01*
X15085241Y53525363D01*
X15317759Y53370000D01*
X15085241Y53214637D01*
X14885363Y53014759D01*
X14728320Y52779727D01*
X14620147Y52518574D01*
X14565000Y52241335D01*
X14565000Y51958665D01*
X14620147Y51681426D01*
X14728320Y51420273D01*
X14885363Y51185241D01*
X15085241Y50985363D01*
X15317759Y50830000D01*
X15085241Y50674637D01*
X14885363Y50474759D01*
X14728320Y50239727D01*
X14620147Y49978574D01*
X14565000Y49701335D01*
X14565000Y49418665D01*
X14620147Y49141426D01*
X14728320Y48880273D01*
X14885363Y48645241D01*
X15085241Y48445363D01*
X15320273Y48288320D01*
X15581426Y48180147D01*
X15858665Y48125000D01*
X16141335Y48125000D01*
X16418574Y48180147D01*
X16679727Y48288320D01*
X16914759Y48445363D01*
X17114637Y48645241D01*
X17271680Y48880273D01*
X17379853Y49141426D01*
X17435000Y49418665D01*
X17435000Y49701335D01*
X17379853Y49978574D01*
X17271680Y50239727D01*
X17114637Y50474759D01*
X16914759Y50674637D01*
X16682241Y50830000D01*
X16914759Y50985363D01*
X17114637Y51185241D01*
X17271680Y51420273D01*
X17379853Y51681426D01*
X17435000Y51958665D01*
X17435000Y52241335D01*
X17379853Y52518574D01*
X17271680Y52779727D01*
X17114637Y53014759D01*
X16914759Y53214637D01*
X16682241Y53370000D01*
X16914759Y53525363D01*
X17114637Y53725241D01*
X17271680Y53960273D01*
X17379853Y54221426D01*
X17435000Y54498665D01*
X17435000Y54781335D01*
X17379853Y55058574D01*
X17271680Y55319727D01*
X17114637Y55554759D01*
X16914759Y55754637D01*
X16682241Y55910000D01*
X16914759Y56065363D01*
X17114637Y56265241D01*
X17271680Y56500273D01*
X17379853Y56761426D01*
X17435000Y57038665D01*
X17435000Y57321335D01*
X17379853Y57598574D01*
X17271680Y57859727D01*
X17114637Y58094759D01*
X16914759Y58294637D01*
X16682241Y58450000D01*
X16914759Y58605363D01*
X17114637Y58805241D01*
X17271680Y59040273D01*
X17379853Y59301426D01*
X17435000Y59578665D01*
X17435000Y59861335D01*
X17379853Y60138574D01*
X17271680Y60399727D01*
X17114637Y60634759D01*
X16914759Y60834637D01*
X16682241Y60990000D01*
X16914759Y61145363D01*
X17114637Y61345241D01*
X17271680Y61580273D01*
X17379853Y61841426D01*
X17435000Y62118665D01*
X17435000Y62401335D01*
X17379853Y62678574D01*
X17271680Y62939727D01*
X17114637Y63174759D01*
X16914759Y63374637D01*
X16682241Y63530000D01*
X16914759Y63685363D01*
X17114637Y63885241D01*
X17271680Y64120273D01*
X17379853Y64381426D01*
X17435000Y64658665D01*
X17435000Y64941335D01*
X17379853Y65218574D01*
X17271680Y65479727D01*
X17114637Y65714759D01*
X16914759Y65914637D01*
X16682241Y66070000D01*
X16914759Y66225363D01*
X17114637Y66425241D01*
X17271680Y66660273D01*
X17379853Y66921426D01*
X17435000Y67198665D01*
X17435000Y67481335D01*
X17379853Y67758574D01*
X17271680Y68019727D01*
X17114637Y68254759D01*
X16914759Y68454637D01*
X16682241Y68610000D01*
X16914759Y68765363D01*
X17114637Y68965241D01*
X17271680Y69200273D01*
X17379853Y69461426D01*
X17435000Y69738665D01*
X17435000Y70021335D01*
X17379853Y70298574D01*
X17271680Y70559727D01*
X17114637Y70794759D01*
X16914759Y70994637D01*
X16682241Y71150000D01*
X16914759Y71305363D01*
X17114637Y71505241D01*
X17271680Y71740273D01*
X17379853Y72001426D01*
X17435000Y72278665D01*
X17435000Y72561335D01*
X17379853Y72838574D01*
X17271680Y73099727D01*
X17114637Y73334759D01*
X16914759Y73534637D01*
X16682241Y73690000D01*
X16914759Y73845363D01*
X17114637Y74045241D01*
X17271680Y74280273D01*
X17379853Y74541426D01*
X17435000Y74818665D01*
X17435000Y75101335D01*
X17379853Y75378574D01*
X17271680Y75639727D01*
X17114637Y75874759D01*
X16916039Y76073357D01*
X16924482Y76074188D01*
X17044180Y76110498D01*
X17154494Y76169463D01*
X17251185Y76248815D01*
X17330537Y76345506D01*
X17389502Y76455820D01*
X17425812Y76575518D01*
X17438072Y76700000D01*
X17438072Y77641335D01*
X29805000Y77641335D01*
X29805000Y77358665D01*
X29860147Y77081426D01*
X29968320Y76820273D01*
X30125363Y76585241D01*
X30325241Y76385363D01*
X30560273Y76228320D01*
X30570865Y76223933D01*
X30384869Y76112385D01*
X30176481Y75923414D01*
X30008963Y75697420D01*
X29888754Y75443087D01*
X29848096Y75309039D01*
X29970085Y75087000D01*
X31113000Y75087000D01*
X31113000Y75107000D01*
X31367000Y75107000D01*
X31367000Y75087000D01*
X32509915Y75087000D01*
X32631904Y75309039D01*
X32591246Y75443087D01*
X32471037Y75697420D01*
X32303519Y75923414D01*
X32095131Y76112385D01*
X31909135Y76223933D01*
X31919727Y76228320D01*
X32154759Y76385363D01*
X32354637Y76585241D01*
X32511680Y76820273D01*
X32619853Y77081426D01*
X32675000Y77358665D01*
X32675000Y77641335D01*
X32619853Y77918574D01*
X32511680Y78179727D01*
X32354637Y78414759D01*
X32154759Y78614637D01*
X31919727Y78771680D01*
X31658574Y78879853D01*
X31381335Y78935000D01*
X31098665Y78935000D01*
X30821426Y78879853D01*
X30560273Y78771680D01*
X30325241Y78614637D01*
X30125363Y78414759D01*
X29968320Y78179727D01*
X29860147Y77918574D01*
X29805000Y77641335D01*
X17438072Y77641335D01*
X17438072Y78300000D01*
X17425812Y78424482D01*
X17389502Y78544180D01*
X17330537Y78654494D01*
X17251185Y78751185D01*
X17154494Y78830537D01*
X17044180Y78889502D01*
X16924482Y78925812D01*
X16800000Y78938072D01*
X15200000Y78938072D01*
X15075518Y78925812D01*
X14955820Y78889502D01*
X14845506Y78830537D01*
X14748815Y78751185D01*
X14669463Y78654494D01*
X14610498Y78544180D01*
X14574188Y78424482D01*
X14561928Y78300000D01*
X660000Y78300000D01*
X660000Y89340000D01*
X39576270Y89340000D01*
X39566589Y89335990D01*
G37*
G04 #@! TD.AperFunction*
D19*
X42316068Y37813899D02*
X42495393Y37595392D01*
X42713900Y37416068D01*
X42790174Y37375299D01*
X42790635Y37370615D01*
X42814816Y37290904D01*
X42832664Y37232067D01*
X42900914Y37104380D01*
X42992763Y36992462D01*
X43020808Y36969446D01*
X43904200Y36086053D01*
X43904201Y25556507D01*
X43796308Y25589236D01*
X43515000Y25616943D01*
X43233691Y25589236D01*
X42963192Y25507182D01*
X42713899Y25373932D01*
X42495392Y25194607D01*
X42316068Y24976100D01*
X42247735Y24848258D01*
X42097601Y25077839D01*
X41899895Y25279500D01*
X41666646Y25438715D01*
X41406818Y25549367D01*
X41324039Y25566904D01*
X41102000Y25444915D01*
X41102000Y23902000D01*
X41122000Y23902000D01*
X41122000Y23648000D01*
X41102000Y23648000D01*
X41102000Y23628000D01*
X40848000Y23628000D01*
X40848000Y23648000D01*
X40828000Y23648000D01*
X40828000Y23902000D01*
X40848000Y23902000D01*
X40848000Y25444915D01*
X40625961Y25566904D01*
X40581400Y25557464D01*
X40581400Y36081654D01*
X41469193Y36969446D01*
X41497238Y36992462D01*
X41589087Y37104380D01*
X41657337Y37232067D01*
X41699365Y37370615D01*
X41699826Y37375298D01*
X41776101Y37416068D01*
X41994608Y37595392D01*
X42173932Y37813899D01*
X42245000Y37946858D01*
X42316068Y37813899D01*
G04 #@! TA.AperFunction,Conductor*
D20*
G36*
X42316068Y37813899D02*
G01*
X42495393Y37595392D01*
X42713900Y37416068D01*
X42790174Y37375299D01*
X42790635Y37370615D01*
X42814816Y37290904D01*
X42832664Y37232067D01*
X42900914Y37104380D01*
X42992763Y36992462D01*
X43020808Y36969446D01*
X43904200Y36086053D01*
X43904201Y25556507D01*
X43796308Y25589236D01*
X43515000Y25616943D01*
X43233691Y25589236D01*
X42963192Y25507182D01*
X42713899Y25373932D01*
X42495392Y25194607D01*
X42316068Y24976100D01*
X42247735Y24848258D01*
X42097601Y25077839D01*
X41899895Y25279500D01*
X41666646Y25438715D01*
X41406818Y25549367D01*
X41324039Y25566904D01*
X41102000Y25444915D01*
X41102000Y23902000D01*
X41122000Y23902000D01*
X41122000Y23648000D01*
X41102000Y23648000D01*
X41102000Y23628000D01*
X40848000Y23628000D01*
X40848000Y23648000D01*
X40828000Y23648000D01*
X40828000Y23902000D01*
X40848000Y23902000D01*
X40848000Y25444915D01*
X40625961Y25566904D01*
X40581400Y25557464D01*
X40581400Y36081654D01*
X41469193Y36969446D01*
X41497238Y36992462D01*
X41589087Y37104380D01*
X41657337Y37232067D01*
X41699365Y37370615D01*
X41699826Y37375298D01*
X41776101Y37416068D01*
X41994608Y37595392D01*
X42173932Y37813899D01*
X42245000Y37946858D01*
X42316068Y37813899D01*
G37*
G04 #@! TD.AperFunction*
D19*
X48017000Y60207000D02*
X48037000Y60207000D01*
X48037000Y59953000D01*
X48017000Y59953000D01*
X48017000Y58759845D01*
X48246890Y58638524D01*
X48394099Y58683175D01*
X48656920Y58808359D01*
X48890269Y58982412D01*
X49085178Y59198645D01*
X49154805Y59315534D01*
X49276525Y59133368D01*
X49483368Y58926525D01*
X49708528Y58776078D01*
X49736711Y58683175D01*
X49747664Y58647067D01*
X49815914Y58519380D01*
X49907763Y58407462D01*
X49935808Y58384446D01*
X54140001Y54180252D01*
X54140000Y50706883D01*
X53928368Y50565475D01*
X53721525Y50358632D01*
X53605000Y50184240D01*
X53488475Y50358632D01*
X53281632Y50565475D01*
X53038411Y50727990D01*
X52768158Y50839932D01*
X52481260Y50897000D01*
X52188740Y50897000D01*
X51901842Y50839932D01*
X51631589Y50727990D01*
X51388368Y50565475D01*
X51181525Y50358632D01*
X51065000Y50184240D01*
X50948475Y50358632D01*
X50741632Y50565475D01*
X50498411Y50727990D01*
X50228158Y50839932D01*
X49941260Y50897000D01*
X49648740Y50897000D01*
X49361842Y50839932D01*
X49091589Y50727990D01*
X48848368Y50565475D01*
X48641525Y50358632D01*
X48525000Y50184240D01*
X48408475Y50358632D01*
X48201632Y50565475D01*
X48091736Y50638905D01*
X48094040Y50662300D01*
X48077918Y50825988D01*
X48076192Y50831680D01*
X48030172Y50983387D01*
X47952636Y51128446D01*
X47848291Y51255591D01*
X47816432Y51281737D01*
X41105000Y57993167D01*
X41105000Y58591928D01*
X41120000Y58591928D01*
X41244482Y58604188D01*
X41364180Y58640498D01*
X41474494Y58699463D01*
X41571185Y58778815D01*
X41650537Y58875506D01*
X41709502Y58985820D01*
X41731513Y59058380D01*
X41863368Y58926525D01*
X42106589Y58764010D01*
X42376842Y58652068D01*
X42663740Y58595000D01*
X42956260Y58595000D01*
X43243158Y58652068D01*
X43513411Y58764010D01*
X43756632Y58926525D01*
X43963475Y59133368D01*
X44080000Y59307760D01*
X44196525Y59133368D01*
X44403368Y58926525D01*
X44646589Y58764010D01*
X44916842Y58652068D01*
X45203740Y58595000D01*
X45496260Y58595000D01*
X45783158Y58652068D01*
X46053411Y58764010D01*
X46296632Y58926525D01*
X46503475Y59133368D01*
X46625195Y59315534D01*
X46694822Y59198645D01*
X46889731Y58982412D01*
X47123080Y58808359D01*
X47385901Y58683175D01*
X47533110Y58638524D01*
X47763000Y58759845D01*
X47763000Y59953000D01*
X47743000Y59953000D01*
X47743000Y60207000D01*
X47763000Y60207000D01*
X47763000Y60227000D01*
X48017000Y60227000D01*
X48017000Y60207000D01*
G04 #@! TA.AperFunction,Conductor*
D20*
G36*
X48017000Y60207000D02*
G01*
X48037000Y60207000D01*
X48037000Y59953000D01*
X48017000Y59953000D01*
X48017000Y58759845D01*
X48246890Y58638524D01*
X48394099Y58683175D01*
X48656920Y58808359D01*
X48890269Y58982412D01*
X49085178Y59198645D01*
X49154805Y59315534D01*
X49276525Y59133368D01*
X49483368Y58926525D01*
X49708528Y58776078D01*
X49736711Y58683175D01*
X49747664Y58647067D01*
X49815914Y58519380D01*
X49907763Y58407462D01*
X49935808Y58384446D01*
X54140001Y54180252D01*
X54140000Y50706883D01*
X53928368Y50565475D01*
X53721525Y50358632D01*
X53605000Y50184240D01*
X53488475Y50358632D01*
X53281632Y50565475D01*
X53038411Y50727990D01*
X52768158Y50839932D01*
X52481260Y50897000D01*
X52188740Y50897000D01*
X51901842Y50839932D01*
X51631589Y50727990D01*
X51388368Y50565475D01*
X51181525Y50358632D01*
X51065000Y50184240D01*
X50948475Y50358632D01*
X50741632Y50565475D01*
X50498411Y50727990D01*
X50228158Y50839932D01*
X49941260Y50897000D01*
X49648740Y50897000D01*
X49361842Y50839932D01*
X49091589Y50727990D01*
X48848368Y50565475D01*
X48641525Y50358632D01*
X48525000Y50184240D01*
X48408475Y50358632D01*
X48201632Y50565475D01*
X48091736Y50638905D01*
X48094040Y50662300D01*
X48077918Y50825988D01*
X48076192Y50831680D01*
X48030172Y50983387D01*
X47952636Y51128446D01*
X47848291Y51255591D01*
X47816432Y51281737D01*
X41105000Y57993167D01*
X41105000Y58591928D01*
X41120000Y58591928D01*
X41244482Y58604188D01*
X41364180Y58640498D01*
X41474494Y58699463D01*
X41571185Y58778815D01*
X41650537Y58875506D01*
X41709502Y58985820D01*
X41731513Y59058380D01*
X41863368Y58926525D01*
X42106589Y58764010D01*
X42376842Y58652068D01*
X42663740Y58595000D01*
X42956260Y58595000D01*
X43243158Y58652068D01*
X43513411Y58764010D01*
X43756632Y58926525D01*
X43963475Y59133368D01*
X44080000Y59307760D01*
X44196525Y59133368D01*
X44403368Y58926525D01*
X44646589Y58764010D01*
X44916842Y58652068D01*
X45203740Y58595000D01*
X45496260Y58595000D01*
X45783158Y58652068D01*
X46053411Y58764010D01*
X46296632Y58926525D01*
X46503475Y59133368D01*
X46625195Y59315534D01*
X46694822Y59198645D01*
X46889731Y58982412D01*
X47123080Y58808359D01*
X47385901Y58683175D01*
X47533110Y58638524D01*
X47763000Y58759845D01*
X47763000Y59953000D01*
X47743000Y59953000D01*
X47743000Y60207000D01*
X47763000Y60207000D01*
X47763000Y60227000D01*
X48017000Y60227000D01*
X48017000Y60207000D01*
G37*
G04 #@! TD.AperFunction*
M02*
