M48
; DRILL file {KiCad (5.1.9)-1} date 03/18/23 10:12:16
; FORMAT={-:-/ absolute / metric / decimal}
; #@! TF.CreationDate,2023-03-18T10:12:16+09:00
; #@! TF.GenerationSoftware,Kicad,Pcbnew,(5.1.9)-1
FMAT,2
METRIC
T1C0.300
T2C0.800
T3C1.000
%
G90
G05
T1
X35.635Y27.936
T2
X15.575Y39.015
X15.575Y23.775
X15.575Y19.765
X15.575Y4.525
X16.0Y77.5
X16.0Y74.96
X16.0Y72.42
X16.0Y69.88
X16.0Y67.34
X16.0Y64.8
X16.0Y62.26
X16.0Y59.72
X16.0Y57.18
X16.0Y54.64
X16.0Y52.1
X16.0Y49.56
X18.115Y39.015
X18.115Y23.775
X18.115Y19.765
X18.115Y4.525
X20.655Y39.015
X20.655Y23.775
X20.655Y19.765
X20.655Y4.525
X23.195Y39.015
X23.195Y23.775
X23.195Y19.765
X23.195Y4.525
X25.735Y39.015
X25.735Y23.775
X25.735Y19.765
X25.735Y4.525
X28.275Y39.015
X28.275Y23.775
X28.275Y19.765
X28.275Y4.525
X28.7Y68.61
X28.7Y66.07
X28.7Y58.45
X28.7Y55.91
X30.815Y39.015
X30.815Y23.775
X30.815Y19.765
X30.815Y4.525
X31.24Y77.5
X31.24Y74.96
X31.24Y72.42
X31.24Y69.88
X31.24Y67.34
X31.24Y64.8
X31.24Y62.26
X31.24Y59.72
X31.24Y57.18
X31.24Y54.64
X31.24Y52.1
X31.24Y49.56
X33.355Y39.015
X33.355Y23.775
X33.355Y19.765
X33.355Y4.525
X35.895Y39.015
X35.895Y23.775
X35.895Y19.765
X35.895Y4.525
X38.435Y39.015
X38.435Y23.775
X38.435Y19.765
X38.435Y4.525
X40.975Y39.015
X40.975Y23.775
X40.975Y19.765
X40.975Y4.525
X43.515Y39.015
X43.515Y23.775
X43.515Y19.765
X43.515Y4.525
X46.055Y39.015
X46.055Y23.775
X46.055Y19.765
X46.055Y4.525
X48.595Y39.015
X48.595Y23.775
X48.595Y19.765
X48.595Y4.525
X51.135Y39.015
X51.135Y23.775
X51.135Y19.765
X51.135Y4.525
X53.675Y39.015
X53.675Y23.775
X53.675Y19.765
X53.675Y4.525
X56.215Y39.015
X56.215Y23.775
X56.215Y19.765
X56.215Y4.525
X58.755Y39.015
X58.755Y23.775
X58.755Y19.765
X58.755Y4.525
X61.295Y39.015
X61.295Y23.775
X61.295Y19.765
X61.295Y4.525
X63.835Y39.015
X63.835Y23.775
X63.835Y19.765
X63.835Y4.525
T3
X4.46Y5.0
X7.0Y5.0
X40.27Y88.02
X40.27Y85.48
X40.27Y60.08
X42.81Y60.08
X44.715Y49.412
X45.35Y60.08
X47.255Y49.412
X47.89Y60.08
X49.795Y49.412
X50.43Y60.08
X52.335Y49.412
X52.97Y60.08
X54.875Y49.412
X55.51Y60.08
X57.415Y49.412
X58.05Y60.08
X60.59Y88.02
X60.59Y85.48
X60.59Y60.08
T0
M30
