G04 #@! TF.GenerationSoftware,KiCad,Pcbnew,(5.1.9)-1*
G04 #@! TF.CreationDate,2023-03-18T10:12:14+09:00*
G04 #@! TF.ProjectId,SMB80TE_SD,534d4238-3054-4455-9f53-442e6b696361,rev?*
G04 #@! TF.SameCoordinates,PX53920b0PY93c3260*
G04 #@! TF.FileFunction,Copper,L2,Bot*
G04 #@! TF.FilePolarity,Positive*
%FSLAX46Y46*%
G04 Gerber Fmt 4.6, Leading zero omitted, Abs format (unit mm)*
G04 Created by KiCad (PCBNEW (5.1.9)-1) date 2023-03-18 10:12:14*
%MOMM*%
%LPD*%
G01*
G04 APERTURE LIST*
G04 #@! TA.AperFunction,ComponentPad*
%ADD10R,1.700000X1.700000*%
G04 #@! TD*
G04 #@! TA.AperFunction,ComponentPad*
%ADD11O,1.700000X1.700000*%
G04 #@! TD*
G04 #@! TA.AperFunction,ComponentPad*
%ADD12R,1.600000X1.600000*%
G04 #@! TD*
G04 #@! TA.AperFunction,ComponentPad*
%ADD13O,1.600000X1.600000*%
G04 #@! TD*
G04 #@! TA.AperFunction,ComponentPad*
%ADD14O,1.600000X2.400000*%
G04 #@! TD*
G04 #@! TA.AperFunction,ComponentPad*
%ADD15R,1.600000X2.400000*%
G04 #@! TD*
G04 #@! TA.AperFunction,ViaPad*
%ADD16C,0.500000*%
G04 #@! TD*
G04 #@! TA.AperFunction,Conductor*
%ADD17C,0.400000*%
G04 #@! TD*
G04 #@! TA.AperFunction,Conductor*
%ADD18C,0.200000*%
G04 #@! TD*
G04 #@! TA.AperFunction,Conductor*
%ADD19C,0.254000*%
G04 #@! TD*
G04 #@! TA.AperFunction,Conductor*
%ADD20C,0.100000*%
G04 #@! TD*
G04 APERTURE END LIST*
D10*
X40270000Y60080000D03*
D11*
X42810000Y60080000D03*
X45350000Y60080000D03*
X47890000Y60080000D03*
X50430000Y60080000D03*
X52970000Y60080000D03*
X55510000Y60080000D03*
X58050000Y60080000D03*
X60590000Y60080000D03*
X60590000Y88020000D03*
X60590000Y85480000D03*
X40270000Y88020000D03*
X40270000Y85480000D03*
D12*
X16000000Y77500000D03*
D13*
X16000000Y74960000D03*
X16000000Y72420000D03*
X31240000Y49560000D03*
X16000000Y69880000D03*
X31240000Y52100000D03*
X16000000Y67340000D03*
X31240000Y54640000D03*
X16000000Y64800000D03*
X31240000Y57180000D03*
X16000000Y62260000D03*
X31240000Y59720000D03*
X16000000Y59720000D03*
X31240000Y62260000D03*
X16000000Y57180000D03*
X31240000Y64800000D03*
X16000000Y54640000D03*
X31240000Y67340000D03*
X16000000Y52100000D03*
X31240000Y69880000D03*
X16000000Y49560000D03*
X31240000Y72420000D03*
X31240000Y74960000D03*
X31240000Y77500000D03*
X28700000Y68610000D03*
X28700000Y66070000D03*
X28700000Y58450000D03*
X28700000Y55910000D03*
D10*
X44715000Y49412000D03*
D11*
X47255000Y49412000D03*
X49795000Y49412000D03*
X52335000Y49412000D03*
X54875000Y49412000D03*
X57415000Y49412000D03*
D14*
X15575000Y19765000D03*
X63835000Y4525000D03*
X18115000Y19765000D03*
X61295000Y4525000D03*
X20655000Y19765000D03*
X58755000Y4525000D03*
X23195000Y19765000D03*
X56215000Y4525000D03*
X25735000Y19765000D03*
X53675000Y4525000D03*
X28275000Y19765000D03*
X51135000Y4525000D03*
X30815000Y19765000D03*
X48595000Y4525000D03*
X33355000Y19765000D03*
X46055000Y4525000D03*
X35895000Y19765000D03*
X43515000Y4525000D03*
X38435000Y19765000D03*
X40975000Y4525000D03*
X40975000Y19765000D03*
X38435000Y4525000D03*
X43515000Y19765000D03*
X35895000Y4525000D03*
X46055000Y19765000D03*
X33355000Y4525000D03*
X48595000Y19765000D03*
X30815000Y4525000D03*
X51135000Y19765000D03*
X28275000Y4525000D03*
X53675000Y19765000D03*
X25735000Y4525000D03*
X56215000Y19765000D03*
X23195000Y4525000D03*
X58755000Y19765000D03*
X20655000Y4525000D03*
X61295000Y19765000D03*
X18115000Y4525000D03*
X63835000Y19765000D03*
D15*
X15575000Y4525000D03*
X15575000Y23775000D03*
D14*
X63835000Y39015000D03*
X18115000Y23775000D03*
X61295000Y39015000D03*
X20655000Y23775000D03*
X58755000Y39015000D03*
X23195000Y23775000D03*
X56215000Y39015000D03*
X25735000Y23775000D03*
X53675000Y39015000D03*
X28275000Y23775000D03*
X51135000Y39015000D03*
X30815000Y23775000D03*
X48595000Y39015000D03*
X33355000Y23775000D03*
X46055000Y39015000D03*
X35895000Y23775000D03*
X43515000Y39015000D03*
X38435000Y23775000D03*
X40975000Y39015000D03*
X40975000Y23775000D03*
X38435000Y39015000D03*
X43515000Y23775000D03*
X35895000Y39015000D03*
X46055000Y23775000D03*
X33355000Y39015000D03*
X48595000Y23775000D03*
X30815000Y39015000D03*
X51135000Y23775000D03*
X28275000Y39015000D03*
X53675000Y23775000D03*
X25735000Y39015000D03*
X56215000Y23775000D03*
X23195000Y39015000D03*
X58755000Y23775000D03*
X20655000Y39015000D03*
X61295000Y23775000D03*
X18115000Y39015000D03*
X63835000Y23775000D03*
X15575000Y39015000D03*
D10*
X7000000Y5000000D03*
D11*
X4460000Y5000000D03*
D16*
X35635100Y27935900D03*
D17*
X31240000Y69880000D02*
X32440300Y69880000D01*
X40270000Y60080000D02*
X40270000Y61330300D01*
X40270000Y61330300D02*
X32440300Y69160000D01*
X32440300Y69160000D02*
X32440300Y69880000D01*
X4460000Y5000000D02*
X5710300Y5000000D01*
X37215600Y9884700D02*
X37215600Y20652700D01*
X37215600Y20652700D02*
X38737600Y22174700D01*
X38737600Y22174700D02*
X40975000Y22174700D01*
X40975000Y6125300D02*
X37215600Y9884700D01*
X5710300Y5000000D02*
X5710300Y6015900D01*
X5710300Y6015900D02*
X9579100Y9884700D01*
X9579100Y9884700D02*
X37215600Y9884700D01*
X44715000Y49412000D02*
X44715000Y50662300D01*
X44715000Y50662300D02*
X47890000Y53837300D01*
X47890000Y53837300D02*
X47890000Y58829700D01*
X31240000Y74960000D02*
X32440300Y74960000D01*
X47890000Y60080000D02*
X46639700Y60080000D01*
X32440300Y74960000D02*
X46639700Y60760600D01*
X46639700Y60760600D02*
X46639700Y60080000D01*
X47890000Y60080000D02*
X47890000Y58829700D01*
X40975000Y23775000D02*
X40975000Y22174700D01*
X40975000Y4525000D02*
X40975000Y6125300D01*
D18*
X48644700Y49412000D02*
X48644700Y49173700D01*
X48644700Y49173700D02*
X47728700Y48257700D01*
X47728700Y48257700D02*
X38722600Y48257700D01*
X38722600Y48257700D02*
X32340300Y54640000D01*
X49795000Y49412000D02*
X48644700Y49412000D01*
X31240000Y54640000D02*
X32340300Y54640000D01*
X52970000Y60080000D02*
X52970000Y58929700D01*
X49795000Y49412000D02*
X49795000Y55754700D01*
X49795000Y55754700D02*
X52970000Y58929700D01*
X52335000Y49412000D02*
X51184700Y49412000D01*
X51184700Y49412000D02*
X51184700Y49124400D01*
X51184700Y49124400D02*
X49908900Y47848600D01*
X49908900Y47848600D02*
X36591700Y47848600D01*
X36591700Y47848600D02*
X32340300Y52100000D01*
X52335000Y49412000D02*
X52335000Y55754700D01*
X52335000Y55754700D02*
X55510000Y58929700D01*
X31240000Y52100000D02*
X32340300Y52100000D01*
X55510000Y60080000D02*
X55510000Y58929700D01*
X31240000Y49560000D02*
X32340300Y49560000D01*
X57415000Y49412000D02*
X56264700Y49412000D01*
X56264700Y49412000D02*
X56264700Y49124400D01*
X56264700Y49124400D02*
X54581100Y47440800D01*
X54581100Y47440800D02*
X34459500Y47440800D01*
X34459500Y47440800D02*
X32340300Y49560000D01*
X58755000Y4525000D02*
X58755000Y6025300D01*
X58755000Y23775000D02*
X58755000Y22274700D01*
X58755000Y22274700D02*
X59866100Y21163600D01*
X59866100Y21163600D02*
X59866100Y7136400D01*
X59866100Y7136400D02*
X58755000Y6025300D01*
X53675000Y4525000D02*
X53675000Y6025300D01*
X53675000Y23775000D02*
X53675000Y22274700D01*
X53675000Y22274700D02*
X54786100Y21163600D01*
X54786100Y21163600D02*
X54786100Y7136400D01*
X54786100Y7136400D02*
X53675000Y6025300D01*
X51135000Y23775000D02*
X51135000Y25275300D01*
X51135000Y25275300D02*
X50197300Y25275300D01*
X50197300Y25275300D02*
X37165000Y38307600D01*
X37165000Y38307600D02*
X37165000Y39714400D01*
X37165000Y39714400D02*
X18579800Y58299600D01*
X18579800Y58299600D02*
X15551200Y58299600D01*
X15551200Y58299600D02*
X14870000Y57618400D01*
X14870000Y57618400D02*
X14870000Y53230000D01*
X14870000Y53230000D02*
X16000000Y52100000D01*
X47483700Y22274700D02*
X43042500Y22274700D01*
X43042500Y22274700D02*
X42104200Y23213000D01*
X42104200Y23213000D02*
X42104200Y24657000D01*
X42104200Y24657000D02*
X30448900Y36312300D01*
X30448900Y36312300D02*
X29013600Y36312300D01*
X29013600Y36312300D02*
X27005000Y38320900D01*
X27005000Y38320900D02*
X27005000Y39703700D01*
X27005000Y39703700D02*
X17148700Y49560000D01*
X17148700Y49560000D02*
X16000000Y49560000D01*
X48595000Y22274700D02*
X47483700Y22274700D01*
X47483700Y22274700D02*
X47483700Y7136600D01*
X47483700Y7136600D02*
X48595000Y6025300D01*
X48595000Y4525000D02*
X48595000Y6025300D01*
X48595000Y23775000D02*
X48595000Y22274700D01*
X46055000Y23775000D02*
X46055000Y25275300D01*
X16000000Y57180000D02*
X16000000Y56079700D01*
X16000000Y56079700D02*
X16137500Y56079700D01*
X16137500Y56079700D02*
X32085000Y40132200D01*
X32085000Y40132200D02*
X32085000Y38267100D01*
X32085000Y38267100D02*
X45076800Y25275300D01*
X45076800Y25275300D02*
X46055000Y25275300D01*
X35895000Y19765000D02*
X35895000Y21265300D01*
X35635100Y27935900D02*
X34751400Y27052200D01*
X34751400Y27052200D02*
X34751400Y22408900D01*
X34751400Y22408900D02*
X35895000Y21265300D01*
X16000000Y54640000D02*
X16000000Y53539700D01*
X43515000Y25275300D02*
X42533700Y25275300D01*
X42533700Y25275300D02*
X29545000Y38264000D01*
X29545000Y38264000D02*
X29545000Y40222700D01*
X29545000Y40222700D02*
X16228000Y53539700D01*
X16228000Y53539700D02*
X16000000Y53539700D01*
X43515000Y23775000D02*
X43515000Y25275300D01*
X30815000Y4525000D02*
X30815000Y6025300D01*
X7000000Y5000000D02*
X8150300Y5000000D01*
X8150300Y5000000D02*
X9175600Y6025300D01*
X9175600Y6025300D02*
X30815000Y6025300D01*
X53675000Y19765000D02*
X53675000Y21265300D01*
X53675000Y39015000D02*
X53675000Y37514700D01*
X53675000Y37514700D02*
X52530000Y36369700D01*
X52530000Y36369700D02*
X52530000Y22410300D01*
X52530000Y22410300D02*
X53675000Y21265300D01*
X58755000Y19765000D02*
X58755000Y21265300D01*
X58755000Y39015000D02*
X58755000Y37514700D01*
X58755000Y37514700D02*
X57610000Y36369700D01*
X57610000Y36369700D02*
X57610000Y22410300D01*
X57610000Y22410300D02*
X58755000Y21265300D01*
D19*
X39566589Y89335990D02*
X39323368Y89173475D01*
X39116525Y88966632D01*
X38954010Y88723411D01*
X38842068Y88453158D01*
X38785000Y88166260D01*
X38785000Y87873740D01*
X38842068Y87586842D01*
X38954010Y87316589D01*
X39116525Y87073368D01*
X39323368Y86866525D01*
X39497760Y86750000D01*
X39323368Y86633475D01*
X39116525Y86426632D01*
X38954010Y86183411D01*
X38842068Y85913158D01*
X38785000Y85626260D01*
X38785000Y85333740D01*
X38842068Y85046842D01*
X38954010Y84776589D01*
X39116525Y84533368D01*
X39323368Y84326525D01*
X39566589Y84164010D01*
X39836842Y84052068D01*
X40123740Y83995000D01*
X40416260Y83995000D01*
X40703158Y84052068D01*
X40973411Y84164010D01*
X41216632Y84326525D01*
X41423475Y84533368D01*
X41585990Y84776589D01*
X41697932Y85046842D01*
X41755000Y85333740D01*
X41755000Y85626260D01*
X41697932Y85913158D01*
X41585990Y86183411D01*
X41423475Y86426632D01*
X41216632Y86633475D01*
X41042240Y86750000D01*
X41216632Y86866525D01*
X41423475Y87073368D01*
X41585990Y87316589D01*
X41697932Y87586842D01*
X41755000Y87873740D01*
X41755000Y88166260D01*
X41697932Y88453158D01*
X41585990Y88723411D01*
X41423475Y88966632D01*
X41216632Y89173475D01*
X40973411Y89335990D01*
X40963730Y89340000D01*
X59896270Y89340000D01*
X59886589Y89335990D01*
X59643368Y89173475D01*
X59436525Y88966632D01*
X59274010Y88723411D01*
X59162068Y88453158D01*
X59105000Y88166260D01*
X59105000Y87873740D01*
X59162068Y87586842D01*
X59274010Y87316589D01*
X59436525Y87073368D01*
X59643368Y86866525D01*
X59817760Y86750000D01*
X59643368Y86633475D01*
X59436525Y86426632D01*
X59274010Y86183411D01*
X59162068Y85913158D01*
X59105000Y85626260D01*
X59105000Y85333740D01*
X59162068Y85046842D01*
X59274010Y84776589D01*
X59436525Y84533368D01*
X59643368Y84326525D01*
X59886589Y84164010D01*
X60156842Y84052068D01*
X60443740Y83995000D01*
X60736260Y83995000D01*
X61023158Y84052068D01*
X61293411Y84164010D01*
X61536632Y84326525D01*
X61743475Y84533368D01*
X61905990Y84776589D01*
X62017932Y85046842D01*
X62075000Y85333740D01*
X62075000Y85626260D01*
X62017932Y85913158D01*
X61905990Y86183411D01*
X61743475Y86426632D01*
X61536632Y86633475D01*
X61362240Y86750000D01*
X61536632Y86866525D01*
X61743475Y87073368D01*
X61905990Y87316589D01*
X62017932Y87586842D01*
X62075000Y87873740D01*
X62075000Y88166260D01*
X62017932Y88453158D01*
X61905990Y88723411D01*
X61743475Y88966632D01*
X61536632Y89173475D01*
X61293411Y89335990D01*
X61283730Y89340000D01*
X67840001Y89340000D01*
X67840000Y660000D01*
X660000Y660000D01*
X660000Y4643109D01*
X3018519Y4643109D01*
X3115843Y4368748D01*
X3264822Y4118645D01*
X3459731Y3902412D01*
X3693080Y3728359D01*
X3955901Y3603175D01*
X4103110Y3558524D01*
X4333000Y3679845D01*
X4333000Y4873000D01*
X3139186Y4873000D01*
X3018519Y4643109D01*
X660000Y4643109D01*
X660000Y5356891D01*
X3018519Y5356891D01*
X3139186Y5127000D01*
X4333000Y5127000D01*
X4333000Y6320155D01*
X4587000Y6320155D01*
X4587000Y5127000D01*
X4607000Y5127000D01*
X4607000Y4873000D01*
X4587000Y4873000D01*
X4587000Y3679845D01*
X4816890Y3558524D01*
X4964099Y3603175D01*
X5226920Y3728359D01*
X5460269Y3902412D01*
X5536034Y3986466D01*
X5560498Y3905820D01*
X5619463Y3795506D01*
X5698815Y3698815D01*
X5795506Y3619463D01*
X5905820Y3560498D01*
X6025518Y3524188D01*
X6150000Y3511928D01*
X7850000Y3511928D01*
X7974482Y3524188D01*
X8094180Y3560498D01*
X8204494Y3619463D01*
X8301185Y3698815D01*
X8380537Y3795506D01*
X8439502Y3905820D01*
X8475812Y4025518D01*
X8488072Y4150000D01*
X8488072Y4347135D01*
X8560620Y4385913D01*
X8672538Y4477762D01*
X8695558Y4505812D01*
X9480047Y5290300D01*
X14136928Y5290300D01*
X14136928Y3325000D01*
X14149188Y3200518D01*
X14185498Y3080820D01*
X14244463Y2970506D01*
X14323815Y2873815D01*
X14420506Y2794463D01*
X14530820Y2735498D01*
X14650518Y2699188D01*
X14775000Y2686928D01*
X16375000Y2686928D01*
X16499482Y2699188D01*
X16619180Y2735498D01*
X16729494Y2794463D01*
X16826185Y2873815D01*
X16905537Y2970506D01*
X16964502Y3080820D01*
X17000812Y3200518D01*
X17002581Y3218483D01*
X17095393Y3105392D01*
X17313900Y2926068D01*
X17563193Y2792818D01*
X17833692Y2710764D01*
X18115000Y2683057D01*
X18396309Y2710764D01*
X18666808Y2792818D01*
X18916101Y2926068D01*
X19134608Y3105392D01*
X19313932Y3323899D01*
X19385000Y3456858D01*
X19456068Y3323899D01*
X19635393Y3105392D01*
X19853900Y2926068D01*
X20103193Y2792818D01*
X20373692Y2710764D01*
X20655000Y2683057D01*
X20936309Y2710764D01*
X21206808Y2792818D01*
X21456101Y2926068D01*
X21674608Y3105392D01*
X21853932Y3323899D01*
X21925000Y3456858D01*
X21996068Y3323899D01*
X22175393Y3105392D01*
X22393900Y2926068D01*
X22643193Y2792818D01*
X22913692Y2710764D01*
X23195000Y2683057D01*
X23476309Y2710764D01*
X23746808Y2792818D01*
X23996101Y2926068D01*
X24214608Y3105392D01*
X24393932Y3323899D01*
X24465000Y3456858D01*
X24536068Y3323899D01*
X24715393Y3105392D01*
X24933900Y2926068D01*
X25183193Y2792818D01*
X25453692Y2710764D01*
X25735000Y2683057D01*
X26016309Y2710764D01*
X26286808Y2792818D01*
X26536101Y2926068D01*
X26754608Y3105392D01*
X26933932Y3323899D01*
X27005000Y3456858D01*
X27076068Y3323899D01*
X27255393Y3105392D01*
X27473900Y2926068D01*
X27723193Y2792818D01*
X27993692Y2710764D01*
X28275000Y2683057D01*
X28556309Y2710764D01*
X28826808Y2792818D01*
X29076101Y2926068D01*
X29294608Y3105392D01*
X29473932Y3323899D01*
X29545000Y3456858D01*
X29616068Y3323899D01*
X29795393Y3105392D01*
X30013900Y2926068D01*
X30263193Y2792818D01*
X30533692Y2710764D01*
X30815000Y2683057D01*
X31096309Y2710764D01*
X31366808Y2792818D01*
X31616101Y2926068D01*
X31834608Y3105392D01*
X32013932Y3323899D01*
X32085000Y3456858D01*
X32156068Y3323899D01*
X32335393Y3105392D01*
X32553900Y2926068D01*
X32803193Y2792818D01*
X33073692Y2710764D01*
X33355000Y2683057D01*
X33636309Y2710764D01*
X33906808Y2792818D01*
X34156101Y2926068D01*
X34374608Y3105392D01*
X34553932Y3323899D01*
X34625000Y3456858D01*
X34696068Y3323899D01*
X34875393Y3105392D01*
X35093900Y2926068D01*
X35343193Y2792818D01*
X35613692Y2710764D01*
X35895000Y2683057D01*
X36176309Y2710764D01*
X36446808Y2792818D01*
X36696101Y2926068D01*
X36914608Y3105392D01*
X37093932Y3323899D01*
X37165000Y3456858D01*
X37236068Y3323899D01*
X37415393Y3105392D01*
X37633900Y2926068D01*
X37883193Y2792818D01*
X38153692Y2710764D01*
X38435000Y2683057D01*
X38716309Y2710764D01*
X38986808Y2792818D01*
X39236101Y2926068D01*
X39454608Y3105392D01*
X39633932Y3323899D01*
X39702265Y3451741D01*
X39852399Y3222161D01*
X40050105Y3020500D01*
X40283354Y2861285D01*
X40543182Y2750633D01*
X40625961Y2733096D01*
X40848000Y2855085D01*
X40848000Y4398000D01*
X40828000Y4398000D01*
X40828000Y4652000D01*
X40848000Y4652000D01*
X40848000Y6194915D01*
X40625961Y6316904D01*
X40543182Y6299367D01*
X40283354Y6188715D01*
X40050105Y6029500D01*
X39852399Y5827839D01*
X39702265Y5598259D01*
X39633932Y5726101D01*
X39454607Y5944608D01*
X39236100Y6123932D01*
X38986807Y6257182D01*
X38716308Y6339236D01*
X38435000Y6366943D01*
X38153691Y6339236D01*
X37883192Y6257182D01*
X37633899Y6123932D01*
X37415392Y5944607D01*
X37236068Y5726100D01*
X37165000Y5593142D01*
X37093932Y5726101D01*
X36914607Y5944608D01*
X36696100Y6123932D01*
X36446807Y6257182D01*
X36176308Y6339236D01*
X35895000Y6366943D01*
X35613691Y6339236D01*
X35343192Y6257182D01*
X35093899Y6123932D01*
X34875392Y5944607D01*
X34696068Y5726100D01*
X34625000Y5593142D01*
X34553932Y5726101D01*
X34374607Y5944608D01*
X34156100Y6123932D01*
X33906807Y6257182D01*
X33636308Y6339236D01*
X33355000Y6366943D01*
X33073691Y6339236D01*
X32803192Y6257182D01*
X32553899Y6123932D01*
X32335392Y5944607D01*
X32156068Y5726100D01*
X32085000Y5593142D01*
X32013932Y5726101D01*
X31834607Y5944608D01*
X31616100Y6123932D01*
X31539826Y6164701D01*
X31539365Y6169385D01*
X31497337Y6307933D01*
X31429087Y6435620D01*
X31337238Y6547538D01*
X31225320Y6639387D01*
X31097633Y6707637D01*
X30959085Y6749665D01*
X30851105Y6760300D01*
X30815000Y6763856D01*
X30778895Y6760300D01*
X9211696Y6760300D01*
X9175599Y6763855D01*
X9139502Y6760300D01*
X9139495Y6760300D01*
X9045732Y6751065D01*
X9031514Y6749665D01*
X8989486Y6736916D01*
X8892967Y6707637D01*
X8765280Y6639387D01*
X8653362Y6547538D01*
X8630347Y6519494D01*
X8351153Y6240299D01*
X8301185Y6301185D01*
X8204494Y6380537D01*
X8094180Y6439502D01*
X7974482Y6475812D01*
X7850000Y6488072D01*
X6150000Y6488072D01*
X6025518Y6475812D01*
X5905820Y6439502D01*
X5795506Y6380537D01*
X5698815Y6301185D01*
X5619463Y6204494D01*
X5560498Y6094180D01*
X5536034Y6013534D01*
X5460269Y6097588D01*
X5226920Y6271641D01*
X4964099Y6396825D01*
X4816890Y6441476D01*
X4587000Y6320155D01*
X4333000Y6320155D01*
X4103110Y6441476D01*
X3955901Y6396825D01*
X3693080Y6271641D01*
X3459731Y6097588D01*
X3264822Y5881355D01*
X3115843Y5631252D01*
X3018519Y5356891D01*
X660000Y5356891D01*
X660000Y57618400D01*
X14131444Y57618400D01*
X14135000Y57582295D01*
X14135001Y53266115D01*
X14131444Y53230000D01*
X14145635Y53085915D01*
X14187664Y52947367D01*
X14255914Y52819680D01*
X14347763Y52707762D01*
X14375808Y52684746D01*
X14607178Y52453376D01*
X14565000Y52241335D01*
X14565000Y51958665D01*
X14620147Y51681426D01*
X14728320Y51420273D01*
X14885363Y51185241D01*
X15085241Y50985363D01*
X15317759Y50830000D01*
X15085241Y50674637D01*
X14885363Y50474759D01*
X14728320Y50239727D01*
X14620147Y49978574D01*
X14565000Y49701335D01*
X14565000Y49418665D01*
X14620147Y49141426D01*
X14728320Y48880273D01*
X14885363Y48645241D01*
X15085241Y48445363D01*
X15320273Y48288320D01*
X15581426Y48180147D01*
X15858665Y48125000D01*
X16141335Y48125000D01*
X16418574Y48180147D01*
X16679727Y48288320D01*
X16914759Y48445363D01*
X17069325Y48599929D01*
X25013027Y40656227D01*
X24933899Y40613932D01*
X24715392Y40434607D01*
X24536068Y40216100D01*
X24465000Y40083142D01*
X24393932Y40216101D01*
X24214607Y40434608D01*
X23996100Y40613932D01*
X23746807Y40747182D01*
X23476308Y40829236D01*
X23195000Y40856943D01*
X22913691Y40829236D01*
X22643192Y40747182D01*
X22393899Y40613932D01*
X22175392Y40434607D01*
X21996068Y40216100D01*
X21925000Y40083142D01*
X21853932Y40216101D01*
X21674607Y40434608D01*
X21456100Y40613932D01*
X21206807Y40747182D01*
X20936308Y40829236D01*
X20655000Y40856943D01*
X20373691Y40829236D01*
X20103192Y40747182D01*
X19853899Y40613932D01*
X19635392Y40434607D01*
X19456068Y40216100D01*
X19385000Y40083142D01*
X19313932Y40216101D01*
X19134607Y40434608D01*
X18916100Y40613932D01*
X18666807Y40747182D01*
X18396308Y40829236D01*
X18115000Y40856943D01*
X17833691Y40829236D01*
X17563192Y40747182D01*
X17313899Y40613932D01*
X17095392Y40434607D01*
X16916068Y40216100D01*
X16845000Y40083142D01*
X16773932Y40216101D01*
X16594607Y40434608D01*
X16376100Y40613932D01*
X16126807Y40747182D01*
X15856308Y40829236D01*
X15575000Y40856943D01*
X15293691Y40829236D01*
X15023192Y40747182D01*
X14773899Y40613932D01*
X14555392Y40434607D01*
X14376068Y40216100D01*
X14242818Y39966807D01*
X14160764Y39696308D01*
X14140000Y39485491D01*
X14140000Y38544508D01*
X14160764Y38333691D01*
X14242818Y38063192D01*
X14376068Y37813899D01*
X14555393Y37595392D01*
X14773900Y37416068D01*
X15023193Y37282818D01*
X15293692Y37200764D01*
X15575000Y37173057D01*
X15856309Y37200764D01*
X16126808Y37282818D01*
X16376101Y37416068D01*
X16594608Y37595392D01*
X16773932Y37813899D01*
X16845000Y37946858D01*
X16916068Y37813899D01*
X17095393Y37595392D01*
X17313900Y37416068D01*
X17563193Y37282818D01*
X17833692Y37200764D01*
X18115000Y37173057D01*
X18396309Y37200764D01*
X18666808Y37282818D01*
X18916101Y37416068D01*
X19134608Y37595392D01*
X19313932Y37813899D01*
X19385000Y37946858D01*
X19456068Y37813899D01*
X19635393Y37595392D01*
X19853900Y37416068D01*
X20103193Y37282818D01*
X20373692Y37200764D01*
X20655000Y37173057D01*
X20936309Y37200764D01*
X21206808Y37282818D01*
X21456101Y37416068D01*
X21674608Y37595392D01*
X21853932Y37813899D01*
X21925000Y37946858D01*
X21996068Y37813899D01*
X22175393Y37595392D01*
X22393900Y37416068D01*
X22643193Y37282818D01*
X22913692Y37200764D01*
X23195000Y37173057D01*
X23476309Y37200764D01*
X23746808Y37282818D01*
X23996101Y37416068D01*
X24214608Y37595392D01*
X24393932Y37813899D01*
X24465000Y37946858D01*
X24536068Y37813899D01*
X24715393Y37595392D01*
X24933900Y37416068D01*
X25183193Y37282818D01*
X25453692Y37200764D01*
X25735000Y37173057D01*
X26016309Y37200764D01*
X26286808Y37282818D01*
X26536101Y37416068D01*
X26719706Y37566748D01*
X28468346Y35818107D01*
X28491362Y35790062D01*
X28603280Y35698213D01*
X28730967Y35629963D01*
X28869515Y35587935D01*
X28977495Y35577300D01*
X28977504Y35577300D01*
X29013599Y35573745D01*
X29049694Y35577300D01*
X30144454Y35577300D01*
X40283166Y25438587D01*
X40050105Y25279500D01*
X39852399Y25077839D01*
X39702265Y24848259D01*
X39633932Y24976101D01*
X39454607Y25194608D01*
X39236100Y25373932D01*
X38986807Y25507182D01*
X38716308Y25589236D01*
X38435000Y25616943D01*
X38153691Y25589236D01*
X37883192Y25507182D01*
X37633899Y25373932D01*
X37415392Y25194607D01*
X37236068Y24976100D01*
X37165000Y24843142D01*
X37093932Y24976101D01*
X36914607Y25194608D01*
X36696100Y25373932D01*
X36446807Y25507182D01*
X36176308Y25589236D01*
X35895000Y25616943D01*
X35613691Y25589236D01*
X35486400Y25550623D01*
X35486400Y26747754D01*
X35806253Y27067606D01*
X35893245Y27084910D01*
X36054305Y27151623D01*
X36199255Y27248476D01*
X36322524Y27371745D01*
X36419377Y27516695D01*
X36486090Y27677755D01*
X36520100Y27848735D01*
X36520100Y28023065D01*
X36486090Y28194045D01*
X36419377Y28355105D01*
X36322524Y28500055D01*
X36199255Y28623324D01*
X36054305Y28720177D01*
X35893245Y28786890D01*
X35722265Y28820900D01*
X35547935Y28820900D01*
X35376955Y28786890D01*
X35215895Y28720177D01*
X35070945Y28623324D01*
X34947676Y28500055D01*
X34850823Y28355105D01*
X34784110Y28194045D01*
X34766806Y28107053D01*
X34257208Y27597454D01*
X34229162Y27574437D01*
X34137313Y27462519D01*
X34069063Y27334832D01*
X34042867Y27248476D01*
X34027035Y27196285D01*
X34012844Y27052200D01*
X34016400Y27016095D01*
X34016400Y25448603D01*
X33906807Y25507182D01*
X33636308Y25589236D01*
X33355000Y25616943D01*
X33073691Y25589236D01*
X32803192Y25507182D01*
X32553899Y25373932D01*
X32335392Y25194607D01*
X32156068Y24976100D01*
X32085000Y24843142D01*
X32013932Y24976101D01*
X31834607Y25194608D01*
X31616100Y25373932D01*
X31366807Y25507182D01*
X31096308Y25589236D01*
X30815000Y25616943D01*
X30533691Y25589236D01*
X30263192Y25507182D01*
X30013899Y25373932D01*
X29795392Y25194607D01*
X29616068Y24976100D01*
X29545000Y24843142D01*
X29473932Y24976101D01*
X29294607Y25194608D01*
X29076100Y25373932D01*
X28826807Y25507182D01*
X28556308Y25589236D01*
X28275000Y25616943D01*
X27993691Y25589236D01*
X27723192Y25507182D01*
X27473899Y25373932D01*
X27255392Y25194607D01*
X27076068Y24976100D01*
X27005000Y24843142D01*
X26933932Y24976101D01*
X26754607Y25194608D01*
X26536100Y25373932D01*
X26286807Y25507182D01*
X26016308Y25589236D01*
X25735000Y25616943D01*
X25453691Y25589236D01*
X25183192Y25507182D01*
X24933899Y25373932D01*
X24715392Y25194607D01*
X24536068Y24976100D01*
X24465000Y24843142D01*
X24393932Y24976101D01*
X24214607Y25194608D01*
X23996100Y25373932D01*
X23746807Y25507182D01*
X23476308Y25589236D01*
X23195000Y25616943D01*
X22913691Y25589236D01*
X22643192Y25507182D01*
X22393899Y25373932D01*
X22175392Y25194607D01*
X21996068Y24976100D01*
X21925000Y24843142D01*
X21853932Y24976101D01*
X21674607Y25194608D01*
X21456100Y25373932D01*
X21206807Y25507182D01*
X20936308Y25589236D01*
X20655000Y25616943D01*
X20373691Y25589236D01*
X20103192Y25507182D01*
X19853899Y25373932D01*
X19635392Y25194607D01*
X19456068Y24976100D01*
X19385000Y24843142D01*
X19313932Y24976101D01*
X19134607Y25194608D01*
X18916100Y25373932D01*
X18666807Y25507182D01*
X18396308Y25589236D01*
X18115000Y25616943D01*
X17833691Y25589236D01*
X17563192Y25507182D01*
X17313899Y25373932D01*
X17095392Y25194607D01*
X17002581Y25081517D01*
X17000812Y25099482D01*
X16964502Y25219180D01*
X16905537Y25329494D01*
X16826185Y25426185D01*
X16729494Y25505537D01*
X16619180Y25564502D01*
X16499482Y25600812D01*
X16375000Y25613072D01*
X14775000Y25613072D01*
X14650518Y25600812D01*
X14530820Y25564502D01*
X14420506Y25505537D01*
X14323815Y25426185D01*
X14244463Y25329494D01*
X14185498Y25219180D01*
X14149188Y25099482D01*
X14136928Y24975000D01*
X14136928Y22575000D01*
X14149188Y22450518D01*
X14185498Y22330820D01*
X14244463Y22220506D01*
X14323815Y22123815D01*
X14420506Y22044463D01*
X14530820Y21985498D01*
X14650518Y21949188D01*
X14775000Y21936928D01*
X16375000Y21936928D01*
X16499482Y21949188D01*
X16619180Y21985498D01*
X16729494Y22044463D01*
X16826185Y22123815D01*
X16905537Y22220506D01*
X16964502Y22330820D01*
X17000812Y22450518D01*
X17002581Y22468483D01*
X17095393Y22355392D01*
X17313900Y22176068D01*
X17563193Y22042818D01*
X17833692Y21960764D01*
X18115000Y21933057D01*
X18396309Y21960764D01*
X18666808Y22042818D01*
X18916101Y22176068D01*
X19134608Y22355392D01*
X19313932Y22573899D01*
X19385000Y22706858D01*
X19456068Y22573899D01*
X19635393Y22355392D01*
X19853900Y22176068D01*
X20103193Y22042818D01*
X20373692Y21960764D01*
X20655000Y21933057D01*
X20936309Y21960764D01*
X21206808Y22042818D01*
X21456101Y22176068D01*
X21674608Y22355392D01*
X21853932Y22573899D01*
X21925000Y22706858D01*
X21996068Y22573899D01*
X22175393Y22355392D01*
X22393900Y22176068D01*
X22643193Y22042818D01*
X22913692Y21960764D01*
X23195000Y21933057D01*
X23476309Y21960764D01*
X23746808Y22042818D01*
X23996101Y22176068D01*
X24214608Y22355392D01*
X24393932Y22573899D01*
X24465000Y22706858D01*
X24536068Y22573899D01*
X24715393Y22355392D01*
X24933900Y22176068D01*
X25183193Y22042818D01*
X25453692Y21960764D01*
X25735000Y21933057D01*
X26016309Y21960764D01*
X26286808Y22042818D01*
X26536101Y22176068D01*
X26754608Y22355392D01*
X26933932Y22573899D01*
X27005000Y22706858D01*
X27076068Y22573899D01*
X27255393Y22355392D01*
X27473900Y22176068D01*
X27723193Y22042818D01*
X27993692Y21960764D01*
X28275000Y21933057D01*
X28556309Y21960764D01*
X28826808Y22042818D01*
X29076101Y22176068D01*
X29294608Y22355392D01*
X29473932Y22573899D01*
X29545000Y22706858D01*
X29616068Y22573899D01*
X29795393Y22355392D01*
X30013900Y22176068D01*
X30263193Y22042818D01*
X30533692Y21960764D01*
X30815000Y21933057D01*
X31096309Y21960764D01*
X31366808Y22042818D01*
X31616101Y22176068D01*
X31834608Y22355392D01*
X32013932Y22573899D01*
X32085000Y22706858D01*
X32156068Y22573899D01*
X32335393Y22355392D01*
X32553900Y22176068D01*
X32803193Y22042818D01*
X33073692Y21960764D01*
X33355000Y21933057D01*
X33636309Y21960764D01*
X33906808Y22042818D01*
X34068208Y22129088D01*
X34069064Y22126267D01*
X34137314Y21998580D01*
X34229163Y21886662D01*
X34257208Y21863646D01*
X34908816Y21212037D01*
X34875392Y21184607D01*
X34696068Y20966100D01*
X34625000Y20833142D01*
X34553932Y20966101D01*
X34374607Y21184608D01*
X34156100Y21363932D01*
X33906807Y21497182D01*
X33636308Y21579236D01*
X33355000Y21606943D01*
X33073691Y21579236D01*
X32803192Y21497182D01*
X32553899Y21363932D01*
X32335392Y21184607D01*
X32156068Y20966100D01*
X32085000Y20833142D01*
X32013932Y20966101D01*
X31834607Y21184608D01*
X31616100Y21363932D01*
X31366807Y21497182D01*
X31096308Y21579236D01*
X30815000Y21606943D01*
X30533691Y21579236D01*
X30263192Y21497182D01*
X30013899Y21363932D01*
X29795392Y21184607D01*
X29616068Y20966100D01*
X29545000Y20833142D01*
X29473932Y20966101D01*
X29294607Y21184608D01*
X29076100Y21363932D01*
X28826807Y21497182D01*
X28556308Y21579236D01*
X28275000Y21606943D01*
X27993691Y21579236D01*
X27723192Y21497182D01*
X27473899Y21363932D01*
X27255392Y21184607D01*
X27076068Y20966100D01*
X27005000Y20833142D01*
X26933932Y20966101D01*
X26754607Y21184608D01*
X26536100Y21363932D01*
X26286807Y21497182D01*
X26016308Y21579236D01*
X25735000Y21606943D01*
X25453691Y21579236D01*
X25183192Y21497182D01*
X24933899Y21363932D01*
X24715392Y21184607D01*
X24536068Y20966100D01*
X24465000Y20833142D01*
X24393932Y20966101D01*
X24214607Y21184608D01*
X23996100Y21363932D01*
X23746807Y21497182D01*
X23476308Y21579236D01*
X23195000Y21606943D01*
X22913691Y21579236D01*
X22643192Y21497182D01*
X22393899Y21363932D01*
X22175392Y21184607D01*
X21996068Y20966100D01*
X21925000Y20833142D01*
X21853932Y20966101D01*
X21674607Y21184608D01*
X21456100Y21363932D01*
X21206807Y21497182D01*
X20936308Y21579236D01*
X20655000Y21606943D01*
X20373691Y21579236D01*
X20103192Y21497182D01*
X19853899Y21363932D01*
X19635392Y21184607D01*
X19456068Y20966100D01*
X19385000Y20833142D01*
X19313932Y20966101D01*
X19134607Y21184608D01*
X18916100Y21363932D01*
X18666807Y21497182D01*
X18396308Y21579236D01*
X18115000Y21606943D01*
X17833691Y21579236D01*
X17563192Y21497182D01*
X17313899Y21363932D01*
X17095392Y21184607D01*
X16916068Y20966100D01*
X16845000Y20833142D01*
X16773932Y20966101D01*
X16594607Y21184608D01*
X16376100Y21363932D01*
X16126807Y21497182D01*
X15856308Y21579236D01*
X15575000Y21606943D01*
X15293691Y21579236D01*
X15023192Y21497182D01*
X14773899Y21363932D01*
X14555392Y21184607D01*
X14376068Y20966100D01*
X14242818Y20716807D01*
X14160764Y20446308D01*
X14140000Y20235491D01*
X14140000Y19294508D01*
X14160764Y19083691D01*
X14242818Y18813192D01*
X14376068Y18563899D01*
X14555393Y18345392D01*
X14773900Y18166068D01*
X15023193Y18032818D01*
X15293692Y17950764D01*
X15575000Y17923057D01*
X15856309Y17950764D01*
X16126808Y18032818D01*
X16376101Y18166068D01*
X16594608Y18345392D01*
X16773932Y18563899D01*
X16845000Y18696858D01*
X16916068Y18563899D01*
X17095393Y18345392D01*
X17313900Y18166068D01*
X17563193Y18032818D01*
X17833692Y17950764D01*
X18115000Y17923057D01*
X18396309Y17950764D01*
X18666808Y18032818D01*
X18916101Y18166068D01*
X19134608Y18345392D01*
X19313932Y18563899D01*
X19385000Y18696858D01*
X19456068Y18563899D01*
X19635393Y18345392D01*
X19853900Y18166068D01*
X20103193Y18032818D01*
X20373692Y17950764D01*
X20655000Y17923057D01*
X20936309Y17950764D01*
X21206808Y18032818D01*
X21456101Y18166068D01*
X21674608Y18345392D01*
X21853932Y18563899D01*
X21925000Y18696858D01*
X21996068Y18563899D01*
X22175393Y18345392D01*
X22393900Y18166068D01*
X22643193Y18032818D01*
X22913692Y17950764D01*
X23195000Y17923057D01*
X23476309Y17950764D01*
X23746808Y18032818D01*
X23996101Y18166068D01*
X24214608Y18345392D01*
X24393932Y18563899D01*
X24465000Y18696858D01*
X24536068Y18563899D01*
X24715393Y18345392D01*
X24933900Y18166068D01*
X25183193Y18032818D01*
X25453692Y17950764D01*
X25735000Y17923057D01*
X26016309Y17950764D01*
X26286808Y18032818D01*
X26536101Y18166068D01*
X26754608Y18345392D01*
X26933932Y18563899D01*
X27005000Y18696858D01*
X27076068Y18563899D01*
X27255393Y18345392D01*
X27473900Y18166068D01*
X27723193Y18032818D01*
X27993692Y17950764D01*
X28275000Y17923057D01*
X28556309Y17950764D01*
X28826808Y18032818D01*
X29076101Y18166068D01*
X29294608Y18345392D01*
X29473932Y18563899D01*
X29545000Y18696858D01*
X29616068Y18563899D01*
X29795393Y18345392D01*
X30013900Y18166068D01*
X30263193Y18032818D01*
X30533692Y17950764D01*
X30815000Y17923057D01*
X31096309Y17950764D01*
X31366808Y18032818D01*
X31616101Y18166068D01*
X31834608Y18345392D01*
X32013932Y18563899D01*
X32085000Y18696858D01*
X32156068Y18563899D01*
X32335393Y18345392D01*
X32553900Y18166068D01*
X32803193Y18032818D01*
X33073692Y17950764D01*
X33355000Y17923057D01*
X33636309Y17950764D01*
X33906808Y18032818D01*
X34156101Y18166068D01*
X34374608Y18345392D01*
X34553932Y18563899D01*
X34625000Y18696858D01*
X34696068Y18563899D01*
X34875393Y18345392D01*
X35093900Y18166068D01*
X35343193Y18032818D01*
X35613692Y17950764D01*
X35895000Y17923057D01*
X36176309Y17950764D01*
X36446808Y18032818D01*
X36696101Y18166068D01*
X36914608Y18345392D01*
X37093932Y18563899D01*
X37165000Y18696858D01*
X37236068Y18563899D01*
X37415393Y18345392D01*
X37633900Y18166068D01*
X37883193Y18032818D01*
X38153692Y17950764D01*
X38435000Y17923057D01*
X38716309Y17950764D01*
X38986808Y18032818D01*
X39236101Y18166068D01*
X39454608Y18345392D01*
X39633932Y18563899D01*
X39705000Y18696858D01*
X39776068Y18563899D01*
X39955393Y18345392D01*
X40173900Y18166068D01*
X40423193Y18032818D01*
X40693692Y17950764D01*
X40975000Y17923057D01*
X41256309Y17950764D01*
X41526808Y18032818D01*
X41776101Y18166068D01*
X41994608Y18345392D01*
X42173932Y18563899D01*
X42245000Y18696858D01*
X42316068Y18563899D01*
X42495393Y18345392D01*
X42713900Y18166068D01*
X42963193Y18032818D01*
X43233692Y17950764D01*
X43515000Y17923057D01*
X43796309Y17950764D01*
X44066808Y18032818D01*
X44316101Y18166068D01*
X44534608Y18345392D01*
X44713932Y18563899D01*
X44785000Y18696858D01*
X44856068Y18563899D01*
X45035393Y18345392D01*
X45253900Y18166068D01*
X45503193Y18032818D01*
X45773692Y17950764D01*
X46055000Y17923057D01*
X46336309Y17950764D01*
X46606808Y18032818D01*
X46748700Y18108661D01*
X46748701Y7172715D01*
X46745144Y7136600D01*
X46759335Y6992515D01*
X46801364Y6853967D01*
X46869614Y6726280D01*
X46961463Y6614362D01*
X46989508Y6591346D01*
X47608816Y5972037D01*
X47575392Y5944607D01*
X47396068Y5726100D01*
X47325000Y5593142D01*
X47253932Y5726101D01*
X47074607Y5944608D01*
X46856100Y6123932D01*
X46606807Y6257182D01*
X46336308Y6339236D01*
X46055000Y6366943D01*
X45773691Y6339236D01*
X45503192Y6257182D01*
X45253899Y6123932D01*
X45035392Y5944607D01*
X44856068Y5726100D01*
X44785000Y5593142D01*
X44713932Y5726101D01*
X44534607Y5944608D01*
X44316100Y6123932D01*
X44066807Y6257182D01*
X43796308Y6339236D01*
X43515000Y6366943D01*
X43233691Y6339236D01*
X42963192Y6257182D01*
X42713899Y6123932D01*
X42495392Y5944607D01*
X42316068Y5726100D01*
X42247735Y5598258D01*
X42097601Y5827839D01*
X41899895Y6029500D01*
X41666646Y6188715D01*
X41406818Y6299367D01*
X41324039Y6316904D01*
X41102000Y6194915D01*
X41102000Y4652000D01*
X41122000Y4652000D01*
X41122000Y4398000D01*
X41102000Y4398000D01*
X41102000Y2855085D01*
X41324039Y2733096D01*
X41406818Y2750633D01*
X41666646Y2861285D01*
X41899895Y3020500D01*
X42097601Y3222161D01*
X42247735Y3451741D01*
X42316068Y3323899D01*
X42495393Y3105392D01*
X42713900Y2926068D01*
X42963193Y2792818D01*
X43233692Y2710764D01*
X43515000Y2683057D01*
X43796309Y2710764D01*
X44066808Y2792818D01*
X44316101Y2926068D01*
X44534608Y3105392D01*
X44713932Y3323899D01*
X44785000Y3456858D01*
X44856068Y3323899D01*
X45035393Y3105392D01*
X45253900Y2926068D01*
X45503193Y2792818D01*
X45773692Y2710764D01*
X46055000Y2683057D01*
X46336309Y2710764D01*
X46606808Y2792818D01*
X46856101Y2926068D01*
X47074608Y3105392D01*
X47253932Y3323899D01*
X47325000Y3456858D01*
X47396068Y3323899D01*
X47575393Y3105392D01*
X47793900Y2926068D01*
X48043193Y2792818D01*
X48313692Y2710764D01*
X48595000Y2683057D01*
X48876309Y2710764D01*
X49146808Y2792818D01*
X49396101Y2926068D01*
X49614608Y3105392D01*
X49793932Y3323899D01*
X49865000Y3456858D01*
X49936068Y3323899D01*
X50115393Y3105392D01*
X50333900Y2926068D01*
X50583193Y2792818D01*
X50853692Y2710764D01*
X51135000Y2683057D01*
X51416309Y2710764D01*
X51686808Y2792818D01*
X51936101Y2926068D01*
X52154608Y3105392D01*
X52333932Y3323899D01*
X52405000Y3456858D01*
X52476068Y3323899D01*
X52655393Y3105392D01*
X52873900Y2926068D01*
X53123193Y2792818D01*
X53393692Y2710764D01*
X53675000Y2683057D01*
X53956309Y2710764D01*
X54226808Y2792818D01*
X54476101Y2926068D01*
X54694608Y3105392D01*
X54873932Y3323899D01*
X54945000Y3456858D01*
X55016068Y3323899D01*
X55195393Y3105392D01*
X55413900Y2926068D01*
X55663193Y2792818D01*
X55933692Y2710764D01*
X56215000Y2683057D01*
X56496309Y2710764D01*
X56766808Y2792818D01*
X57016101Y2926068D01*
X57234608Y3105392D01*
X57413932Y3323899D01*
X57485000Y3456858D01*
X57556068Y3323899D01*
X57735393Y3105392D01*
X57953900Y2926068D01*
X58203193Y2792818D01*
X58473692Y2710764D01*
X58755000Y2683057D01*
X59036309Y2710764D01*
X59306808Y2792818D01*
X59556101Y2926068D01*
X59774608Y3105392D01*
X59953932Y3323899D01*
X60025000Y3456858D01*
X60096068Y3323899D01*
X60275393Y3105392D01*
X60493900Y2926068D01*
X60743193Y2792818D01*
X61013692Y2710764D01*
X61295000Y2683057D01*
X61576309Y2710764D01*
X61846808Y2792818D01*
X62096101Y2926068D01*
X62314608Y3105392D01*
X62493932Y3323899D01*
X62565000Y3456858D01*
X62636068Y3323899D01*
X62815393Y3105392D01*
X63033900Y2926068D01*
X63283193Y2792818D01*
X63553692Y2710764D01*
X63835000Y2683057D01*
X64116309Y2710764D01*
X64386808Y2792818D01*
X64636101Y2926068D01*
X64854608Y3105392D01*
X65033932Y3323899D01*
X65167182Y3573192D01*
X65249236Y3843691D01*
X65270000Y4054509D01*
X65270000Y4995492D01*
X65249236Y5206309D01*
X65167182Y5476808D01*
X65033932Y5726101D01*
X64854607Y5944608D01*
X64636100Y6123932D01*
X64386807Y6257182D01*
X64116308Y6339236D01*
X63835000Y6366943D01*
X63553691Y6339236D01*
X63283192Y6257182D01*
X63033899Y6123932D01*
X62815392Y5944607D01*
X62636068Y5726100D01*
X62565000Y5593142D01*
X62493932Y5726101D01*
X62314607Y5944608D01*
X62096100Y6123932D01*
X61846807Y6257182D01*
X61576308Y6339236D01*
X61295000Y6366943D01*
X61013691Y6339236D01*
X60743192Y6257182D01*
X60493899Y6123932D01*
X60275392Y5944607D01*
X60096068Y5726100D01*
X60025000Y5593142D01*
X59953932Y5726101D01*
X59774607Y5944608D01*
X59741184Y5972038D01*
X60360293Y6591146D01*
X60388338Y6614162D01*
X60480187Y6726080D01*
X60480294Y6726281D01*
X60548437Y6853766D01*
X60590465Y6992315D01*
X60604656Y7136400D01*
X60601100Y7172505D01*
X60601100Y18108768D01*
X60743193Y18032818D01*
X61013692Y17950764D01*
X61295000Y17923057D01*
X61576309Y17950764D01*
X61846808Y18032818D01*
X62096101Y18166068D01*
X62314608Y18345392D01*
X62493932Y18563899D01*
X62565000Y18696858D01*
X62636068Y18563899D01*
X62815393Y18345392D01*
X63033900Y18166068D01*
X63283193Y18032818D01*
X63553692Y17950764D01*
X63835000Y17923057D01*
X64116309Y17950764D01*
X64386808Y18032818D01*
X64636101Y18166068D01*
X64854608Y18345392D01*
X65033932Y18563899D01*
X65167182Y18813192D01*
X65249236Y19083691D01*
X65270000Y19294509D01*
X65270000Y20235492D01*
X65249236Y20446309D01*
X65167182Y20716808D01*
X65033932Y20966101D01*
X64854607Y21184608D01*
X64636100Y21363932D01*
X64386807Y21497182D01*
X64116308Y21579236D01*
X63835000Y21606943D01*
X63553691Y21579236D01*
X63283192Y21497182D01*
X63033899Y21363932D01*
X62815392Y21184607D01*
X62636068Y20966100D01*
X62565000Y20833142D01*
X62493932Y20966101D01*
X62314607Y21184608D01*
X62096100Y21363932D01*
X61846807Y21497182D01*
X61576308Y21579236D01*
X61295000Y21606943D01*
X61013691Y21579236D01*
X60743192Y21497182D01*
X60562311Y21400499D01*
X60548437Y21446234D01*
X60480187Y21573920D01*
X60411353Y21657794D01*
X60411350Y21657797D01*
X60388337Y21685838D01*
X60360297Y21708850D01*
X59741184Y22327962D01*
X59774608Y22355392D01*
X59953932Y22573899D01*
X60025000Y22706858D01*
X60096068Y22573899D01*
X60275393Y22355392D01*
X60493900Y22176068D01*
X60743193Y22042818D01*
X61013692Y21960764D01*
X61295000Y21933057D01*
X61576309Y21960764D01*
X61846808Y22042818D01*
X62096101Y22176068D01*
X62314608Y22355392D01*
X62493932Y22573899D01*
X62565000Y22706858D01*
X62636068Y22573899D01*
X62815393Y22355392D01*
X63033900Y22176068D01*
X63283193Y22042818D01*
X63553692Y21960764D01*
X63835000Y21933057D01*
X64116309Y21960764D01*
X64386808Y22042818D01*
X64636101Y22176068D01*
X64854608Y22355392D01*
X65033932Y22573899D01*
X65167182Y22823192D01*
X65249236Y23093691D01*
X65270000Y23304509D01*
X65270000Y24245492D01*
X65249236Y24456309D01*
X65167182Y24726808D01*
X65033932Y24976101D01*
X64854607Y25194608D01*
X64636100Y25373932D01*
X64386807Y25507182D01*
X64116308Y25589236D01*
X63835000Y25616943D01*
X63553691Y25589236D01*
X63283192Y25507182D01*
X63033899Y25373932D01*
X62815392Y25194607D01*
X62636068Y24976100D01*
X62565000Y24843142D01*
X62493932Y24976101D01*
X62314607Y25194608D01*
X62096100Y25373932D01*
X61846807Y25507182D01*
X61576308Y25589236D01*
X61295000Y25616943D01*
X61013691Y25589236D01*
X60743192Y25507182D01*
X60493899Y25373932D01*
X60275392Y25194607D01*
X60096068Y24976100D01*
X60025000Y24843142D01*
X59953932Y24976101D01*
X59774607Y25194608D01*
X59556100Y25373932D01*
X59306807Y25507182D01*
X59036308Y25589236D01*
X58755000Y25616943D01*
X58473691Y25589236D01*
X58345000Y25550198D01*
X58345000Y36065254D01*
X59249193Y36969446D01*
X59277238Y36992462D01*
X59369087Y37104380D01*
X59405796Y37173057D01*
X59437337Y37232066D01*
X59479365Y37370615D01*
X59479826Y37375298D01*
X59556101Y37416068D01*
X59774608Y37595392D01*
X59953932Y37813899D01*
X60025000Y37946858D01*
X60096068Y37813899D01*
X60275393Y37595392D01*
X60493900Y37416068D01*
X60743193Y37282818D01*
X61013692Y37200764D01*
X61295000Y37173057D01*
X61576309Y37200764D01*
X61846808Y37282818D01*
X62096101Y37416068D01*
X62314608Y37595392D01*
X62493932Y37813899D01*
X62565000Y37946858D01*
X62636068Y37813899D01*
X62815393Y37595392D01*
X63033900Y37416068D01*
X63283193Y37282818D01*
X63553692Y37200764D01*
X63835000Y37173057D01*
X64116309Y37200764D01*
X64386808Y37282818D01*
X64636101Y37416068D01*
X64854608Y37595392D01*
X65033932Y37813899D01*
X65167182Y38063192D01*
X65249236Y38333691D01*
X65270000Y38544509D01*
X65270000Y39485492D01*
X65249236Y39696309D01*
X65167182Y39966808D01*
X65033932Y40216101D01*
X64854607Y40434608D01*
X64636100Y40613932D01*
X64386807Y40747182D01*
X64116308Y40829236D01*
X63835000Y40856943D01*
X63553691Y40829236D01*
X63283192Y40747182D01*
X63033899Y40613932D01*
X62815392Y40434607D01*
X62636068Y40216100D01*
X62565000Y40083142D01*
X62493932Y40216101D01*
X62314607Y40434608D01*
X62096100Y40613932D01*
X61846807Y40747182D01*
X61576308Y40829236D01*
X61295000Y40856943D01*
X61013691Y40829236D01*
X60743192Y40747182D01*
X60493899Y40613932D01*
X60275392Y40434607D01*
X60096068Y40216100D01*
X60025000Y40083142D01*
X59953932Y40216101D01*
X59774607Y40434608D01*
X59556100Y40613932D01*
X59306807Y40747182D01*
X59036308Y40829236D01*
X58755000Y40856943D01*
X58473691Y40829236D01*
X58203192Y40747182D01*
X57953899Y40613932D01*
X57735392Y40434607D01*
X57556068Y40216100D01*
X57485000Y40083142D01*
X57413932Y40216101D01*
X57234607Y40434608D01*
X57016100Y40613932D01*
X56766807Y40747182D01*
X56496308Y40829236D01*
X56215000Y40856943D01*
X55933691Y40829236D01*
X55663192Y40747182D01*
X55413899Y40613932D01*
X55195392Y40434607D01*
X55016068Y40216100D01*
X54945000Y40083142D01*
X54873932Y40216101D01*
X54694607Y40434608D01*
X54476100Y40613932D01*
X54226807Y40747182D01*
X53956308Y40829236D01*
X53675000Y40856943D01*
X53393691Y40829236D01*
X53123192Y40747182D01*
X52873899Y40613932D01*
X52655392Y40434607D01*
X52476068Y40216100D01*
X52405000Y40083142D01*
X52333932Y40216101D01*
X52154607Y40434608D01*
X51936100Y40613932D01*
X51686807Y40747182D01*
X51416308Y40829236D01*
X51135000Y40856943D01*
X50853691Y40829236D01*
X50583192Y40747182D01*
X50333899Y40613932D01*
X50115392Y40434607D01*
X49936068Y40216100D01*
X49865000Y40083142D01*
X49793932Y40216101D01*
X49614607Y40434608D01*
X49396100Y40613932D01*
X49146807Y40747182D01*
X48876308Y40829236D01*
X48595000Y40856943D01*
X48313691Y40829236D01*
X48043192Y40747182D01*
X47793899Y40613932D01*
X47575392Y40434607D01*
X47396068Y40216100D01*
X47325000Y40083142D01*
X47253932Y40216101D01*
X47074607Y40434608D01*
X46856100Y40613932D01*
X46606807Y40747182D01*
X46336308Y40829236D01*
X46055000Y40856943D01*
X45773691Y40829236D01*
X45503192Y40747182D01*
X45253899Y40613932D01*
X45035392Y40434607D01*
X44856068Y40216100D01*
X44785000Y40083142D01*
X44713932Y40216101D01*
X44534607Y40434608D01*
X44316100Y40613932D01*
X44066807Y40747182D01*
X43796308Y40829236D01*
X43515000Y40856943D01*
X43233691Y40829236D01*
X42963192Y40747182D01*
X42713899Y40613932D01*
X42495392Y40434607D01*
X42316068Y40216100D01*
X42245000Y40083142D01*
X42173932Y40216101D01*
X41994607Y40434608D01*
X41776100Y40613932D01*
X41526807Y40747182D01*
X41256308Y40829236D01*
X40975000Y40856943D01*
X40693691Y40829236D01*
X40423192Y40747182D01*
X40173899Y40613932D01*
X39955392Y40434607D01*
X39776068Y40216100D01*
X39705000Y40083142D01*
X39633932Y40216101D01*
X39454607Y40434608D01*
X39236100Y40613932D01*
X38986807Y40747182D01*
X38716308Y40829236D01*
X38435000Y40856943D01*
X38153691Y40829236D01*
X37883192Y40747182D01*
X37633899Y40613932D01*
X37453206Y40465641D01*
X19125059Y58793787D01*
X19102038Y58821838D01*
X18990120Y58913687D01*
X18862433Y58981937D01*
X18723885Y59023965D01*
X18615905Y59034600D01*
X18579800Y59038156D01*
X18543695Y59034600D01*
X17267889Y59034600D01*
X17271680Y59040273D01*
X17379853Y59301426D01*
X17435000Y59578665D01*
X17435000Y59861335D01*
X17379853Y60138574D01*
X17271680Y60399727D01*
X17114637Y60634759D01*
X16914759Y60834637D01*
X16682241Y60990000D01*
X16914759Y61145363D01*
X17114637Y61345241D01*
X17271680Y61580273D01*
X17379853Y61841426D01*
X17435000Y62118665D01*
X17435000Y62401335D01*
X17379853Y62678574D01*
X17271680Y62939727D01*
X17114637Y63174759D01*
X16914759Y63374637D01*
X16682241Y63530000D01*
X16914759Y63685363D01*
X17114637Y63885241D01*
X17271680Y64120273D01*
X17379853Y64381426D01*
X17435000Y64658665D01*
X17435000Y64941335D01*
X17379853Y65218574D01*
X17271680Y65479727D01*
X17114637Y65714759D01*
X16914759Y65914637D01*
X16682241Y66070000D01*
X16914759Y66225363D01*
X17114637Y66425241D01*
X17271680Y66660273D01*
X17379853Y66921426D01*
X17435000Y67198665D01*
X17435000Y67481335D01*
X17379853Y67758574D01*
X17271680Y68019727D01*
X17114637Y68254759D01*
X16914759Y68454637D01*
X16682241Y68610000D01*
X16893764Y68751335D01*
X27265000Y68751335D01*
X27265000Y68468665D01*
X27320147Y68191426D01*
X27428320Y67930273D01*
X27585363Y67695241D01*
X27785241Y67495363D01*
X28017759Y67340000D01*
X27785241Y67184637D01*
X27585363Y66984759D01*
X27428320Y66749727D01*
X27320147Y66488574D01*
X27265000Y66211335D01*
X27265000Y65928665D01*
X27320147Y65651426D01*
X27428320Y65390273D01*
X27585363Y65155241D01*
X27785241Y64955363D01*
X28020273Y64798320D01*
X28281426Y64690147D01*
X28558665Y64635000D01*
X28841335Y64635000D01*
X29118574Y64690147D01*
X29379727Y64798320D01*
X29614759Y64955363D01*
X29814637Y65155241D01*
X29865354Y65231144D01*
X29860147Y65218574D01*
X29805000Y64941335D01*
X29805000Y64658665D01*
X29860147Y64381426D01*
X29968320Y64120273D01*
X30125363Y63885241D01*
X30325241Y63685363D01*
X30557759Y63530000D01*
X30325241Y63374637D01*
X30125363Y63174759D01*
X29968320Y62939727D01*
X29860147Y62678574D01*
X29805000Y62401335D01*
X29805000Y62118665D01*
X29860147Y61841426D01*
X29968320Y61580273D01*
X30125363Y61345241D01*
X30325241Y61145363D01*
X30557759Y60990000D01*
X30325241Y60834637D01*
X30125363Y60634759D01*
X29968320Y60399727D01*
X29860147Y60138574D01*
X29805000Y59861335D01*
X29805000Y59578665D01*
X29860147Y59301426D01*
X29865354Y59288856D01*
X29814637Y59364759D01*
X29614759Y59564637D01*
X29379727Y59721680D01*
X29118574Y59829853D01*
X28841335Y59885000D01*
X28558665Y59885000D01*
X28281426Y59829853D01*
X28020273Y59721680D01*
X27785241Y59564637D01*
X27585363Y59364759D01*
X27428320Y59129727D01*
X27320147Y58868574D01*
X27265000Y58591335D01*
X27265000Y58308665D01*
X27320147Y58031426D01*
X27428320Y57770273D01*
X27585363Y57535241D01*
X27785241Y57335363D01*
X28017759Y57180000D01*
X27785241Y57024637D01*
X27585363Y56824759D01*
X27428320Y56589727D01*
X27320147Y56328574D01*
X27265000Y56051335D01*
X27265000Y55768665D01*
X27320147Y55491426D01*
X27428320Y55230273D01*
X27585363Y54995241D01*
X27785241Y54795363D01*
X28020273Y54638320D01*
X28281426Y54530147D01*
X28558665Y54475000D01*
X28841335Y54475000D01*
X29118574Y54530147D01*
X29379727Y54638320D01*
X29614759Y54795363D01*
X29814637Y54995241D01*
X29865354Y55071144D01*
X29860147Y55058574D01*
X29805000Y54781335D01*
X29805000Y54498665D01*
X29860147Y54221426D01*
X29968320Y53960273D01*
X30125363Y53725241D01*
X30325241Y53525363D01*
X30557759Y53370000D01*
X30325241Y53214637D01*
X30125363Y53014759D01*
X29968320Y52779727D01*
X29860147Y52518574D01*
X29805000Y52241335D01*
X29805000Y51958665D01*
X29860147Y51681426D01*
X29968320Y51420273D01*
X30125363Y51185241D01*
X30325241Y50985363D01*
X30557759Y50830000D01*
X30325241Y50674637D01*
X30125363Y50474759D01*
X29968320Y50239727D01*
X29860147Y49978574D01*
X29805000Y49701335D01*
X29805000Y49418665D01*
X29860147Y49141426D01*
X29968320Y48880273D01*
X30125363Y48645241D01*
X30325241Y48445363D01*
X30560273Y48288320D01*
X30821426Y48180147D01*
X31098665Y48125000D01*
X31381335Y48125000D01*
X31658574Y48180147D01*
X31919727Y48288320D01*
X32154759Y48445363D01*
X32285125Y48575729D01*
X33914246Y46946607D01*
X33937262Y46918562D01*
X34049180Y46826713D01*
X34176867Y46758463D01*
X34315415Y46716435D01*
X34423395Y46705800D01*
X34423404Y46705800D01*
X34459499Y46702245D01*
X34495594Y46705800D01*
X54544995Y46705800D01*
X54581100Y46702244D01*
X54617205Y46705800D01*
X54725185Y46716435D01*
X54863733Y46758463D01*
X54991420Y46826713D01*
X55103338Y46918562D01*
X55126358Y46946612D01*
X56453320Y48273573D01*
X56468368Y48258525D01*
X56711589Y48096010D01*
X56981842Y47984068D01*
X57268740Y47927000D01*
X57561260Y47927000D01*
X57848158Y47984068D01*
X58118411Y48096010D01*
X58361632Y48258525D01*
X58568475Y48465368D01*
X58730990Y48708589D01*
X58842932Y48978842D01*
X58900000Y49265740D01*
X58900000Y49558260D01*
X58842932Y49845158D01*
X58730990Y50115411D01*
X58568475Y50358632D01*
X58361632Y50565475D01*
X58118411Y50727990D01*
X57848158Y50839932D01*
X57561260Y50897000D01*
X57268740Y50897000D01*
X56981842Y50839932D01*
X56711589Y50727990D01*
X56468368Y50565475D01*
X56261525Y50358632D01*
X56145000Y50184240D01*
X56028475Y50358632D01*
X55821632Y50565475D01*
X55578411Y50727990D01*
X55308158Y50839932D01*
X55021260Y50897000D01*
X54728740Y50897000D01*
X54441842Y50839932D01*
X54171589Y50727990D01*
X53928368Y50565475D01*
X53721525Y50358632D01*
X53605000Y50184240D01*
X53488475Y50358632D01*
X53281632Y50565475D01*
X53070000Y50706883D01*
X53070000Y55450254D01*
X56004193Y58384446D01*
X56032238Y58407462D01*
X56124087Y58519380D01*
X56192337Y58647067D01*
X56227811Y58764010D01*
X56231472Y58776078D01*
X56456632Y58926525D01*
X56663475Y59133368D01*
X56780000Y59307760D01*
X56896525Y59133368D01*
X57103368Y58926525D01*
X57346589Y58764010D01*
X57616842Y58652068D01*
X57903740Y58595000D01*
X58196260Y58595000D01*
X58483158Y58652068D01*
X58753411Y58764010D01*
X58996632Y58926525D01*
X59203475Y59133368D01*
X59320000Y59307760D01*
X59436525Y59133368D01*
X59643368Y58926525D01*
X59886589Y58764010D01*
X60156842Y58652068D01*
X60443740Y58595000D01*
X60736260Y58595000D01*
X61023158Y58652068D01*
X61293411Y58764010D01*
X61536632Y58926525D01*
X61743475Y59133368D01*
X61905990Y59376589D01*
X62017932Y59646842D01*
X62075000Y59933740D01*
X62075000Y60226260D01*
X62017932Y60513158D01*
X61905990Y60783411D01*
X61743475Y61026632D01*
X61536632Y61233475D01*
X61293411Y61395990D01*
X61023158Y61507932D01*
X60736260Y61565000D01*
X60443740Y61565000D01*
X60156842Y61507932D01*
X59886589Y61395990D01*
X59643368Y61233475D01*
X59436525Y61026632D01*
X59320000Y60852240D01*
X59203475Y61026632D01*
X58996632Y61233475D01*
X58753411Y61395990D01*
X58483158Y61507932D01*
X58196260Y61565000D01*
X57903740Y61565000D01*
X57616842Y61507932D01*
X57346589Y61395990D01*
X57103368Y61233475D01*
X56896525Y61026632D01*
X56780000Y60852240D01*
X56663475Y61026632D01*
X56456632Y61233475D01*
X56213411Y61395990D01*
X55943158Y61507932D01*
X55656260Y61565000D01*
X55363740Y61565000D01*
X55076842Y61507932D01*
X54806589Y61395990D01*
X54563368Y61233475D01*
X54356525Y61026632D01*
X54240000Y60852240D01*
X54123475Y61026632D01*
X53916632Y61233475D01*
X53673411Y61395990D01*
X53403158Y61507932D01*
X53116260Y61565000D01*
X52823740Y61565000D01*
X52536842Y61507932D01*
X52266589Y61395990D01*
X52023368Y61233475D01*
X51816525Y61026632D01*
X51700000Y60852240D01*
X51583475Y61026632D01*
X51376632Y61233475D01*
X51133411Y61395990D01*
X50863158Y61507932D01*
X50576260Y61565000D01*
X50283740Y61565000D01*
X49996842Y61507932D01*
X49726589Y61395990D01*
X49483368Y61233475D01*
X49276525Y61026632D01*
X49154805Y60844466D01*
X49085178Y60961355D01*
X48890269Y61177588D01*
X48656920Y61351641D01*
X48394099Y61476825D01*
X48246890Y61521476D01*
X48017000Y61400155D01*
X48017000Y60207000D01*
X48037000Y60207000D01*
X48037000Y59953000D01*
X48017000Y59953000D01*
X48017000Y58759845D01*
X48246890Y58638524D01*
X48394099Y58683175D01*
X48656920Y58808359D01*
X48890269Y58982412D01*
X49085178Y59198645D01*
X49154805Y59315534D01*
X49276525Y59133368D01*
X49483368Y58926525D01*
X49726589Y58764010D01*
X49996842Y58652068D01*
X50283740Y58595000D01*
X50576260Y58595000D01*
X50863158Y58652068D01*
X51133411Y58764010D01*
X51376632Y58926525D01*
X51583475Y59133368D01*
X51700000Y59307760D01*
X51816525Y59133368D01*
X51975373Y58974520D01*
X49300808Y56299954D01*
X49272763Y56276938D01*
X49180914Y56165020D01*
X49127646Y56065363D01*
X49112664Y56037333D01*
X49070635Y55898785D01*
X49056444Y55754700D01*
X49060001Y55718585D01*
X49060000Y50706883D01*
X48848368Y50565475D01*
X48641525Y50358632D01*
X48525000Y50184240D01*
X48408475Y50358632D01*
X48201632Y50565475D01*
X47958411Y50727990D01*
X47688158Y50839932D01*
X47401260Y50897000D01*
X47108740Y50897000D01*
X46821842Y50839932D01*
X46551589Y50727990D01*
X46308368Y50565475D01*
X46176513Y50433620D01*
X46154502Y50506180D01*
X46095537Y50616494D01*
X46016185Y50713185D01*
X45919494Y50792537D01*
X45809180Y50851502D01*
X45689482Y50887812D01*
X45565000Y50900072D01*
X45000750Y50897000D01*
X44842000Y50738250D01*
X44842000Y49539000D01*
X44862000Y49539000D01*
X44862000Y49285000D01*
X44842000Y49285000D01*
X44842000Y49265000D01*
X44588000Y49265000D01*
X44588000Y49285000D01*
X43388750Y49285000D01*
X43230000Y49126250D01*
X43229273Y48992700D01*
X39027047Y48992700D01*
X37757747Y50262000D01*
X43226928Y50262000D01*
X43230000Y49697750D01*
X43388750Y49539000D01*
X44588000Y49539000D01*
X44588000Y50738250D01*
X44429250Y50897000D01*
X43865000Y50900072D01*
X43740518Y50887812D01*
X43620820Y50851502D01*
X43510506Y50792537D01*
X43413815Y50713185D01*
X43334463Y50616494D01*
X43275498Y50506180D01*
X43239188Y50386482D01*
X43226928Y50262000D01*
X37757747Y50262000D01*
X32885559Y55134187D01*
X32862538Y55162238D01*
X32750620Y55254087D01*
X32622933Y55322337D01*
X32484385Y55364365D01*
X32481676Y55364632D01*
X32354637Y55554759D01*
X32154759Y55754637D01*
X31922241Y55910000D01*
X32154759Y56065363D01*
X32354637Y56265241D01*
X32511680Y56500273D01*
X32619853Y56761426D01*
X32675000Y57038665D01*
X32675000Y57321335D01*
X32619853Y57598574D01*
X32511680Y57859727D01*
X32354637Y58094759D01*
X32154759Y58294637D01*
X31922241Y58450000D01*
X32154759Y58605363D01*
X32354637Y58805241D01*
X32511680Y59040273D01*
X32619853Y59301426D01*
X32675000Y59578665D01*
X32675000Y59861335D01*
X32619853Y60138574D01*
X32511680Y60399727D01*
X32354637Y60634759D01*
X32154759Y60834637D01*
X31922241Y60990000D01*
X32154759Y61145363D01*
X32354637Y61345241D01*
X32511680Y61580273D01*
X32619853Y61841426D01*
X32675000Y62118665D01*
X32675000Y62401335D01*
X32619853Y62678574D01*
X32511680Y62939727D01*
X32354637Y63174759D01*
X32154759Y63374637D01*
X31922241Y63530000D01*
X32154759Y63685363D01*
X32354637Y63885241D01*
X32511680Y64120273D01*
X32619853Y64381426D01*
X32675000Y64658665D01*
X32675000Y64941335D01*
X32619853Y65218574D01*
X32511680Y65479727D01*
X32354637Y65714759D01*
X32154759Y65914637D01*
X31922241Y66070000D01*
X32154759Y66225363D01*
X32354637Y66425241D01*
X32511680Y66660273D01*
X32619853Y66921426D01*
X32675000Y67198665D01*
X32675000Y67481335D01*
X32619853Y67758574D01*
X32590858Y67828575D01*
X39006950Y61412481D01*
X38968815Y61381185D01*
X38889463Y61284494D01*
X38830498Y61174180D01*
X38794188Y61054482D01*
X38781928Y60930000D01*
X38781928Y59230000D01*
X38794188Y59105518D01*
X38830498Y58985820D01*
X38889463Y58875506D01*
X38968815Y58778815D01*
X39065506Y58699463D01*
X39175820Y58640498D01*
X39295518Y58604188D01*
X39420000Y58591928D01*
X41120000Y58591928D01*
X41244482Y58604188D01*
X41364180Y58640498D01*
X41474494Y58699463D01*
X41571185Y58778815D01*
X41650537Y58875506D01*
X41709502Y58985820D01*
X41731513Y59058380D01*
X41863368Y58926525D01*
X42106589Y58764010D01*
X42376842Y58652068D01*
X42663740Y58595000D01*
X42956260Y58595000D01*
X43243158Y58652068D01*
X43513411Y58764010D01*
X43756632Y58926525D01*
X43963475Y59133368D01*
X44080000Y59307760D01*
X44196525Y59133368D01*
X44403368Y58926525D01*
X44646589Y58764010D01*
X44916842Y58652068D01*
X45203740Y58595000D01*
X45496260Y58595000D01*
X45783158Y58652068D01*
X46053411Y58764010D01*
X46296632Y58926525D01*
X46503475Y59133368D01*
X46625195Y59315534D01*
X46694822Y59198645D01*
X46889731Y58982412D01*
X47123080Y58808359D01*
X47385901Y58683175D01*
X47533110Y58638524D01*
X47763000Y58759845D01*
X47763000Y59953000D01*
X47743000Y59953000D01*
X47743000Y60207000D01*
X47763000Y60207000D01*
X47763000Y61400155D01*
X47533110Y61521476D01*
X47385901Y61476825D01*
X47123080Y61351641D01*
X46889731Y61177588D01*
X46694822Y60961355D01*
X46625195Y60844466D01*
X46503475Y61026632D01*
X46296632Y61233475D01*
X46053411Y61395990D01*
X45783158Y61507932D01*
X45496260Y61565000D01*
X45203740Y61565000D01*
X44916842Y61507932D01*
X44646589Y61395990D01*
X44403368Y61233475D01*
X44196525Y61026632D01*
X44080000Y60852240D01*
X43963475Y61026632D01*
X43756632Y61233475D01*
X43513411Y61395990D01*
X43243158Y61507932D01*
X42956260Y61565000D01*
X42663740Y61565000D01*
X42376842Y61507932D01*
X42106589Y61395990D01*
X41863368Y61233475D01*
X41731513Y61101620D01*
X41709502Y61174180D01*
X41650537Y61284494D01*
X41571185Y61381185D01*
X41474494Y61460537D01*
X41364180Y61519502D01*
X41244482Y61555812D01*
X41120000Y61568072D01*
X41070445Y61568072D01*
X41045172Y61651387D01*
X40967636Y61796446D01*
X40889439Y61891730D01*
X40889437Y61891732D01*
X40863291Y61923591D01*
X40831432Y61949737D01*
X33275300Y69505867D01*
X33275300Y69838981D01*
X33279340Y69880000D01*
X33263218Y70043689D01*
X33215472Y70201087D01*
X33137936Y70346146D01*
X33033591Y70473291D01*
X32906446Y70577636D01*
X32761387Y70655172D01*
X32603989Y70702918D01*
X32481319Y70715000D01*
X32440300Y70719040D01*
X32407396Y70715799D01*
X32354637Y70794759D01*
X32154759Y70994637D01*
X31922241Y71150000D01*
X32154759Y71305363D01*
X32354637Y71505241D01*
X32511680Y71740273D01*
X32619853Y72001426D01*
X32675000Y72278665D01*
X32675000Y72561335D01*
X32619853Y72838574D01*
X32511680Y73099727D01*
X32354637Y73334759D01*
X32154759Y73534637D01*
X31919727Y73691680D01*
X31909135Y73696067D01*
X32095131Y73807615D01*
X32303519Y73996586D01*
X32471037Y74222580D01*
X32591246Y74476913D01*
X32631904Y74610961D01*
X32509915Y74833000D01*
X31367000Y74833000D01*
X31367000Y74813000D01*
X31113000Y74813000D01*
X31113000Y74833000D01*
X29970085Y74833000D01*
X29848096Y74610961D01*
X29888754Y74476913D01*
X30008963Y74222580D01*
X30176481Y73996586D01*
X30384869Y73807615D01*
X30570865Y73696067D01*
X30560273Y73691680D01*
X30325241Y73534637D01*
X30125363Y73334759D01*
X29968320Y73099727D01*
X29860147Y72838574D01*
X29805000Y72561335D01*
X29805000Y72278665D01*
X29860147Y72001426D01*
X29968320Y71740273D01*
X30125363Y71505241D01*
X30325241Y71305363D01*
X30557759Y71150000D01*
X30325241Y70994637D01*
X30125363Y70794759D01*
X29968320Y70559727D01*
X29860147Y70298574D01*
X29805000Y70021335D01*
X29805000Y69738665D01*
X29860147Y69461426D01*
X29865354Y69448856D01*
X29814637Y69524759D01*
X29614759Y69724637D01*
X29379727Y69881680D01*
X29118574Y69989853D01*
X28841335Y70045000D01*
X28558665Y70045000D01*
X28281426Y69989853D01*
X28020273Y69881680D01*
X27785241Y69724637D01*
X27585363Y69524759D01*
X27428320Y69289727D01*
X27320147Y69028574D01*
X27265000Y68751335D01*
X16893764Y68751335D01*
X16914759Y68765363D01*
X17114637Y68965241D01*
X17271680Y69200273D01*
X17379853Y69461426D01*
X17435000Y69738665D01*
X17435000Y70021335D01*
X17379853Y70298574D01*
X17271680Y70559727D01*
X17114637Y70794759D01*
X16914759Y70994637D01*
X16682241Y71150000D01*
X16914759Y71305363D01*
X17114637Y71505241D01*
X17271680Y71740273D01*
X17379853Y72001426D01*
X17435000Y72278665D01*
X17435000Y72561335D01*
X17379853Y72838574D01*
X17271680Y73099727D01*
X17114637Y73334759D01*
X16914759Y73534637D01*
X16682241Y73690000D01*
X16914759Y73845363D01*
X17114637Y74045241D01*
X17271680Y74280273D01*
X17379853Y74541426D01*
X17435000Y74818665D01*
X17435000Y75101335D01*
X17379853Y75378574D01*
X17271680Y75639727D01*
X17114637Y75874759D01*
X16916039Y76073357D01*
X16924482Y76074188D01*
X17044180Y76110498D01*
X17154494Y76169463D01*
X17251185Y76248815D01*
X17330537Y76345506D01*
X17389502Y76455820D01*
X17425812Y76575518D01*
X17438072Y76700000D01*
X17438072Y77641335D01*
X29805000Y77641335D01*
X29805000Y77358665D01*
X29860147Y77081426D01*
X29968320Y76820273D01*
X30125363Y76585241D01*
X30325241Y76385363D01*
X30560273Y76228320D01*
X30570865Y76223933D01*
X30384869Y76112385D01*
X30176481Y75923414D01*
X30008963Y75697420D01*
X29888754Y75443087D01*
X29848096Y75309039D01*
X29970085Y75087000D01*
X31113000Y75087000D01*
X31113000Y75107000D01*
X31367000Y75107000D01*
X31367000Y75087000D01*
X32509915Y75087000D01*
X32631904Y75309039D01*
X32591246Y75443087D01*
X32471037Y75697420D01*
X32303519Y75923414D01*
X32095131Y76112385D01*
X31909135Y76223933D01*
X31919727Y76228320D01*
X32154759Y76385363D01*
X32354637Y76585241D01*
X32511680Y76820273D01*
X32619853Y77081426D01*
X32675000Y77358665D01*
X32675000Y77641335D01*
X32619853Y77918574D01*
X32511680Y78179727D01*
X32354637Y78414759D01*
X32154759Y78614637D01*
X31919727Y78771680D01*
X31658574Y78879853D01*
X31381335Y78935000D01*
X31098665Y78935000D01*
X30821426Y78879853D01*
X30560273Y78771680D01*
X30325241Y78614637D01*
X30125363Y78414759D01*
X29968320Y78179727D01*
X29860147Y77918574D01*
X29805000Y77641335D01*
X17438072Y77641335D01*
X17438072Y78300000D01*
X17425812Y78424482D01*
X17389502Y78544180D01*
X17330537Y78654494D01*
X17251185Y78751185D01*
X17154494Y78830537D01*
X17044180Y78889502D01*
X16924482Y78925812D01*
X16800000Y78938072D01*
X15200000Y78938072D01*
X15075518Y78925812D01*
X14955820Y78889502D01*
X14845506Y78830537D01*
X14748815Y78751185D01*
X14669463Y78654494D01*
X14610498Y78544180D01*
X14574188Y78424482D01*
X14561928Y78300000D01*
X14561928Y76700000D01*
X14574188Y76575518D01*
X14610498Y76455820D01*
X14669463Y76345506D01*
X14748815Y76248815D01*
X14845506Y76169463D01*
X14955820Y76110498D01*
X15075518Y76074188D01*
X15083961Y76073357D01*
X14885363Y75874759D01*
X14728320Y75639727D01*
X14620147Y75378574D01*
X14565000Y75101335D01*
X14565000Y74818665D01*
X14620147Y74541426D01*
X14728320Y74280273D01*
X14885363Y74045241D01*
X15085241Y73845363D01*
X15317759Y73690000D01*
X15085241Y73534637D01*
X14885363Y73334759D01*
X14728320Y73099727D01*
X14620147Y72838574D01*
X14565000Y72561335D01*
X14565000Y72278665D01*
X14620147Y72001426D01*
X14728320Y71740273D01*
X14885363Y71505241D01*
X15085241Y71305363D01*
X15317759Y71150000D01*
X15085241Y70994637D01*
X14885363Y70794759D01*
X14728320Y70559727D01*
X14620147Y70298574D01*
X14565000Y70021335D01*
X14565000Y69738665D01*
X14620147Y69461426D01*
X14728320Y69200273D01*
X14885363Y68965241D01*
X15085241Y68765363D01*
X15317759Y68610000D01*
X15085241Y68454637D01*
X14885363Y68254759D01*
X14728320Y68019727D01*
X14620147Y67758574D01*
X14565000Y67481335D01*
X14565000Y67198665D01*
X14620147Y66921426D01*
X14728320Y66660273D01*
X14885363Y66425241D01*
X15085241Y66225363D01*
X15317759Y66070000D01*
X15085241Y65914637D01*
X14885363Y65714759D01*
X14728320Y65479727D01*
X14620147Y65218574D01*
X14565000Y64941335D01*
X14565000Y64658665D01*
X14620147Y64381426D01*
X14728320Y64120273D01*
X14885363Y63885241D01*
X15085241Y63685363D01*
X15317759Y63530000D01*
X15085241Y63374637D01*
X14885363Y63174759D01*
X14728320Y62939727D01*
X14620147Y62678574D01*
X14565000Y62401335D01*
X14565000Y62118665D01*
X14620147Y61841426D01*
X14728320Y61580273D01*
X14885363Y61345241D01*
X15085241Y61145363D01*
X15317759Y60990000D01*
X15085241Y60834637D01*
X14885363Y60634759D01*
X14728320Y60399727D01*
X14620147Y60138574D01*
X14565000Y59861335D01*
X14565000Y59578665D01*
X14620147Y59301426D01*
X14728320Y59040273D01*
X14885363Y58805241D01*
X14951379Y58739225D01*
X14375808Y58163654D01*
X14347762Y58140637D01*
X14255913Y58028719D01*
X14187663Y57901032D01*
X14158656Y57805407D01*
X14145635Y57762485D01*
X14131444Y57618400D01*
X660000Y57618400D01*
X660000Y89340000D01*
X39576270Y89340000D01*
X39566589Y89335990D01*
G04 #@! TA.AperFunction,Conductor*
D20*
G36*
X39566589Y89335990D02*
G01*
X39323368Y89173475D01*
X39116525Y88966632D01*
X38954010Y88723411D01*
X38842068Y88453158D01*
X38785000Y88166260D01*
X38785000Y87873740D01*
X38842068Y87586842D01*
X38954010Y87316589D01*
X39116525Y87073368D01*
X39323368Y86866525D01*
X39497760Y86750000D01*
X39323368Y86633475D01*
X39116525Y86426632D01*
X38954010Y86183411D01*
X38842068Y85913158D01*
X38785000Y85626260D01*
X38785000Y85333740D01*
X38842068Y85046842D01*
X38954010Y84776589D01*
X39116525Y84533368D01*
X39323368Y84326525D01*
X39566589Y84164010D01*
X39836842Y84052068D01*
X40123740Y83995000D01*
X40416260Y83995000D01*
X40703158Y84052068D01*
X40973411Y84164010D01*
X41216632Y84326525D01*
X41423475Y84533368D01*
X41585990Y84776589D01*
X41697932Y85046842D01*
X41755000Y85333740D01*
X41755000Y85626260D01*
X41697932Y85913158D01*
X41585990Y86183411D01*
X41423475Y86426632D01*
X41216632Y86633475D01*
X41042240Y86750000D01*
X41216632Y86866525D01*
X41423475Y87073368D01*
X41585990Y87316589D01*
X41697932Y87586842D01*
X41755000Y87873740D01*
X41755000Y88166260D01*
X41697932Y88453158D01*
X41585990Y88723411D01*
X41423475Y88966632D01*
X41216632Y89173475D01*
X40973411Y89335990D01*
X40963730Y89340000D01*
X59896270Y89340000D01*
X59886589Y89335990D01*
X59643368Y89173475D01*
X59436525Y88966632D01*
X59274010Y88723411D01*
X59162068Y88453158D01*
X59105000Y88166260D01*
X59105000Y87873740D01*
X59162068Y87586842D01*
X59274010Y87316589D01*
X59436525Y87073368D01*
X59643368Y86866525D01*
X59817760Y86750000D01*
X59643368Y86633475D01*
X59436525Y86426632D01*
X59274010Y86183411D01*
X59162068Y85913158D01*
X59105000Y85626260D01*
X59105000Y85333740D01*
X59162068Y85046842D01*
X59274010Y84776589D01*
X59436525Y84533368D01*
X59643368Y84326525D01*
X59886589Y84164010D01*
X60156842Y84052068D01*
X60443740Y83995000D01*
X60736260Y83995000D01*
X61023158Y84052068D01*
X61293411Y84164010D01*
X61536632Y84326525D01*
X61743475Y84533368D01*
X61905990Y84776589D01*
X62017932Y85046842D01*
X62075000Y85333740D01*
X62075000Y85626260D01*
X62017932Y85913158D01*
X61905990Y86183411D01*
X61743475Y86426632D01*
X61536632Y86633475D01*
X61362240Y86750000D01*
X61536632Y86866525D01*
X61743475Y87073368D01*
X61905990Y87316589D01*
X62017932Y87586842D01*
X62075000Y87873740D01*
X62075000Y88166260D01*
X62017932Y88453158D01*
X61905990Y88723411D01*
X61743475Y88966632D01*
X61536632Y89173475D01*
X61293411Y89335990D01*
X61283730Y89340000D01*
X67840001Y89340000D01*
X67840000Y660000D01*
X660000Y660000D01*
X660000Y4643109D01*
X3018519Y4643109D01*
X3115843Y4368748D01*
X3264822Y4118645D01*
X3459731Y3902412D01*
X3693080Y3728359D01*
X3955901Y3603175D01*
X4103110Y3558524D01*
X4333000Y3679845D01*
X4333000Y4873000D01*
X3139186Y4873000D01*
X3018519Y4643109D01*
X660000Y4643109D01*
X660000Y5356891D01*
X3018519Y5356891D01*
X3139186Y5127000D01*
X4333000Y5127000D01*
X4333000Y6320155D01*
X4587000Y6320155D01*
X4587000Y5127000D01*
X4607000Y5127000D01*
X4607000Y4873000D01*
X4587000Y4873000D01*
X4587000Y3679845D01*
X4816890Y3558524D01*
X4964099Y3603175D01*
X5226920Y3728359D01*
X5460269Y3902412D01*
X5536034Y3986466D01*
X5560498Y3905820D01*
X5619463Y3795506D01*
X5698815Y3698815D01*
X5795506Y3619463D01*
X5905820Y3560498D01*
X6025518Y3524188D01*
X6150000Y3511928D01*
X7850000Y3511928D01*
X7974482Y3524188D01*
X8094180Y3560498D01*
X8204494Y3619463D01*
X8301185Y3698815D01*
X8380537Y3795506D01*
X8439502Y3905820D01*
X8475812Y4025518D01*
X8488072Y4150000D01*
X8488072Y4347135D01*
X8560620Y4385913D01*
X8672538Y4477762D01*
X8695558Y4505812D01*
X9480047Y5290300D01*
X14136928Y5290300D01*
X14136928Y3325000D01*
X14149188Y3200518D01*
X14185498Y3080820D01*
X14244463Y2970506D01*
X14323815Y2873815D01*
X14420506Y2794463D01*
X14530820Y2735498D01*
X14650518Y2699188D01*
X14775000Y2686928D01*
X16375000Y2686928D01*
X16499482Y2699188D01*
X16619180Y2735498D01*
X16729494Y2794463D01*
X16826185Y2873815D01*
X16905537Y2970506D01*
X16964502Y3080820D01*
X17000812Y3200518D01*
X17002581Y3218483D01*
X17095393Y3105392D01*
X17313900Y2926068D01*
X17563193Y2792818D01*
X17833692Y2710764D01*
X18115000Y2683057D01*
X18396309Y2710764D01*
X18666808Y2792818D01*
X18916101Y2926068D01*
X19134608Y3105392D01*
X19313932Y3323899D01*
X19385000Y3456858D01*
X19456068Y3323899D01*
X19635393Y3105392D01*
X19853900Y2926068D01*
X20103193Y2792818D01*
X20373692Y2710764D01*
X20655000Y2683057D01*
X20936309Y2710764D01*
X21206808Y2792818D01*
X21456101Y2926068D01*
X21674608Y3105392D01*
X21853932Y3323899D01*
X21925000Y3456858D01*
X21996068Y3323899D01*
X22175393Y3105392D01*
X22393900Y2926068D01*
X22643193Y2792818D01*
X22913692Y2710764D01*
X23195000Y2683057D01*
X23476309Y2710764D01*
X23746808Y2792818D01*
X23996101Y2926068D01*
X24214608Y3105392D01*
X24393932Y3323899D01*
X24465000Y3456858D01*
X24536068Y3323899D01*
X24715393Y3105392D01*
X24933900Y2926068D01*
X25183193Y2792818D01*
X25453692Y2710764D01*
X25735000Y2683057D01*
X26016309Y2710764D01*
X26286808Y2792818D01*
X26536101Y2926068D01*
X26754608Y3105392D01*
X26933932Y3323899D01*
X27005000Y3456858D01*
X27076068Y3323899D01*
X27255393Y3105392D01*
X27473900Y2926068D01*
X27723193Y2792818D01*
X27993692Y2710764D01*
X28275000Y2683057D01*
X28556309Y2710764D01*
X28826808Y2792818D01*
X29076101Y2926068D01*
X29294608Y3105392D01*
X29473932Y3323899D01*
X29545000Y3456858D01*
X29616068Y3323899D01*
X29795393Y3105392D01*
X30013900Y2926068D01*
X30263193Y2792818D01*
X30533692Y2710764D01*
X30815000Y2683057D01*
X31096309Y2710764D01*
X31366808Y2792818D01*
X31616101Y2926068D01*
X31834608Y3105392D01*
X32013932Y3323899D01*
X32085000Y3456858D01*
X32156068Y3323899D01*
X32335393Y3105392D01*
X32553900Y2926068D01*
X32803193Y2792818D01*
X33073692Y2710764D01*
X33355000Y2683057D01*
X33636309Y2710764D01*
X33906808Y2792818D01*
X34156101Y2926068D01*
X34374608Y3105392D01*
X34553932Y3323899D01*
X34625000Y3456858D01*
X34696068Y3323899D01*
X34875393Y3105392D01*
X35093900Y2926068D01*
X35343193Y2792818D01*
X35613692Y2710764D01*
X35895000Y2683057D01*
X36176309Y2710764D01*
X36446808Y2792818D01*
X36696101Y2926068D01*
X36914608Y3105392D01*
X37093932Y3323899D01*
X37165000Y3456858D01*
X37236068Y3323899D01*
X37415393Y3105392D01*
X37633900Y2926068D01*
X37883193Y2792818D01*
X38153692Y2710764D01*
X38435000Y2683057D01*
X38716309Y2710764D01*
X38986808Y2792818D01*
X39236101Y2926068D01*
X39454608Y3105392D01*
X39633932Y3323899D01*
X39702265Y3451741D01*
X39852399Y3222161D01*
X40050105Y3020500D01*
X40283354Y2861285D01*
X40543182Y2750633D01*
X40625961Y2733096D01*
X40848000Y2855085D01*
X40848000Y4398000D01*
X40828000Y4398000D01*
X40828000Y4652000D01*
X40848000Y4652000D01*
X40848000Y6194915D01*
X40625961Y6316904D01*
X40543182Y6299367D01*
X40283354Y6188715D01*
X40050105Y6029500D01*
X39852399Y5827839D01*
X39702265Y5598259D01*
X39633932Y5726101D01*
X39454607Y5944608D01*
X39236100Y6123932D01*
X38986807Y6257182D01*
X38716308Y6339236D01*
X38435000Y6366943D01*
X38153691Y6339236D01*
X37883192Y6257182D01*
X37633899Y6123932D01*
X37415392Y5944607D01*
X37236068Y5726100D01*
X37165000Y5593142D01*
X37093932Y5726101D01*
X36914607Y5944608D01*
X36696100Y6123932D01*
X36446807Y6257182D01*
X36176308Y6339236D01*
X35895000Y6366943D01*
X35613691Y6339236D01*
X35343192Y6257182D01*
X35093899Y6123932D01*
X34875392Y5944607D01*
X34696068Y5726100D01*
X34625000Y5593142D01*
X34553932Y5726101D01*
X34374607Y5944608D01*
X34156100Y6123932D01*
X33906807Y6257182D01*
X33636308Y6339236D01*
X33355000Y6366943D01*
X33073691Y6339236D01*
X32803192Y6257182D01*
X32553899Y6123932D01*
X32335392Y5944607D01*
X32156068Y5726100D01*
X32085000Y5593142D01*
X32013932Y5726101D01*
X31834607Y5944608D01*
X31616100Y6123932D01*
X31539826Y6164701D01*
X31539365Y6169385D01*
X31497337Y6307933D01*
X31429087Y6435620D01*
X31337238Y6547538D01*
X31225320Y6639387D01*
X31097633Y6707637D01*
X30959085Y6749665D01*
X30851105Y6760300D01*
X30815000Y6763856D01*
X30778895Y6760300D01*
X9211696Y6760300D01*
X9175599Y6763855D01*
X9139502Y6760300D01*
X9139495Y6760300D01*
X9045732Y6751065D01*
X9031514Y6749665D01*
X8989486Y6736916D01*
X8892967Y6707637D01*
X8765280Y6639387D01*
X8653362Y6547538D01*
X8630347Y6519494D01*
X8351153Y6240299D01*
X8301185Y6301185D01*
X8204494Y6380537D01*
X8094180Y6439502D01*
X7974482Y6475812D01*
X7850000Y6488072D01*
X6150000Y6488072D01*
X6025518Y6475812D01*
X5905820Y6439502D01*
X5795506Y6380537D01*
X5698815Y6301185D01*
X5619463Y6204494D01*
X5560498Y6094180D01*
X5536034Y6013534D01*
X5460269Y6097588D01*
X5226920Y6271641D01*
X4964099Y6396825D01*
X4816890Y6441476D01*
X4587000Y6320155D01*
X4333000Y6320155D01*
X4103110Y6441476D01*
X3955901Y6396825D01*
X3693080Y6271641D01*
X3459731Y6097588D01*
X3264822Y5881355D01*
X3115843Y5631252D01*
X3018519Y5356891D01*
X660000Y5356891D01*
X660000Y57618400D01*
X14131444Y57618400D01*
X14135000Y57582295D01*
X14135001Y53266115D01*
X14131444Y53230000D01*
X14145635Y53085915D01*
X14187664Y52947367D01*
X14255914Y52819680D01*
X14347763Y52707762D01*
X14375808Y52684746D01*
X14607178Y52453376D01*
X14565000Y52241335D01*
X14565000Y51958665D01*
X14620147Y51681426D01*
X14728320Y51420273D01*
X14885363Y51185241D01*
X15085241Y50985363D01*
X15317759Y50830000D01*
X15085241Y50674637D01*
X14885363Y50474759D01*
X14728320Y50239727D01*
X14620147Y49978574D01*
X14565000Y49701335D01*
X14565000Y49418665D01*
X14620147Y49141426D01*
X14728320Y48880273D01*
X14885363Y48645241D01*
X15085241Y48445363D01*
X15320273Y48288320D01*
X15581426Y48180147D01*
X15858665Y48125000D01*
X16141335Y48125000D01*
X16418574Y48180147D01*
X16679727Y48288320D01*
X16914759Y48445363D01*
X17069325Y48599929D01*
X25013027Y40656227D01*
X24933899Y40613932D01*
X24715392Y40434607D01*
X24536068Y40216100D01*
X24465000Y40083142D01*
X24393932Y40216101D01*
X24214607Y40434608D01*
X23996100Y40613932D01*
X23746807Y40747182D01*
X23476308Y40829236D01*
X23195000Y40856943D01*
X22913691Y40829236D01*
X22643192Y40747182D01*
X22393899Y40613932D01*
X22175392Y40434607D01*
X21996068Y40216100D01*
X21925000Y40083142D01*
X21853932Y40216101D01*
X21674607Y40434608D01*
X21456100Y40613932D01*
X21206807Y40747182D01*
X20936308Y40829236D01*
X20655000Y40856943D01*
X20373691Y40829236D01*
X20103192Y40747182D01*
X19853899Y40613932D01*
X19635392Y40434607D01*
X19456068Y40216100D01*
X19385000Y40083142D01*
X19313932Y40216101D01*
X19134607Y40434608D01*
X18916100Y40613932D01*
X18666807Y40747182D01*
X18396308Y40829236D01*
X18115000Y40856943D01*
X17833691Y40829236D01*
X17563192Y40747182D01*
X17313899Y40613932D01*
X17095392Y40434607D01*
X16916068Y40216100D01*
X16845000Y40083142D01*
X16773932Y40216101D01*
X16594607Y40434608D01*
X16376100Y40613932D01*
X16126807Y40747182D01*
X15856308Y40829236D01*
X15575000Y40856943D01*
X15293691Y40829236D01*
X15023192Y40747182D01*
X14773899Y40613932D01*
X14555392Y40434607D01*
X14376068Y40216100D01*
X14242818Y39966807D01*
X14160764Y39696308D01*
X14140000Y39485491D01*
X14140000Y38544508D01*
X14160764Y38333691D01*
X14242818Y38063192D01*
X14376068Y37813899D01*
X14555393Y37595392D01*
X14773900Y37416068D01*
X15023193Y37282818D01*
X15293692Y37200764D01*
X15575000Y37173057D01*
X15856309Y37200764D01*
X16126808Y37282818D01*
X16376101Y37416068D01*
X16594608Y37595392D01*
X16773932Y37813899D01*
X16845000Y37946858D01*
X16916068Y37813899D01*
X17095393Y37595392D01*
X17313900Y37416068D01*
X17563193Y37282818D01*
X17833692Y37200764D01*
X18115000Y37173057D01*
X18396309Y37200764D01*
X18666808Y37282818D01*
X18916101Y37416068D01*
X19134608Y37595392D01*
X19313932Y37813899D01*
X19385000Y37946858D01*
X19456068Y37813899D01*
X19635393Y37595392D01*
X19853900Y37416068D01*
X20103193Y37282818D01*
X20373692Y37200764D01*
X20655000Y37173057D01*
X20936309Y37200764D01*
X21206808Y37282818D01*
X21456101Y37416068D01*
X21674608Y37595392D01*
X21853932Y37813899D01*
X21925000Y37946858D01*
X21996068Y37813899D01*
X22175393Y37595392D01*
X22393900Y37416068D01*
X22643193Y37282818D01*
X22913692Y37200764D01*
X23195000Y37173057D01*
X23476309Y37200764D01*
X23746808Y37282818D01*
X23996101Y37416068D01*
X24214608Y37595392D01*
X24393932Y37813899D01*
X24465000Y37946858D01*
X24536068Y37813899D01*
X24715393Y37595392D01*
X24933900Y37416068D01*
X25183193Y37282818D01*
X25453692Y37200764D01*
X25735000Y37173057D01*
X26016309Y37200764D01*
X26286808Y37282818D01*
X26536101Y37416068D01*
X26719706Y37566748D01*
X28468346Y35818107D01*
X28491362Y35790062D01*
X28603280Y35698213D01*
X28730967Y35629963D01*
X28869515Y35587935D01*
X28977495Y35577300D01*
X28977504Y35577300D01*
X29013599Y35573745D01*
X29049694Y35577300D01*
X30144454Y35577300D01*
X40283166Y25438587D01*
X40050105Y25279500D01*
X39852399Y25077839D01*
X39702265Y24848259D01*
X39633932Y24976101D01*
X39454607Y25194608D01*
X39236100Y25373932D01*
X38986807Y25507182D01*
X38716308Y25589236D01*
X38435000Y25616943D01*
X38153691Y25589236D01*
X37883192Y25507182D01*
X37633899Y25373932D01*
X37415392Y25194607D01*
X37236068Y24976100D01*
X37165000Y24843142D01*
X37093932Y24976101D01*
X36914607Y25194608D01*
X36696100Y25373932D01*
X36446807Y25507182D01*
X36176308Y25589236D01*
X35895000Y25616943D01*
X35613691Y25589236D01*
X35486400Y25550623D01*
X35486400Y26747754D01*
X35806253Y27067606D01*
X35893245Y27084910D01*
X36054305Y27151623D01*
X36199255Y27248476D01*
X36322524Y27371745D01*
X36419377Y27516695D01*
X36486090Y27677755D01*
X36520100Y27848735D01*
X36520100Y28023065D01*
X36486090Y28194045D01*
X36419377Y28355105D01*
X36322524Y28500055D01*
X36199255Y28623324D01*
X36054305Y28720177D01*
X35893245Y28786890D01*
X35722265Y28820900D01*
X35547935Y28820900D01*
X35376955Y28786890D01*
X35215895Y28720177D01*
X35070945Y28623324D01*
X34947676Y28500055D01*
X34850823Y28355105D01*
X34784110Y28194045D01*
X34766806Y28107053D01*
X34257208Y27597454D01*
X34229162Y27574437D01*
X34137313Y27462519D01*
X34069063Y27334832D01*
X34042867Y27248476D01*
X34027035Y27196285D01*
X34012844Y27052200D01*
X34016400Y27016095D01*
X34016400Y25448603D01*
X33906807Y25507182D01*
X33636308Y25589236D01*
X33355000Y25616943D01*
X33073691Y25589236D01*
X32803192Y25507182D01*
X32553899Y25373932D01*
X32335392Y25194607D01*
X32156068Y24976100D01*
X32085000Y24843142D01*
X32013932Y24976101D01*
X31834607Y25194608D01*
X31616100Y25373932D01*
X31366807Y25507182D01*
X31096308Y25589236D01*
X30815000Y25616943D01*
X30533691Y25589236D01*
X30263192Y25507182D01*
X30013899Y25373932D01*
X29795392Y25194607D01*
X29616068Y24976100D01*
X29545000Y24843142D01*
X29473932Y24976101D01*
X29294607Y25194608D01*
X29076100Y25373932D01*
X28826807Y25507182D01*
X28556308Y25589236D01*
X28275000Y25616943D01*
X27993691Y25589236D01*
X27723192Y25507182D01*
X27473899Y25373932D01*
X27255392Y25194607D01*
X27076068Y24976100D01*
X27005000Y24843142D01*
X26933932Y24976101D01*
X26754607Y25194608D01*
X26536100Y25373932D01*
X26286807Y25507182D01*
X26016308Y25589236D01*
X25735000Y25616943D01*
X25453691Y25589236D01*
X25183192Y25507182D01*
X24933899Y25373932D01*
X24715392Y25194607D01*
X24536068Y24976100D01*
X24465000Y24843142D01*
X24393932Y24976101D01*
X24214607Y25194608D01*
X23996100Y25373932D01*
X23746807Y25507182D01*
X23476308Y25589236D01*
X23195000Y25616943D01*
X22913691Y25589236D01*
X22643192Y25507182D01*
X22393899Y25373932D01*
X22175392Y25194607D01*
X21996068Y24976100D01*
X21925000Y24843142D01*
X21853932Y24976101D01*
X21674607Y25194608D01*
X21456100Y25373932D01*
X21206807Y25507182D01*
X20936308Y25589236D01*
X20655000Y25616943D01*
X20373691Y25589236D01*
X20103192Y25507182D01*
X19853899Y25373932D01*
X19635392Y25194607D01*
X19456068Y24976100D01*
X19385000Y24843142D01*
X19313932Y24976101D01*
X19134607Y25194608D01*
X18916100Y25373932D01*
X18666807Y25507182D01*
X18396308Y25589236D01*
X18115000Y25616943D01*
X17833691Y25589236D01*
X17563192Y25507182D01*
X17313899Y25373932D01*
X17095392Y25194607D01*
X17002581Y25081517D01*
X17000812Y25099482D01*
X16964502Y25219180D01*
X16905537Y25329494D01*
X16826185Y25426185D01*
X16729494Y25505537D01*
X16619180Y25564502D01*
X16499482Y25600812D01*
X16375000Y25613072D01*
X14775000Y25613072D01*
X14650518Y25600812D01*
X14530820Y25564502D01*
X14420506Y25505537D01*
X14323815Y25426185D01*
X14244463Y25329494D01*
X14185498Y25219180D01*
X14149188Y25099482D01*
X14136928Y24975000D01*
X14136928Y22575000D01*
X14149188Y22450518D01*
X14185498Y22330820D01*
X14244463Y22220506D01*
X14323815Y22123815D01*
X14420506Y22044463D01*
X14530820Y21985498D01*
X14650518Y21949188D01*
X14775000Y21936928D01*
X16375000Y21936928D01*
X16499482Y21949188D01*
X16619180Y21985498D01*
X16729494Y22044463D01*
X16826185Y22123815D01*
X16905537Y22220506D01*
X16964502Y22330820D01*
X17000812Y22450518D01*
X17002581Y22468483D01*
X17095393Y22355392D01*
X17313900Y22176068D01*
X17563193Y22042818D01*
X17833692Y21960764D01*
X18115000Y21933057D01*
X18396309Y21960764D01*
X18666808Y22042818D01*
X18916101Y22176068D01*
X19134608Y22355392D01*
X19313932Y22573899D01*
X19385000Y22706858D01*
X19456068Y22573899D01*
X19635393Y22355392D01*
X19853900Y22176068D01*
X20103193Y22042818D01*
X20373692Y21960764D01*
X20655000Y21933057D01*
X20936309Y21960764D01*
X21206808Y22042818D01*
X21456101Y22176068D01*
X21674608Y22355392D01*
X21853932Y22573899D01*
X21925000Y22706858D01*
X21996068Y22573899D01*
X22175393Y22355392D01*
X22393900Y22176068D01*
X22643193Y22042818D01*
X22913692Y21960764D01*
X23195000Y21933057D01*
X23476309Y21960764D01*
X23746808Y22042818D01*
X23996101Y22176068D01*
X24214608Y22355392D01*
X24393932Y22573899D01*
X24465000Y22706858D01*
X24536068Y22573899D01*
X24715393Y22355392D01*
X24933900Y22176068D01*
X25183193Y22042818D01*
X25453692Y21960764D01*
X25735000Y21933057D01*
X26016309Y21960764D01*
X26286808Y22042818D01*
X26536101Y22176068D01*
X26754608Y22355392D01*
X26933932Y22573899D01*
X27005000Y22706858D01*
X27076068Y22573899D01*
X27255393Y22355392D01*
X27473900Y22176068D01*
X27723193Y22042818D01*
X27993692Y21960764D01*
X28275000Y21933057D01*
X28556309Y21960764D01*
X28826808Y22042818D01*
X29076101Y22176068D01*
X29294608Y22355392D01*
X29473932Y22573899D01*
X29545000Y22706858D01*
X29616068Y22573899D01*
X29795393Y22355392D01*
X30013900Y22176068D01*
X30263193Y22042818D01*
X30533692Y21960764D01*
X30815000Y21933057D01*
X31096309Y21960764D01*
X31366808Y22042818D01*
X31616101Y22176068D01*
X31834608Y22355392D01*
X32013932Y22573899D01*
X32085000Y22706858D01*
X32156068Y22573899D01*
X32335393Y22355392D01*
X32553900Y22176068D01*
X32803193Y22042818D01*
X33073692Y21960764D01*
X33355000Y21933057D01*
X33636309Y21960764D01*
X33906808Y22042818D01*
X34068208Y22129088D01*
X34069064Y22126267D01*
X34137314Y21998580D01*
X34229163Y21886662D01*
X34257208Y21863646D01*
X34908816Y21212037D01*
X34875392Y21184607D01*
X34696068Y20966100D01*
X34625000Y20833142D01*
X34553932Y20966101D01*
X34374607Y21184608D01*
X34156100Y21363932D01*
X33906807Y21497182D01*
X33636308Y21579236D01*
X33355000Y21606943D01*
X33073691Y21579236D01*
X32803192Y21497182D01*
X32553899Y21363932D01*
X32335392Y21184607D01*
X32156068Y20966100D01*
X32085000Y20833142D01*
X32013932Y20966101D01*
X31834607Y21184608D01*
X31616100Y21363932D01*
X31366807Y21497182D01*
X31096308Y21579236D01*
X30815000Y21606943D01*
X30533691Y21579236D01*
X30263192Y21497182D01*
X30013899Y21363932D01*
X29795392Y21184607D01*
X29616068Y20966100D01*
X29545000Y20833142D01*
X29473932Y20966101D01*
X29294607Y21184608D01*
X29076100Y21363932D01*
X28826807Y21497182D01*
X28556308Y21579236D01*
X28275000Y21606943D01*
X27993691Y21579236D01*
X27723192Y21497182D01*
X27473899Y21363932D01*
X27255392Y21184607D01*
X27076068Y20966100D01*
X27005000Y20833142D01*
X26933932Y20966101D01*
X26754607Y21184608D01*
X26536100Y21363932D01*
X26286807Y21497182D01*
X26016308Y21579236D01*
X25735000Y21606943D01*
X25453691Y21579236D01*
X25183192Y21497182D01*
X24933899Y21363932D01*
X24715392Y21184607D01*
X24536068Y20966100D01*
X24465000Y20833142D01*
X24393932Y20966101D01*
X24214607Y21184608D01*
X23996100Y21363932D01*
X23746807Y21497182D01*
X23476308Y21579236D01*
X23195000Y21606943D01*
X22913691Y21579236D01*
X22643192Y21497182D01*
X22393899Y21363932D01*
X22175392Y21184607D01*
X21996068Y20966100D01*
X21925000Y20833142D01*
X21853932Y20966101D01*
X21674607Y21184608D01*
X21456100Y21363932D01*
X21206807Y21497182D01*
X20936308Y21579236D01*
X20655000Y21606943D01*
X20373691Y21579236D01*
X20103192Y21497182D01*
X19853899Y21363932D01*
X19635392Y21184607D01*
X19456068Y20966100D01*
X19385000Y20833142D01*
X19313932Y20966101D01*
X19134607Y21184608D01*
X18916100Y21363932D01*
X18666807Y21497182D01*
X18396308Y21579236D01*
X18115000Y21606943D01*
X17833691Y21579236D01*
X17563192Y21497182D01*
X17313899Y21363932D01*
X17095392Y21184607D01*
X16916068Y20966100D01*
X16845000Y20833142D01*
X16773932Y20966101D01*
X16594607Y21184608D01*
X16376100Y21363932D01*
X16126807Y21497182D01*
X15856308Y21579236D01*
X15575000Y21606943D01*
X15293691Y21579236D01*
X15023192Y21497182D01*
X14773899Y21363932D01*
X14555392Y21184607D01*
X14376068Y20966100D01*
X14242818Y20716807D01*
X14160764Y20446308D01*
X14140000Y20235491D01*
X14140000Y19294508D01*
X14160764Y19083691D01*
X14242818Y18813192D01*
X14376068Y18563899D01*
X14555393Y18345392D01*
X14773900Y18166068D01*
X15023193Y18032818D01*
X15293692Y17950764D01*
X15575000Y17923057D01*
X15856309Y17950764D01*
X16126808Y18032818D01*
X16376101Y18166068D01*
X16594608Y18345392D01*
X16773932Y18563899D01*
X16845000Y18696858D01*
X16916068Y18563899D01*
X17095393Y18345392D01*
X17313900Y18166068D01*
X17563193Y18032818D01*
X17833692Y17950764D01*
X18115000Y17923057D01*
X18396309Y17950764D01*
X18666808Y18032818D01*
X18916101Y18166068D01*
X19134608Y18345392D01*
X19313932Y18563899D01*
X19385000Y18696858D01*
X19456068Y18563899D01*
X19635393Y18345392D01*
X19853900Y18166068D01*
X20103193Y18032818D01*
X20373692Y17950764D01*
X20655000Y17923057D01*
X20936309Y17950764D01*
X21206808Y18032818D01*
X21456101Y18166068D01*
X21674608Y18345392D01*
X21853932Y18563899D01*
X21925000Y18696858D01*
X21996068Y18563899D01*
X22175393Y18345392D01*
X22393900Y18166068D01*
X22643193Y18032818D01*
X22913692Y17950764D01*
X23195000Y17923057D01*
X23476309Y17950764D01*
X23746808Y18032818D01*
X23996101Y18166068D01*
X24214608Y18345392D01*
X24393932Y18563899D01*
X24465000Y18696858D01*
X24536068Y18563899D01*
X24715393Y18345392D01*
X24933900Y18166068D01*
X25183193Y18032818D01*
X25453692Y17950764D01*
X25735000Y17923057D01*
X26016309Y17950764D01*
X26286808Y18032818D01*
X26536101Y18166068D01*
X26754608Y18345392D01*
X26933932Y18563899D01*
X27005000Y18696858D01*
X27076068Y18563899D01*
X27255393Y18345392D01*
X27473900Y18166068D01*
X27723193Y18032818D01*
X27993692Y17950764D01*
X28275000Y17923057D01*
X28556309Y17950764D01*
X28826808Y18032818D01*
X29076101Y18166068D01*
X29294608Y18345392D01*
X29473932Y18563899D01*
X29545000Y18696858D01*
X29616068Y18563899D01*
X29795393Y18345392D01*
X30013900Y18166068D01*
X30263193Y18032818D01*
X30533692Y17950764D01*
X30815000Y17923057D01*
X31096309Y17950764D01*
X31366808Y18032818D01*
X31616101Y18166068D01*
X31834608Y18345392D01*
X32013932Y18563899D01*
X32085000Y18696858D01*
X32156068Y18563899D01*
X32335393Y18345392D01*
X32553900Y18166068D01*
X32803193Y18032818D01*
X33073692Y17950764D01*
X33355000Y17923057D01*
X33636309Y17950764D01*
X33906808Y18032818D01*
X34156101Y18166068D01*
X34374608Y18345392D01*
X34553932Y18563899D01*
X34625000Y18696858D01*
X34696068Y18563899D01*
X34875393Y18345392D01*
X35093900Y18166068D01*
X35343193Y18032818D01*
X35613692Y17950764D01*
X35895000Y17923057D01*
X36176309Y17950764D01*
X36446808Y18032818D01*
X36696101Y18166068D01*
X36914608Y18345392D01*
X37093932Y18563899D01*
X37165000Y18696858D01*
X37236068Y18563899D01*
X37415393Y18345392D01*
X37633900Y18166068D01*
X37883193Y18032818D01*
X38153692Y17950764D01*
X38435000Y17923057D01*
X38716309Y17950764D01*
X38986808Y18032818D01*
X39236101Y18166068D01*
X39454608Y18345392D01*
X39633932Y18563899D01*
X39705000Y18696858D01*
X39776068Y18563899D01*
X39955393Y18345392D01*
X40173900Y18166068D01*
X40423193Y18032818D01*
X40693692Y17950764D01*
X40975000Y17923057D01*
X41256309Y17950764D01*
X41526808Y18032818D01*
X41776101Y18166068D01*
X41994608Y18345392D01*
X42173932Y18563899D01*
X42245000Y18696858D01*
X42316068Y18563899D01*
X42495393Y18345392D01*
X42713900Y18166068D01*
X42963193Y18032818D01*
X43233692Y17950764D01*
X43515000Y17923057D01*
X43796309Y17950764D01*
X44066808Y18032818D01*
X44316101Y18166068D01*
X44534608Y18345392D01*
X44713932Y18563899D01*
X44785000Y18696858D01*
X44856068Y18563899D01*
X45035393Y18345392D01*
X45253900Y18166068D01*
X45503193Y18032818D01*
X45773692Y17950764D01*
X46055000Y17923057D01*
X46336309Y17950764D01*
X46606808Y18032818D01*
X46748700Y18108661D01*
X46748701Y7172715D01*
X46745144Y7136600D01*
X46759335Y6992515D01*
X46801364Y6853967D01*
X46869614Y6726280D01*
X46961463Y6614362D01*
X46989508Y6591346D01*
X47608816Y5972037D01*
X47575392Y5944607D01*
X47396068Y5726100D01*
X47325000Y5593142D01*
X47253932Y5726101D01*
X47074607Y5944608D01*
X46856100Y6123932D01*
X46606807Y6257182D01*
X46336308Y6339236D01*
X46055000Y6366943D01*
X45773691Y6339236D01*
X45503192Y6257182D01*
X45253899Y6123932D01*
X45035392Y5944607D01*
X44856068Y5726100D01*
X44785000Y5593142D01*
X44713932Y5726101D01*
X44534607Y5944608D01*
X44316100Y6123932D01*
X44066807Y6257182D01*
X43796308Y6339236D01*
X43515000Y6366943D01*
X43233691Y6339236D01*
X42963192Y6257182D01*
X42713899Y6123932D01*
X42495392Y5944607D01*
X42316068Y5726100D01*
X42247735Y5598258D01*
X42097601Y5827839D01*
X41899895Y6029500D01*
X41666646Y6188715D01*
X41406818Y6299367D01*
X41324039Y6316904D01*
X41102000Y6194915D01*
X41102000Y4652000D01*
X41122000Y4652000D01*
X41122000Y4398000D01*
X41102000Y4398000D01*
X41102000Y2855085D01*
X41324039Y2733096D01*
X41406818Y2750633D01*
X41666646Y2861285D01*
X41899895Y3020500D01*
X42097601Y3222161D01*
X42247735Y3451741D01*
X42316068Y3323899D01*
X42495393Y3105392D01*
X42713900Y2926068D01*
X42963193Y2792818D01*
X43233692Y2710764D01*
X43515000Y2683057D01*
X43796309Y2710764D01*
X44066808Y2792818D01*
X44316101Y2926068D01*
X44534608Y3105392D01*
X44713932Y3323899D01*
X44785000Y3456858D01*
X44856068Y3323899D01*
X45035393Y3105392D01*
X45253900Y2926068D01*
X45503193Y2792818D01*
X45773692Y2710764D01*
X46055000Y2683057D01*
X46336309Y2710764D01*
X46606808Y2792818D01*
X46856101Y2926068D01*
X47074608Y3105392D01*
X47253932Y3323899D01*
X47325000Y3456858D01*
X47396068Y3323899D01*
X47575393Y3105392D01*
X47793900Y2926068D01*
X48043193Y2792818D01*
X48313692Y2710764D01*
X48595000Y2683057D01*
X48876309Y2710764D01*
X49146808Y2792818D01*
X49396101Y2926068D01*
X49614608Y3105392D01*
X49793932Y3323899D01*
X49865000Y3456858D01*
X49936068Y3323899D01*
X50115393Y3105392D01*
X50333900Y2926068D01*
X50583193Y2792818D01*
X50853692Y2710764D01*
X51135000Y2683057D01*
X51416309Y2710764D01*
X51686808Y2792818D01*
X51936101Y2926068D01*
X52154608Y3105392D01*
X52333932Y3323899D01*
X52405000Y3456858D01*
X52476068Y3323899D01*
X52655393Y3105392D01*
X52873900Y2926068D01*
X53123193Y2792818D01*
X53393692Y2710764D01*
X53675000Y2683057D01*
X53956309Y2710764D01*
X54226808Y2792818D01*
X54476101Y2926068D01*
X54694608Y3105392D01*
X54873932Y3323899D01*
X54945000Y3456858D01*
X55016068Y3323899D01*
X55195393Y3105392D01*
X55413900Y2926068D01*
X55663193Y2792818D01*
X55933692Y2710764D01*
X56215000Y2683057D01*
X56496309Y2710764D01*
X56766808Y2792818D01*
X57016101Y2926068D01*
X57234608Y3105392D01*
X57413932Y3323899D01*
X57485000Y3456858D01*
X57556068Y3323899D01*
X57735393Y3105392D01*
X57953900Y2926068D01*
X58203193Y2792818D01*
X58473692Y2710764D01*
X58755000Y2683057D01*
X59036309Y2710764D01*
X59306808Y2792818D01*
X59556101Y2926068D01*
X59774608Y3105392D01*
X59953932Y3323899D01*
X60025000Y3456858D01*
X60096068Y3323899D01*
X60275393Y3105392D01*
X60493900Y2926068D01*
X60743193Y2792818D01*
X61013692Y2710764D01*
X61295000Y2683057D01*
X61576309Y2710764D01*
X61846808Y2792818D01*
X62096101Y2926068D01*
X62314608Y3105392D01*
X62493932Y3323899D01*
X62565000Y3456858D01*
X62636068Y3323899D01*
X62815393Y3105392D01*
X63033900Y2926068D01*
X63283193Y2792818D01*
X63553692Y2710764D01*
X63835000Y2683057D01*
X64116309Y2710764D01*
X64386808Y2792818D01*
X64636101Y2926068D01*
X64854608Y3105392D01*
X65033932Y3323899D01*
X65167182Y3573192D01*
X65249236Y3843691D01*
X65270000Y4054509D01*
X65270000Y4995492D01*
X65249236Y5206309D01*
X65167182Y5476808D01*
X65033932Y5726101D01*
X64854607Y5944608D01*
X64636100Y6123932D01*
X64386807Y6257182D01*
X64116308Y6339236D01*
X63835000Y6366943D01*
X63553691Y6339236D01*
X63283192Y6257182D01*
X63033899Y6123932D01*
X62815392Y5944607D01*
X62636068Y5726100D01*
X62565000Y5593142D01*
X62493932Y5726101D01*
X62314607Y5944608D01*
X62096100Y6123932D01*
X61846807Y6257182D01*
X61576308Y6339236D01*
X61295000Y6366943D01*
X61013691Y6339236D01*
X60743192Y6257182D01*
X60493899Y6123932D01*
X60275392Y5944607D01*
X60096068Y5726100D01*
X60025000Y5593142D01*
X59953932Y5726101D01*
X59774607Y5944608D01*
X59741184Y5972038D01*
X60360293Y6591146D01*
X60388338Y6614162D01*
X60480187Y6726080D01*
X60480294Y6726281D01*
X60548437Y6853766D01*
X60590465Y6992315D01*
X60604656Y7136400D01*
X60601100Y7172505D01*
X60601100Y18108768D01*
X60743193Y18032818D01*
X61013692Y17950764D01*
X61295000Y17923057D01*
X61576309Y17950764D01*
X61846808Y18032818D01*
X62096101Y18166068D01*
X62314608Y18345392D01*
X62493932Y18563899D01*
X62565000Y18696858D01*
X62636068Y18563899D01*
X62815393Y18345392D01*
X63033900Y18166068D01*
X63283193Y18032818D01*
X63553692Y17950764D01*
X63835000Y17923057D01*
X64116309Y17950764D01*
X64386808Y18032818D01*
X64636101Y18166068D01*
X64854608Y18345392D01*
X65033932Y18563899D01*
X65167182Y18813192D01*
X65249236Y19083691D01*
X65270000Y19294509D01*
X65270000Y20235492D01*
X65249236Y20446309D01*
X65167182Y20716808D01*
X65033932Y20966101D01*
X64854607Y21184608D01*
X64636100Y21363932D01*
X64386807Y21497182D01*
X64116308Y21579236D01*
X63835000Y21606943D01*
X63553691Y21579236D01*
X63283192Y21497182D01*
X63033899Y21363932D01*
X62815392Y21184607D01*
X62636068Y20966100D01*
X62565000Y20833142D01*
X62493932Y20966101D01*
X62314607Y21184608D01*
X62096100Y21363932D01*
X61846807Y21497182D01*
X61576308Y21579236D01*
X61295000Y21606943D01*
X61013691Y21579236D01*
X60743192Y21497182D01*
X60562311Y21400499D01*
X60548437Y21446234D01*
X60480187Y21573920D01*
X60411353Y21657794D01*
X60411350Y21657797D01*
X60388337Y21685838D01*
X60360297Y21708850D01*
X59741184Y22327962D01*
X59774608Y22355392D01*
X59953932Y22573899D01*
X60025000Y22706858D01*
X60096068Y22573899D01*
X60275393Y22355392D01*
X60493900Y22176068D01*
X60743193Y22042818D01*
X61013692Y21960764D01*
X61295000Y21933057D01*
X61576309Y21960764D01*
X61846808Y22042818D01*
X62096101Y22176068D01*
X62314608Y22355392D01*
X62493932Y22573899D01*
X62565000Y22706858D01*
X62636068Y22573899D01*
X62815393Y22355392D01*
X63033900Y22176068D01*
X63283193Y22042818D01*
X63553692Y21960764D01*
X63835000Y21933057D01*
X64116309Y21960764D01*
X64386808Y22042818D01*
X64636101Y22176068D01*
X64854608Y22355392D01*
X65033932Y22573899D01*
X65167182Y22823192D01*
X65249236Y23093691D01*
X65270000Y23304509D01*
X65270000Y24245492D01*
X65249236Y24456309D01*
X65167182Y24726808D01*
X65033932Y24976101D01*
X64854607Y25194608D01*
X64636100Y25373932D01*
X64386807Y25507182D01*
X64116308Y25589236D01*
X63835000Y25616943D01*
X63553691Y25589236D01*
X63283192Y25507182D01*
X63033899Y25373932D01*
X62815392Y25194607D01*
X62636068Y24976100D01*
X62565000Y24843142D01*
X62493932Y24976101D01*
X62314607Y25194608D01*
X62096100Y25373932D01*
X61846807Y25507182D01*
X61576308Y25589236D01*
X61295000Y25616943D01*
X61013691Y25589236D01*
X60743192Y25507182D01*
X60493899Y25373932D01*
X60275392Y25194607D01*
X60096068Y24976100D01*
X60025000Y24843142D01*
X59953932Y24976101D01*
X59774607Y25194608D01*
X59556100Y25373932D01*
X59306807Y25507182D01*
X59036308Y25589236D01*
X58755000Y25616943D01*
X58473691Y25589236D01*
X58345000Y25550198D01*
X58345000Y36065254D01*
X59249193Y36969446D01*
X59277238Y36992462D01*
X59369087Y37104380D01*
X59405796Y37173057D01*
X59437337Y37232066D01*
X59479365Y37370615D01*
X59479826Y37375298D01*
X59556101Y37416068D01*
X59774608Y37595392D01*
X59953932Y37813899D01*
X60025000Y37946858D01*
X60096068Y37813899D01*
X60275393Y37595392D01*
X60493900Y37416068D01*
X60743193Y37282818D01*
X61013692Y37200764D01*
X61295000Y37173057D01*
X61576309Y37200764D01*
X61846808Y37282818D01*
X62096101Y37416068D01*
X62314608Y37595392D01*
X62493932Y37813899D01*
X62565000Y37946858D01*
X62636068Y37813899D01*
X62815393Y37595392D01*
X63033900Y37416068D01*
X63283193Y37282818D01*
X63553692Y37200764D01*
X63835000Y37173057D01*
X64116309Y37200764D01*
X64386808Y37282818D01*
X64636101Y37416068D01*
X64854608Y37595392D01*
X65033932Y37813899D01*
X65167182Y38063192D01*
X65249236Y38333691D01*
X65270000Y38544509D01*
X65270000Y39485492D01*
X65249236Y39696309D01*
X65167182Y39966808D01*
X65033932Y40216101D01*
X64854607Y40434608D01*
X64636100Y40613932D01*
X64386807Y40747182D01*
X64116308Y40829236D01*
X63835000Y40856943D01*
X63553691Y40829236D01*
X63283192Y40747182D01*
X63033899Y40613932D01*
X62815392Y40434607D01*
X62636068Y40216100D01*
X62565000Y40083142D01*
X62493932Y40216101D01*
X62314607Y40434608D01*
X62096100Y40613932D01*
X61846807Y40747182D01*
X61576308Y40829236D01*
X61295000Y40856943D01*
X61013691Y40829236D01*
X60743192Y40747182D01*
X60493899Y40613932D01*
X60275392Y40434607D01*
X60096068Y40216100D01*
X60025000Y40083142D01*
X59953932Y40216101D01*
X59774607Y40434608D01*
X59556100Y40613932D01*
X59306807Y40747182D01*
X59036308Y40829236D01*
X58755000Y40856943D01*
X58473691Y40829236D01*
X58203192Y40747182D01*
X57953899Y40613932D01*
X57735392Y40434607D01*
X57556068Y40216100D01*
X57485000Y40083142D01*
X57413932Y40216101D01*
X57234607Y40434608D01*
X57016100Y40613932D01*
X56766807Y40747182D01*
X56496308Y40829236D01*
X56215000Y40856943D01*
X55933691Y40829236D01*
X55663192Y40747182D01*
X55413899Y40613932D01*
X55195392Y40434607D01*
X55016068Y40216100D01*
X54945000Y40083142D01*
X54873932Y40216101D01*
X54694607Y40434608D01*
X54476100Y40613932D01*
X54226807Y40747182D01*
X53956308Y40829236D01*
X53675000Y40856943D01*
X53393691Y40829236D01*
X53123192Y40747182D01*
X52873899Y40613932D01*
X52655392Y40434607D01*
X52476068Y40216100D01*
X52405000Y40083142D01*
X52333932Y40216101D01*
X52154607Y40434608D01*
X51936100Y40613932D01*
X51686807Y40747182D01*
X51416308Y40829236D01*
X51135000Y40856943D01*
X50853691Y40829236D01*
X50583192Y40747182D01*
X50333899Y40613932D01*
X50115392Y40434607D01*
X49936068Y40216100D01*
X49865000Y40083142D01*
X49793932Y40216101D01*
X49614607Y40434608D01*
X49396100Y40613932D01*
X49146807Y40747182D01*
X48876308Y40829236D01*
X48595000Y40856943D01*
X48313691Y40829236D01*
X48043192Y40747182D01*
X47793899Y40613932D01*
X47575392Y40434607D01*
X47396068Y40216100D01*
X47325000Y40083142D01*
X47253932Y40216101D01*
X47074607Y40434608D01*
X46856100Y40613932D01*
X46606807Y40747182D01*
X46336308Y40829236D01*
X46055000Y40856943D01*
X45773691Y40829236D01*
X45503192Y40747182D01*
X45253899Y40613932D01*
X45035392Y40434607D01*
X44856068Y40216100D01*
X44785000Y40083142D01*
X44713932Y40216101D01*
X44534607Y40434608D01*
X44316100Y40613932D01*
X44066807Y40747182D01*
X43796308Y40829236D01*
X43515000Y40856943D01*
X43233691Y40829236D01*
X42963192Y40747182D01*
X42713899Y40613932D01*
X42495392Y40434607D01*
X42316068Y40216100D01*
X42245000Y40083142D01*
X42173932Y40216101D01*
X41994607Y40434608D01*
X41776100Y40613932D01*
X41526807Y40747182D01*
X41256308Y40829236D01*
X40975000Y40856943D01*
X40693691Y40829236D01*
X40423192Y40747182D01*
X40173899Y40613932D01*
X39955392Y40434607D01*
X39776068Y40216100D01*
X39705000Y40083142D01*
X39633932Y40216101D01*
X39454607Y40434608D01*
X39236100Y40613932D01*
X38986807Y40747182D01*
X38716308Y40829236D01*
X38435000Y40856943D01*
X38153691Y40829236D01*
X37883192Y40747182D01*
X37633899Y40613932D01*
X37453206Y40465641D01*
X19125059Y58793787D01*
X19102038Y58821838D01*
X18990120Y58913687D01*
X18862433Y58981937D01*
X18723885Y59023965D01*
X18615905Y59034600D01*
X18579800Y59038156D01*
X18543695Y59034600D01*
X17267889Y59034600D01*
X17271680Y59040273D01*
X17379853Y59301426D01*
X17435000Y59578665D01*
X17435000Y59861335D01*
X17379853Y60138574D01*
X17271680Y60399727D01*
X17114637Y60634759D01*
X16914759Y60834637D01*
X16682241Y60990000D01*
X16914759Y61145363D01*
X17114637Y61345241D01*
X17271680Y61580273D01*
X17379853Y61841426D01*
X17435000Y62118665D01*
X17435000Y62401335D01*
X17379853Y62678574D01*
X17271680Y62939727D01*
X17114637Y63174759D01*
X16914759Y63374637D01*
X16682241Y63530000D01*
X16914759Y63685363D01*
X17114637Y63885241D01*
X17271680Y64120273D01*
X17379853Y64381426D01*
X17435000Y64658665D01*
X17435000Y64941335D01*
X17379853Y65218574D01*
X17271680Y65479727D01*
X17114637Y65714759D01*
X16914759Y65914637D01*
X16682241Y66070000D01*
X16914759Y66225363D01*
X17114637Y66425241D01*
X17271680Y66660273D01*
X17379853Y66921426D01*
X17435000Y67198665D01*
X17435000Y67481335D01*
X17379853Y67758574D01*
X17271680Y68019727D01*
X17114637Y68254759D01*
X16914759Y68454637D01*
X16682241Y68610000D01*
X16893764Y68751335D01*
X27265000Y68751335D01*
X27265000Y68468665D01*
X27320147Y68191426D01*
X27428320Y67930273D01*
X27585363Y67695241D01*
X27785241Y67495363D01*
X28017759Y67340000D01*
X27785241Y67184637D01*
X27585363Y66984759D01*
X27428320Y66749727D01*
X27320147Y66488574D01*
X27265000Y66211335D01*
X27265000Y65928665D01*
X27320147Y65651426D01*
X27428320Y65390273D01*
X27585363Y65155241D01*
X27785241Y64955363D01*
X28020273Y64798320D01*
X28281426Y64690147D01*
X28558665Y64635000D01*
X28841335Y64635000D01*
X29118574Y64690147D01*
X29379727Y64798320D01*
X29614759Y64955363D01*
X29814637Y65155241D01*
X29865354Y65231144D01*
X29860147Y65218574D01*
X29805000Y64941335D01*
X29805000Y64658665D01*
X29860147Y64381426D01*
X29968320Y64120273D01*
X30125363Y63885241D01*
X30325241Y63685363D01*
X30557759Y63530000D01*
X30325241Y63374637D01*
X30125363Y63174759D01*
X29968320Y62939727D01*
X29860147Y62678574D01*
X29805000Y62401335D01*
X29805000Y62118665D01*
X29860147Y61841426D01*
X29968320Y61580273D01*
X30125363Y61345241D01*
X30325241Y61145363D01*
X30557759Y60990000D01*
X30325241Y60834637D01*
X30125363Y60634759D01*
X29968320Y60399727D01*
X29860147Y60138574D01*
X29805000Y59861335D01*
X29805000Y59578665D01*
X29860147Y59301426D01*
X29865354Y59288856D01*
X29814637Y59364759D01*
X29614759Y59564637D01*
X29379727Y59721680D01*
X29118574Y59829853D01*
X28841335Y59885000D01*
X28558665Y59885000D01*
X28281426Y59829853D01*
X28020273Y59721680D01*
X27785241Y59564637D01*
X27585363Y59364759D01*
X27428320Y59129727D01*
X27320147Y58868574D01*
X27265000Y58591335D01*
X27265000Y58308665D01*
X27320147Y58031426D01*
X27428320Y57770273D01*
X27585363Y57535241D01*
X27785241Y57335363D01*
X28017759Y57180000D01*
X27785241Y57024637D01*
X27585363Y56824759D01*
X27428320Y56589727D01*
X27320147Y56328574D01*
X27265000Y56051335D01*
X27265000Y55768665D01*
X27320147Y55491426D01*
X27428320Y55230273D01*
X27585363Y54995241D01*
X27785241Y54795363D01*
X28020273Y54638320D01*
X28281426Y54530147D01*
X28558665Y54475000D01*
X28841335Y54475000D01*
X29118574Y54530147D01*
X29379727Y54638320D01*
X29614759Y54795363D01*
X29814637Y54995241D01*
X29865354Y55071144D01*
X29860147Y55058574D01*
X29805000Y54781335D01*
X29805000Y54498665D01*
X29860147Y54221426D01*
X29968320Y53960273D01*
X30125363Y53725241D01*
X30325241Y53525363D01*
X30557759Y53370000D01*
X30325241Y53214637D01*
X30125363Y53014759D01*
X29968320Y52779727D01*
X29860147Y52518574D01*
X29805000Y52241335D01*
X29805000Y51958665D01*
X29860147Y51681426D01*
X29968320Y51420273D01*
X30125363Y51185241D01*
X30325241Y50985363D01*
X30557759Y50830000D01*
X30325241Y50674637D01*
X30125363Y50474759D01*
X29968320Y50239727D01*
X29860147Y49978574D01*
X29805000Y49701335D01*
X29805000Y49418665D01*
X29860147Y49141426D01*
X29968320Y48880273D01*
X30125363Y48645241D01*
X30325241Y48445363D01*
X30560273Y48288320D01*
X30821426Y48180147D01*
X31098665Y48125000D01*
X31381335Y48125000D01*
X31658574Y48180147D01*
X31919727Y48288320D01*
X32154759Y48445363D01*
X32285125Y48575729D01*
X33914246Y46946607D01*
X33937262Y46918562D01*
X34049180Y46826713D01*
X34176867Y46758463D01*
X34315415Y46716435D01*
X34423395Y46705800D01*
X34423404Y46705800D01*
X34459499Y46702245D01*
X34495594Y46705800D01*
X54544995Y46705800D01*
X54581100Y46702244D01*
X54617205Y46705800D01*
X54725185Y46716435D01*
X54863733Y46758463D01*
X54991420Y46826713D01*
X55103338Y46918562D01*
X55126358Y46946612D01*
X56453320Y48273573D01*
X56468368Y48258525D01*
X56711589Y48096010D01*
X56981842Y47984068D01*
X57268740Y47927000D01*
X57561260Y47927000D01*
X57848158Y47984068D01*
X58118411Y48096010D01*
X58361632Y48258525D01*
X58568475Y48465368D01*
X58730990Y48708589D01*
X58842932Y48978842D01*
X58900000Y49265740D01*
X58900000Y49558260D01*
X58842932Y49845158D01*
X58730990Y50115411D01*
X58568475Y50358632D01*
X58361632Y50565475D01*
X58118411Y50727990D01*
X57848158Y50839932D01*
X57561260Y50897000D01*
X57268740Y50897000D01*
X56981842Y50839932D01*
X56711589Y50727990D01*
X56468368Y50565475D01*
X56261525Y50358632D01*
X56145000Y50184240D01*
X56028475Y50358632D01*
X55821632Y50565475D01*
X55578411Y50727990D01*
X55308158Y50839932D01*
X55021260Y50897000D01*
X54728740Y50897000D01*
X54441842Y50839932D01*
X54171589Y50727990D01*
X53928368Y50565475D01*
X53721525Y50358632D01*
X53605000Y50184240D01*
X53488475Y50358632D01*
X53281632Y50565475D01*
X53070000Y50706883D01*
X53070000Y55450254D01*
X56004193Y58384446D01*
X56032238Y58407462D01*
X56124087Y58519380D01*
X56192337Y58647067D01*
X56227811Y58764010D01*
X56231472Y58776078D01*
X56456632Y58926525D01*
X56663475Y59133368D01*
X56780000Y59307760D01*
X56896525Y59133368D01*
X57103368Y58926525D01*
X57346589Y58764010D01*
X57616842Y58652068D01*
X57903740Y58595000D01*
X58196260Y58595000D01*
X58483158Y58652068D01*
X58753411Y58764010D01*
X58996632Y58926525D01*
X59203475Y59133368D01*
X59320000Y59307760D01*
X59436525Y59133368D01*
X59643368Y58926525D01*
X59886589Y58764010D01*
X60156842Y58652068D01*
X60443740Y58595000D01*
X60736260Y58595000D01*
X61023158Y58652068D01*
X61293411Y58764010D01*
X61536632Y58926525D01*
X61743475Y59133368D01*
X61905990Y59376589D01*
X62017932Y59646842D01*
X62075000Y59933740D01*
X62075000Y60226260D01*
X62017932Y60513158D01*
X61905990Y60783411D01*
X61743475Y61026632D01*
X61536632Y61233475D01*
X61293411Y61395990D01*
X61023158Y61507932D01*
X60736260Y61565000D01*
X60443740Y61565000D01*
X60156842Y61507932D01*
X59886589Y61395990D01*
X59643368Y61233475D01*
X59436525Y61026632D01*
X59320000Y60852240D01*
X59203475Y61026632D01*
X58996632Y61233475D01*
X58753411Y61395990D01*
X58483158Y61507932D01*
X58196260Y61565000D01*
X57903740Y61565000D01*
X57616842Y61507932D01*
X57346589Y61395990D01*
X57103368Y61233475D01*
X56896525Y61026632D01*
X56780000Y60852240D01*
X56663475Y61026632D01*
X56456632Y61233475D01*
X56213411Y61395990D01*
X55943158Y61507932D01*
X55656260Y61565000D01*
X55363740Y61565000D01*
X55076842Y61507932D01*
X54806589Y61395990D01*
X54563368Y61233475D01*
X54356525Y61026632D01*
X54240000Y60852240D01*
X54123475Y61026632D01*
X53916632Y61233475D01*
X53673411Y61395990D01*
X53403158Y61507932D01*
X53116260Y61565000D01*
X52823740Y61565000D01*
X52536842Y61507932D01*
X52266589Y61395990D01*
X52023368Y61233475D01*
X51816525Y61026632D01*
X51700000Y60852240D01*
X51583475Y61026632D01*
X51376632Y61233475D01*
X51133411Y61395990D01*
X50863158Y61507932D01*
X50576260Y61565000D01*
X50283740Y61565000D01*
X49996842Y61507932D01*
X49726589Y61395990D01*
X49483368Y61233475D01*
X49276525Y61026632D01*
X49154805Y60844466D01*
X49085178Y60961355D01*
X48890269Y61177588D01*
X48656920Y61351641D01*
X48394099Y61476825D01*
X48246890Y61521476D01*
X48017000Y61400155D01*
X48017000Y60207000D01*
X48037000Y60207000D01*
X48037000Y59953000D01*
X48017000Y59953000D01*
X48017000Y58759845D01*
X48246890Y58638524D01*
X48394099Y58683175D01*
X48656920Y58808359D01*
X48890269Y58982412D01*
X49085178Y59198645D01*
X49154805Y59315534D01*
X49276525Y59133368D01*
X49483368Y58926525D01*
X49726589Y58764010D01*
X49996842Y58652068D01*
X50283740Y58595000D01*
X50576260Y58595000D01*
X50863158Y58652068D01*
X51133411Y58764010D01*
X51376632Y58926525D01*
X51583475Y59133368D01*
X51700000Y59307760D01*
X51816525Y59133368D01*
X51975373Y58974520D01*
X49300808Y56299954D01*
X49272763Y56276938D01*
X49180914Y56165020D01*
X49127646Y56065363D01*
X49112664Y56037333D01*
X49070635Y55898785D01*
X49056444Y55754700D01*
X49060001Y55718585D01*
X49060000Y50706883D01*
X48848368Y50565475D01*
X48641525Y50358632D01*
X48525000Y50184240D01*
X48408475Y50358632D01*
X48201632Y50565475D01*
X47958411Y50727990D01*
X47688158Y50839932D01*
X47401260Y50897000D01*
X47108740Y50897000D01*
X46821842Y50839932D01*
X46551589Y50727990D01*
X46308368Y50565475D01*
X46176513Y50433620D01*
X46154502Y50506180D01*
X46095537Y50616494D01*
X46016185Y50713185D01*
X45919494Y50792537D01*
X45809180Y50851502D01*
X45689482Y50887812D01*
X45565000Y50900072D01*
X45000750Y50897000D01*
X44842000Y50738250D01*
X44842000Y49539000D01*
X44862000Y49539000D01*
X44862000Y49285000D01*
X44842000Y49285000D01*
X44842000Y49265000D01*
X44588000Y49265000D01*
X44588000Y49285000D01*
X43388750Y49285000D01*
X43230000Y49126250D01*
X43229273Y48992700D01*
X39027047Y48992700D01*
X37757747Y50262000D01*
X43226928Y50262000D01*
X43230000Y49697750D01*
X43388750Y49539000D01*
X44588000Y49539000D01*
X44588000Y50738250D01*
X44429250Y50897000D01*
X43865000Y50900072D01*
X43740518Y50887812D01*
X43620820Y50851502D01*
X43510506Y50792537D01*
X43413815Y50713185D01*
X43334463Y50616494D01*
X43275498Y50506180D01*
X43239188Y50386482D01*
X43226928Y50262000D01*
X37757747Y50262000D01*
X32885559Y55134187D01*
X32862538Y55162238D01*
X32750620Y55254087D01*
X32622933Y55322337D01*
X32484385Y55364365D01*
X32481676Y55364632D01*
X32354637Y55554759D01*
X32154759Y55754637D01*
X31922241Y55910000D01*
X32154759Y56065363D01*
X32354637Y56265241D01*
X32511680Y56500273D01*
X32619853Y56761426D01*
X32675000Y57038665D01*
X32675000Y57321335D01*
X32619853Y57598574D01*
X32511680Y57859727D01*
X32354637Y58094759D01*
X32154759Y58294637D01*
X31922241Y58450000D01*
X32154759Y58605363D01*
X32354637Y58805241D01*
X32511680Y59040273D01*
X32619853Y59301426D01*
X32675000Y59578665D01*
X32675000Y59861335D01*
X32619853Y60138574D01*
X32511680Y60399727D01*
X32354637Y60634759D01*
X32154759Y60834637D01*
X31922241Y60990000D01*
X32154759Y61145363D01*
X32354637Y61345241D01*
X32511680Y61580273D01*
X32619853Y61841426D01*
X32675000Y62118665D01*
X32675000Y62401335D01*
X32619853Y62678574D01*
X32511680Y62939727D01*
X32354637Y63174759D01*
X32154759Y63374637D01*
X31922241Y63530000D01*
X32154759Y63685363D01*
X32354637Y63885241D01*
X32511680Y64120273D01*
X32619853Y64381426D01*
X32675000Y64658665D01*
X32675000Y64941335D01*
X32619853Y65218574D01*
X32511680Y65479727D01*
X32354637Y65714759D01*
X32154759Y65914637D01*
X31922241Y66070000D01*
X32154759Y66225363D01*
X32354637Y66425241D01*
X32511680Y66660273D01*
X32619853Y66921426D01*
X32675000Y67198665D01*
X32675000Y67481335D01*
X32619853Y67758574D01*
X32590858Y67828575D01*
X39006950Y61412481D01*
X38968815Y61381185D01*
X38889463Y61284494D01*
X38830498Y61174180D01*
X38794188Y61054482D01*
X38781928Y60930000D01*
X38781928Y59230000D01*
X38794188Y59105518D01*
X38830498Y58985820D01*
X38889463Y58875506D01*
X38968815Y58778815D01*
X39065506Y58699463D01*
X39175820Y58640498D01*
X39295518Y58604188D01*
X39420000Y58591928D01*
X41120000Y58591928D01*
X41244482Y58604188D01*
X41364180Y58640498D01*
X41474494Y58699463D01*
X41571185Y58778815D01*
X41650537Y58875506D01*
X41709502Y58985820D01*
X41731513Y59058380D01*
X41863368Y58926525D01*
X42106589Y58764010D01*
X42376842Y58652068D01*
X42663740Y58595000D01*
X42956260Y58595000D01*
X43243158Y58652068D01*
X43513411Y58764010D01*
X43756632Y58926525D01*
X43963475Y59133368D01*
X44080000Y59307760D01*
X44196525Y59133368D01*
X44403368Y58926525D01*
X44646589Y58764010D01*
X44916842Y58652068D01*
X45203740Y58595000D01*
X45496260Y58595000D01*
X45783158Y58652068D01*
X46053411Y58764010D01*
X46296632Y58926525D01*
X46503475Y59133368D01*
X46625195Y59315534D01*
X46694822Y59198645D01*
X46889731Y58982412D01*
X47123080Y58808359D01*
X47385901Y58683175D01*
X47533110Y58638524D01*
X47763000Y58759845D01*
X47763000Y59953000D01*
X47743000Y59953000D01*
X47743000Y60207000D01*
X47763000Y60207000D01*
X47763000Y61400155D01*
X47533110Y61521476D01*
X47385901Y61476825D01*
X47123080Y61351641D01*
X46889731Y61177588D01*
X46694822Y60961355D01*
X46625195Y60844466D01*
X46503475Y61026632D01*
X46296632Y61233475D01*
X46053411Y61395990D01*
X45783158Y61507932D01*
X45496260Y61565000D01*
X45203740Y61565000D01*
X44916842Y61507932D01*
X44646589Y61395990D01*
X44403368Y61233475D01*
X44196525Y61026632D01*
X44080000Y60852240D01*
X43963475Y61026632D01*
X43756632Y61233475D01*
X43513411Y61395990D01*
X43243158Y61507932D01*
X42956260Y61565000D01*
X42663740Y61565000D01*
X42376842Y61507932D01*
X42106589Y61395990D01*
X41863368Y61233475D01*
X41731513Y61101620D01*
X41709502Y61174180D01*
X41650537Y61284494D01*
X41571185Y61381185D01*
X41474494Y61460537D01*
X41364180Y61519502D01*
X41244482Y61555812D01*
X41120000Y61568072D01*
X41070445Y61568072D01*
X41045172Y61651387D01*
X40967636Y61796446D01*
X40889439Y61891730D01*
X40889437Y61891732D01*
X40863291Y61923591D01*
X40831432Y61949737D01*
X33275300Y69505867D01*
X33275300Y69838981D01*
X33279340Y69880000D01*
X33263218Y70043689D01*
X33215472Y70201087D01*
X33137936Y70346146D01*
X33033591Y70473291D01*
X32906446Y70577636D01*
X32761387Y70655172D01*
X32603989Y70702918D01*
X32481319Y70715000D01*
X32440300Y70719040D01*
X32407396Y70715799D01*
X32354637Y70794759D01*
X32154759Y70994637D01*
X31922241Y71150000D01*
X32154759Y71305363D01*
X32354637Y71505241D01*
X32511680Y71740273D01*
X32619853Y72001426D01*
X32675000Y72278665D01*
X32675000Y72561335D01*
X32619853Y72838574D01*
X32511680Y73099727D01*
X32354637Y73334759D01*
X32154759Y73534637D01*
X31919727Y73691680D01*
X31909135Y73696067D01*
X32095131Y73807615D01*
X32303519Y73996586D01*
X32471037Y74222580D01*
X32591246Y74476913D01*
X32631904Y74610961D01*
X32509915Y74833000D01*
X31367000Y74833000D01*
X31367000Y74813000D01*
X31113000Y74813000D01*
X31113000Y74833000D01*
X29970085Y74833000D01*
X29848096Y74610961D01*
X29888754Y74476913D01*
X30008963Y74222580D01*
X30176481Y73996586D01*
X30384869Y73807615D01*
X30570865Y73696067D01*
X30560273Y73691680D01*
X30325241Y73534637D01*
X30125363Y73334759D01*
X29968320Y73099727D01*
X29860147Y72838574D01*
X29805000Y72561335D01*
X29805000Y72278665D01*
X29860147Y72001426D01*
X29968320Y71740273D01*
X30125363Y71505241D01*
X30325241Y71305363D01*
X30557759Y71150000D01*
X30325241Y70994637D01*
X30125363Y70794759D01*
X29968320Y70559727D01*
X29860147Y70298574D01*
X29805000Y70021335D01*
X29805000Y69738665D01*
X29860147Y69461426D01*
X29865354Y69448856D01*
X29814637Y69524759D01*
X29614759Y69724637D01*
X29379727Y69881680D01*
X29118574Y69989853D01*
X28841335Y70045000D01*
X28558665Y70045000D01*
X28281426Y69989853D01*
X28020273Y69881680D01*
X27785241Y69724637D01*
X27585363Y69524759D01*
X27428320Y69289727D01*
X27320147Y69028574D01*
X27265000Y68751335D01*
X16893764Y68751335D01*
X16914759Y68765363D01*
X17114637Y68965241D01*
X17271680Y69200273D01*
X17379853Y69461426D01*
X17435000Y69738665D01*
X17435000Y70021335D01*
X17379853Y70298574D01*
X17271680Y70559727D01*
X17114637Y70794759D01*
X16914759Y70994637D01*
X16682241Y71150000D01*
X16914759Y71305363D01*
X17114637Y71505241D01*
X17271680Y71740273D01*
X17379853Y72001426D01*
X17435000Y72278665D01*
X17435000Y72561335D01*
X17379853Y72838574D01*
X17271680Y73099727D01*
X17114637Y73334759D01*
X16914759Y73534637D01*
X16682241Y73690000D01*
X16914759Y73845363D01*
X17114637Y74045241D01*
X17271680Y74280273D01*
X17379853Y74541426D01*
X17435000Y74818665D01*
X17435000Y75101335D01*
X17379853Y75378574D01*
X17271680Y75639727D01*
X17114637Y75874759D01*
X16916039Y76073357D01*
X16924482Y76074188D01*
X17044180Y76110498D01*
X17154494Y76169463D01*
X17251185Y76248815D01*
X17330537Y76345506D01*
X17389502Y76455820D01*
X17425812Y76575518D01*
X17438072Y76700000D01*
X17438072Y77641335D01*
X29805000Y77641335D01*
X29805000Y77358665D01*
X29860147Y77081426D01*
X29968320Y76820273D01*
X30125363Y76585241D01*
X30325241Y76385363D01*
X30560273Y76228320D01*
X30570865Y76223933D01*
X30384869Y76112385D01*
X30176481Y75923414D01*
X30008963Y75697420D01*
X29888754Y75443087D01*
X29848096Y75309039D01*
X29970085Y75087000D01*
X31113000Y75087000D01*
X31113000Y75107000D01*
X31367000Y75107000D01*
X31367000Y75087000D01*
X32509915Y75087000D01*
X32631904Y75309039D01*
X32591246Y75443087D01*
X32471037Y75697420D01*
X32303519Y75923414D01*
X32095131Y76112385D01*
X31909135Y76223933D01*
X31919727Y76228320D01*
X32154759Y76385363D01*
X32354637Y76585241D01*
X32511680Y76820273D01*
X32619853Y77081426D01*
X32675000Y77358665D01*
X32675000Y77641335D01*
X32619853Y77918574D01*
X32511680Y78179727D01*
X32354637Y78414759D01*
X32154759Y78614637D01*
X31919727Y78771680D01*
X31658574Y78879853D01*
X31381335Y78935000D01*
X31098665Y78935000D01*
X30821426Y78879853D01*
X30560273Y78771680D01*
X30325241Y78614637D01*
X30125363Y78414759D01*
X29968320Y78179727D01*
X29860147Y77918574D01*
X29805000Y77641335D01*
X17438072Y77641335D01*
X17438072Y78300000D01*
X17425812Y78424482D01*
X17389502Y78544180D01*
X17330537Y78654494D01*
X17251185Y78751185D01*
X17154494Y78830537D01*
X17044180Y78889502D01*
X16924482Y78925812D01*
X16800000Y78938072D01*
X15200000Y78938072D01*
X15075518Y78925812D01*
X14955820Y78889502D01*
X14845506Y78830537D01*
X14748815Y78751185D01*
X14669463Y78654494D01*
X14610498Y78544180D01*
X14574188Y78424482D01*
X14561928Y78300000D01*
X14561928Y76700000D01*
X14574188Y76575518D01*
X14610498Y76455820D01*
X14669463Y76345506D01*
X14748815Y76248815D01*
X14845506Y76169463D01*
X14955820Y76110498D01*
X15075518Y76074188D01*
X15083961Y76073357D01*
X14885363Y75874759D01*
X14728320Y75639727D01*
X14620147Y75378574D01*
X14565000Y75101335D01*
X14565000Y74818665D01*
X14620147Y74541426D01*
X14728320Y74280273D01*
X14885363Y74045241D01*
X15085241Y73845363D01*
X15317759Y73690000D01*
X15085241Y73534637D01*
X14885363Y73334759D01*
X14728320Y73099727D01*
X14620147Y72838574D01*
X14565000Y72561335D01*
X14565000Y72278665D01*
X14620147Y72001426D01*
X14728320Y71740273D01*
X14885363Y71505241D01*
X15085241Y71305363D01*
X15317759Y71150000D01*
X15085241Y70994637D01*
X14885363Y70794759D01*
X14728320Y70559727D01*
X14620147Y70298574D01*
X14565000Y70021335D01*
X14565000Y69738665D01*
X14620147Y69461426D01*
X14728320Y69200273D01*
X14885363Y68965241D01*
X15085241Y68765363D01*
X15317759Y68610000D01*
X15085241Y68454637D01*
X14885363Y68254759D01*
X14728320Y68019727D01*
X14620147Y67758574D01*
X14565000Y67481335D01*
X14565000Y67198665D01*
X14620147Y66921426D01*
X14728320Y66660273D01*
X14885363Y66425241D01*
X15085241Y66225363D01*
X15317759Y66070000D01*
X15085241Y65914637D01*
X14885363Y65714759D01*
X14728320Y65479727D01*
X14620147Y65218574D01*
X14565000Y64941335D01*
X14565000Y64658665D01*
X14620147Y64381426D01*
X14728320Y64120273D01*
X14885363Y63885241D01*
X15085241Y63685363D01*
X15317759Y63530000D01*
X15085241Y63374637D01*
X14885363Y63174759D01*
X14728320Y62939727D01*
X14620147Y62678574D01*
X14565000Y62401335D01*
X14565000Y62118665D01*
X14620147Y61841426D01*
X14728320Y61580273D01*
X14885363Y61345241D01*
X15085241Y61145363D01*
X15317759Y60990000D01*
X15085241Y60834637D01*
X14885363Y60634759D01*
X14728320Y60399727D01*
X14620147Y60138574D01*
X14565000Y59861335D01*
X14565000Y59578665D01*
X14620147Y59301426D01*
X14728320Y59040273D01*
X14885363Y58805241D01*
X14951379Y58739225D01*
X14375808Y58163654D01*
X14347762Y58140637D01*
X14255913Y58028719D01*
X14187663Y57901032D01*
X14158656Y57805407D01*
X14145635Y57762485D01*
X14131444Y57618400D01*
X660000Y57618400D01*
X660000Y89340000D01*
X39576270Y89340000D01*
X39566589Y89335990D01*
G37*
G04 #@! TD.AperFunction*
D19*
X41102000Y23902000D02*
X41122000Y23902000D01*
X41122000Y23648000D01*
X41102000Y23648000D01*
X41102000Y22105085D01*
X41324039Y21983096D01*
X41406818Y22000633D01*
X41666646Y22111285D01*
X41899895Y22270500D01*
X41953043Y22324711D01*
X42497246Y21780507D01*
X42520262Y21752462D01*
X42548306Y21729447D01*
X42632180Y21660613D01*
X42759866Y21592363D01*
X42898415Y21550335D01*
X43042500Y21536144D01*
X43078605Y21539700D01*
X43103357Y21539700D01*
X42963192Y21497182D01*
X42713899Y21363932D01*
X42495392Y21184607D01*
X42316068Y20966100D01*
X42245000Y20833142D01*
X42173932Y20966101D01*
X41994607Y21184608D01*
X41776100Y21363932D01*
X41526807Y21497182D01*
X41256308Y21579236D01*
X40975000Y21606943D01*
X40693691Y21579236D01*
X40423192Y21497182D01*
X40173899Y21363932D01*
X39955392Y21184607D01*
X39776068Y20966100D01*
X39705000Y20833142D01*
X39633932Y20966101D01*
X39454607Y21184608D01*
X39236100Y21363932D01*
X38986807Y21497182D01*
X38716308Y21579236D01*
X38435000Y21606943D01*
X38153691Y21579236D01*
X37883192Y21497182D01*
X37633899Y21363932D01*
X37415392Y21184607D01*
X37236068Y20966100D01*
X37165000Y20833142D01*
X37093932Y20966101D01*
X36914607Y21184608D01*
X36696100Y21363932D01*
X36619826Y21404701D01*
X36619365Y21409385D01*
X36577337Y21547934D01*
X36509087Y21675620D01*
X36440253Y21759494D01*
X36417238Y21787538D01*
X36389193Y21810554D01*
X36224396Y21975351D01*
X36446808Y22042818D01*
X36696101Y22176068D01*
X36914608Y22355392D01*
X37093932Y22573899D01*
X37165000Y22706858D01*
X37236068Y22573899D01*
X37415393Y22355392D01*
X37633900Y22176068D01*
X37883193Y22042818D01*
X38153692Y21960764D01*
X38435000Y21933057D01*
X38716309Y21960764D01*
X38986808Y22042818D01*
X39236101Y22176068D01*
X39454608Y22355392D01*
X39633932Y22573899D01*
X39702265Y22701741D01*
X39852399Y22472161D01*
X40050105Y22270500D01*
X40283354Y22111285D01*
X40543182Y22000633D01*
X40625961Y21983096D01*
X40848000Y22105085D01*
X40848000Y23648000D01*
X40828000Y23648000D01*
X40828000Y23902000D01*
X40848000Y23902000D01*
X40848000Y23922000D01*
X41102000Y23922000D01*
X41102000Y23902000D01*
G04 #@! TA.AperFunction,Conductor*
D20*
G36*
X41102000Y23902000D02*
G01*
X41122000Y23902000D01*
X41122000Y23648000D01*
X41102000Y23648000D01*
X41102000Y22105085D01*
X41324039Y21983096D01*
X41406818Y22000633D01*
X41666646Y22111285D01*
X41899895Y22270500D01*
X41953043Y22324711D01*
X42497246Y21780507D01*
X42520262Y21752462D01*
X42548306Y21729447D01*
X42632180Y21660613D01*
X42759866Y21592363D01*
X42898415Y21550335D01*
X43042500Y21536144D01*
X43078605Y21539700D01*
X43103357Y21539700D01*
X42963192Y21497182D01*
X42713899Y21363932D01*
X42495392Y21184607D01*
X42316068Y20966100D01*
X42245000Y20833142D01*
X42173932Y20966101D01*
X41994607Y21184608D01*
X41776100Y21363932D01*
X41526807Y21497182D01*
X41256308Y21579236D01*
X40975000Y21606943D01*
X40693691Y21579236D01*
X40423192Y21497182D01*
X40173899Y21363932D01*
X39955392Y21184607D01*
X39776068Y20966100D01*
X39705000Y20833142D01*
X39633932Y20966101D01*
X39454607Y21184608D01*
X39236100Y21363932D01*
X38986807Y21497182D01*
X38716308Y21579236D01*
X38435000Y21606943D01*
X38153691Y21579236D01*
X37883192Y21497182D01*
X37633899Y21363932D01*
X37415392Y21184607D01*
X37236068Y20966100D01*
X37165000Y20833142D01*
X37093932Y20966101D01*
X36914607Y21184608D01*
X36696100Y21363932D01*
X36619826Y21404701D01*
X36619365Y21409385D01*
X36577337Y21547934D01*
X36509087Y21675620D01*
X36440253Y21759494D01*
X36417238Y21787538D01*
X36389193Y21810554D01*
X36224396Y21975351D01*
X36446808Y22042818D01*
X36696101Y22176068D01*
X36914608Y22355392D01*
X37093932Y22573899D01*
X37165000Y22706858D01*
X37236068Y22573899D01*
X37415393Y22355392D01*
X37633900Y22176068D01*
X37883193Y22042818D01*
X38153692Y21960764D01*
X38435000Y21933057D01*
X38716309Y21960764D01*
X38986808Y22042818D01*
X39236101Y22176068D01*
X39454608Y22355392D01*
X39633932Y22573899D01*
X39702265Y22701741D01*
X39852399Y22472161D01*
X40050105Y22270500D01*
X40283354Y22111285D01*
X40543182Y22000633D01*
X40625961Y21983096D01*
X40848000Y22105085D01*
X40848000Y23648000D01*
X40828000Y23648000D01*
X40828000Y23902000D01*
X40848000Y23902000D01*
X40848000Y23922000D01*
X41102000Y23922000D01*
X41102000Y23902000D01*
G37*
G04 #@! TD.AperFunction*
M02*
