G04 #@! TF.GenerationSoftware,KiCad,Pcbnew,(5.1.9)-1*
G04 #@! TF.CreationDate,2023-03-18T10:12:14+09:00*
G04 #@! TF.ProjectId,SMB80TE_SD,534d4238-3054-4455-9f53-442e6b696361,rev?*
G04 #@! TF.SameCoordinates,PX53920b0PY93c3260*
G04 #@! TF.FileFunction,Legend,Top*
G04 #@! TF.FilePolarity,Positive*
%FSLAX46Y46*%
G04 Gerber Fmt 4.6, Leading zero omitted, Abs format (unit mm)*
G04 Created by KiCad (PCBNEW (5.1.9)-1) date 2023-03-18 10:12:14*
%MOMM*%
%LPD*%
G01*
G04 APERTURE LIST*
%ADD10C,0.150000*%
%ADD11C,0.300000*%
%ADD12C,0.120000*%
G04 APERTURE END LIST*
D10*
X47380952Y46547620D02*
X47380952Y47547620D01*
X47714285Y46833334D01*
X48047619Y47547620D01*
X48047619Y46547620D01*
X48523809Y46547620D02*
X48523809Y47214286D01*
X48523809Y47547620D02*
X48476190Y47500000D01*
X48523809Y47452381D01*
X48571428Y47500000D01*
X48523809Y47547620D01*
X48523809Y47452381D01*
X49428571Y46595239D02*
X49333333Y46547620D01*
X49142857Y46547620D01*
X49047619Y46595239D01*
X49000000Y46642858D01*
X48952380Y46738096D01*
X48952380Y47023810D01*
X49000000Y47119048D01*
X49047619Y47166667D01*
X49142857Y47214286D01*
X49333333Y47214286D01*
X49428571Y47166667D01*
X49857142Y46547620D02*
X49857142Y47214286D01*
X49857142Y47023810D02*
X49904761Y47119048D01*
X49952380Y47166667D01*
X50047619Y47214286D01*
X50142857Y47214286D01*
X50619047Y46547620D02*
X50523809Y46595239D01*
X50476190Y46642858D01*
X50428571Y46738096D01*
X50428571Y47023810D01*
X50476190Y47119048D01*
X50523809Y47166667D01*
X50619047Y47214286D01*
X50761904Y47214286D01*
X50857142Y47166667D01*
X50904761Y47119048D01*
X50952380Y47023810D01*
X50952380Y46738096D01*
X50904761Y46642858D01*
X50857142Y46595239D01*
X50761904Y46547620D01*
X50619047Y46547620D01*
X51142857Y46452381D02*
X51904761Y46452381D01*
X52095238Y46595239D02*
X52238095Y46547620D01*
X52476190Y46547620D01*
X52571428Y46595239D01*
X52619047Y46642858D01*
X52666666Y46738096D01*
X52666666Y46833334D01*
X52619047Y46928572D01*
X52571428Y46976191D01*
X52476190Y47023810D01*
X52285714Y47071429D01*
X52190476Y47119048D01*
X52142857Y47166667D01*
X52095238Y47261905D01*
X52095238Y47357143D01*
X52142857Y47452381D01*
X52190476Y47500000D01*
X52285714Y47547620D01*
X52523809Y47547620D01*
X52666666Y47500000D01*
X53095238Y46547620D02*
X53095238Y47547620D01*
X53333333Y47547620D01*
X53476190Y47500000D01*
X53571428Y47404762D01*
X53619047Y47309524D01*
X53666666Y47119048D01*
X53666666Y46976191D01*
X53619047Y46785715D01*
X53571428Y46690477D01*
X53476190Y46595239D01*
X53333333Y46547620D01*
X53095238Y46547620D01*
X53857142Y46452381D02*
X54619047Y46452381D01*
X55428571Y46642858D02*
X55380952Y46595239D01*
X55238095Y46547620D01*
X55142857Y46547620D01*
X55000000Y46595239D01*
X54904761Y46690477D01*
X54857142Y46785715D01*
X54809523Y46976191D01*
X54809523Y47119048D01*
X54857142Y47309524D01*
X54904761Y47404762D01*
X55000000Y47500000D01*
X55142857Y47547620D01*
X55238095Y47547620D01*
X55380952Y47500000D01*
X55428571Y47452381D01*
X56285714Y46547620D02*
X56285714Y47071429D01*
X56238095Y47166667D01*
X56142857Y47214286D01*
X55952380Y47214286D01*
X55857142Y47166667D01*
X56285714Y46595239D02*
X56190476Y46547620D01*
X55952380Y46547620D01*
X55857142Y46595239D01*
X55809523Y46690477D01*
X55809523Y46785715D01*
X55857142Y46880953D01*
X55952380Y46928572D01*
X56190476Y46928572D01*
X56285714Y46976191D01*
X56761904Y46547620D02*
X56761904Y47214286D01*
X56761904Y47023810D02*
X56809523Y47119048D01*
X56857142Y47166667D01*
X56952380Y47214286D01*
X57047619Y47214286D01*
X57809523Y46547620D02*
X57809523Y47547620D01*
X57809523Y46595239D02*
X57714285Y46547620D01*
X57523809Y46547620D01*
X57428571Y46595239D01*
X57380952Y46642858D01*
X57333333Y46738096D01*
X57333333Y47023810D01*
X57380952Y47119048D01*
X57428571Y47166667D01*
X57523809Y47214286D01*
X57714285Y47214286D01*
X57809523Y47166667D01*
X58047619Y46452381D02*
X58809523Y46452381D01*
X59047619Y46547620D02*
X59047619Y47547620D01*
X59619047Y46547620D02*
X59190476Y47119048D01*
X59619047Y47547620D02*
X59047619Y46976191D01*
X60047619Y46547620D02*
X60047619Y47214286D01*
X60047619Y47547620D02*
X60000000Y47500000D01*
X60047619Y47452381D01*
X60095238Y47500000D01*
X60047619Y47547620D01*
X60047619Y47452381D01*
X60380952Y47214286D02*
X60761904Y47214286D01*
X60523809Y47547620D02*
X60523809Y46690477D01*
X60571428Y46595239D01*
X60666666Y46547620D01*
X60761904Y46547620D01*
X20285714Y82833334D02*
X20761904Y82833334D01*
X20190476Y82547620D02*
X20523809Y83547620D01*
X20857142Y82547620D01*
X21190476Y82547620D02*
X21190476Y83214286D01*
X21190476Y83023810D02*
X21238095Y83119048D01*
X21285714Y83166667D01*
X21380952Y83214286D01*
X21476190Y83214286D01*
X22238095Y82547620D02*
X22238095Y83547620D01*
X22238095Y82595239D02*
X22142857Y82547620D01*
X21952380Y82547620D01*
X21857142Y82595239D01*
X21809523Y82642858D01*
X21761904Y82738096D01*
X21761904Y83023810D01*
X21809523Y83119048D01*
X21857142Y83166667D01*
X21952380Y83214286D01*
X22142857Y83214286D01*
X22238095Y83166667D01*
X23142857Y83214286D02*
X23142857Y82547620D01*
X22714285Y83214286D02*
X22714285Y82690477D01*
X22761904Y82595239D01*
X22857142Y82547620D01*
X23000000Y82547620D01*
X23095238Y82595239D01*
X23142857Y82642858D01*
X23619047Y82547620D02*
X23619047Y83214286D01*
X23619047Y83547620D02*
X23571428Y83500000D01*
X23619047Y83452381D01*
X23666666Y83500000D01*
X23619047Y83547620D01*
X23619047Y83452381D01*
X24095238Y83214286D02*
X24095238Y82547620D01*
X24095238Y83119048D02*
X24142857Y83166667D01*
X24238095Y83214286D01*
X24380952Y83214286D01*
X24476190Y83166667D01*
X24523809Y83071429D01*
X24523809Y82547620D01*
X25142857Y82547620D02*
X25047619Y82595239D01*
X25000000Y82642858D01*
X24952380Y82738096D01*
X24952380Y83023810D01*
X25000000Y83119048D01*
X25047619Y83166667D01*
X25142857Y83214286D01*
X25285714Y83214286D01*
X25380952Y83166667D01*
X25428571Y83119048D01*
X25476190Y83023810D01*
X25476190Y82738096D01*
X25428571Y82642858D01*
X25380952Y82595239D01*
X25285714Y82547620D01*
X25142857Y82547620D01*
X26666666Y82547620D02*
X26666666Y83547620D01*
X27047619Y83547620D01*
X27142857Y83500000D01*
X27190476Y83452381D01*
X27238095Y83357143D01*
X27238095Y83214286D01*
X27190476Y83119048D01*
X27142857Y83071429D01*
X27047619Y83023810D01*
X26666666Y83023810D01*
X27666666Y82547620D02*
X27666666Y83214286D01*
X27666666Y83023810D02*
X27714285Y83119048D01*
X27761904Y83166667D01*
X27857142Y83214286D01*
X27952380Y83214286D01*
X28428571Y82547620D02*
X28333333Y82595239D01*
X28285714Y82642858D01*
X28238095Y82738096D01*
X28238095Y83023810D01*
X28285714Y83119048D01*
X28333333Y83166667D01*
X28428571Y83214286D01*
X28571428Y83214286D01*
X28666666Y83166667D01*
X28714285Y83119048D01*
X28761904Y83023810D01*
X28761904Y82738096D01*
X28714285Y82642858D01*
X28666666Y82595239D01*
X28571428Y82547620D01*
X28428571Y82547620D01*
X29952380Y82547620D02*
X29952380Y83214286D01*
X29952380Y83119048D02*
X30000000Y83166667D01*
X30095238Y83214286D01*
X30238095Y83214286D01*
X30333333Y83166667D01*
X30380952Y83071429D01*
X30380952Y82547620D01*
X30380952Y83071429D02*
X30428571Y83166667D01*
X30523809Y83214286D01*
X30666666Y83214286D01*
X30761904Y83166667D01*
X30809523Y83071429D01*
X30809523Y82547620D01*
X31285714Y82547620D02*
X31285714Y83214286D01*
X31285714Y83547620D02*
X31238095Y83500000D01*
X31285714Y83452381D01*
X31333333Y83500000D01*
X31285714Y83547620D01*
X31285714Y83452381D01*
X31761904Y83214286D02*
X31761904Y82547620D01*
X31761904Y83119048D02*
X31809523Y83166667D01*
X31904761Y83214286D01*
X32047619Y83214286D01*
X32142857Y83166667D01*
X32190476Y83071429D01*
X32190476Y82547620D01*
X32666666Y82547620D02*
X32666666Y83214286D01*
X32666666Y83547620D02*
X32619047Y83500000D01*
X32666666Y83452381D01*
X32714285Y83500000D01*
X32666666Y83547620D01*
X32666666Y83452381D01*
X8452380Y29047620D02*
X9119047Y29047620D01*
X8452380Y28047620D01*
X9119047Y28047620D01*
X9642857Y28619048D02*
X9547619Y28666667D01*
X9500000Y28714286D01*
X9452380Y28809524D01*
X9452380Y28857143D01*
X9500000Y28952381D01*
X9547619Y29000000D01*
X9642857Y29047620D01*
X9833333Y29047620D01*
X9928571Y29000000D01*
X9976190Y28952381D01*
X10023809Y28857143D01*
X10023809Y28809524D01*
X9976190Y28714286D01*
X9928571Y28666667D01*
X9833333Y28619048D01*
X9642857Y28619048D01*
X9547619Y28571429D01*
X9500000Y28523810D01*
X9452380Y28428572D01*
X9452380Y28238096D01*
X9500000Y28142858D01*
X9547619Y28095239D01*
X9642857Y28047620D01*
X9833333Y28047620D01*
X9928571Y28095239D01*
X9976190Y28142858D01*
X10023809Y28238096D01*
X10023809Y28428572D01*
X9976190Y28523810D01*
X9928571Y28571429D01*
X9833333Y28619048D01*
X10642857Y29047620D02*
X10738095Y29047620D01*
X10833333Y29000000D01*
X10880952Y28952381D01*
X10928571Y28857143D01*
X10976190Y28666667D01*
X10976190Y28428572D01*
X10928571Y28238096D01*
X10880952Y28142858D01*
X10833333Y28095239D01*
X10738095Y28047620D01*
X10642857Y28047620D01*
X10547619Y28095239D01*
X10500000Y28142858D01*
X10452380Y28238096D01*
X10404761Y28428572D01*
X10404761Y28666667D01*
X10452380Y28857143D01*
X10500000Y28952381D01*
X10547619Y29000000D01*
X10642857Y29047620D01*
X11404761Y28047620D02*
X11404761Y29047620D01*
X11785714Y29047620D01*
X11880952Y29000000D01*
X11928571Y28952381D01*
X11976190Y28857143D01*
X11976190Y28714286D01*
X11928571Y28619048D01*
X11880952Y28571429D01*
X11785714Y28523810D01*
X11404761Y28523810D01*
X12404761Y28047620D02*
X12404761Y29047620D01*
X13071428Y29047620D02*
X13261904Y29047620D01*
X13357142Y29000000D01*
X13452380Y28904762D01*
X13500000Y28714286D01*
X13500000Y28380953D01*
X13452380Y28190477D01*
X13357142Y28095239D01*
X13261904Y28047620D01*
X13071428Y28047620D01*
X12976190Y28095239D01*
X12880952Y28190477D01*
X12833333Y28380953D01*
X12833333Y28714286D01*
X12880952Y28904762D01*
X12976190Y29000000D01*
X13071428Y29047620D01*
X1619047Y4928572D02*
X2380952Y4928572D01*
X8619047Y4928572D02*
X9380952Y4928572D01*
X9000000Y4547620D02*
X9000000Y5309524D01*
X2380952Y7595239D02*
X2523809Y7547620D01*
X2761904Y7547620D01*
X2857142Y7595239D01*
X2904761Y7642858D01*
X2952380Y7738096D01*
X2952380Y7833334D01*
X2904761Y7928572D01*
X2857142Y7976191D01*
X2761904Y8023810D01*
X2571428Y8071429D01*
X2476190Y8119048D01*
X2428571Y8166667D01*
X2380952Y8261905D01*
X2380952Y8357143D01*
X2428571Y8452381D01*
X2476190Y8500000D01*
X2571428Y8547620D01*
X2809523Y8547620D01*
X2952380Y8500000D01*
X3380952Y7547620D02*
X3380952Y8547620D01*
X3761904Y8547620D01*
X3857142Y8500000D01*
X3904761Y8452381D01*
X3952380Y8357143D01*
X3952380Y8214286D01*
X3904761Y8119048D01*
X3857142Y8071429D01*
X3761904Y8023810D01*
X3380952Y8023810D01*
X4380952Y8071429D02*
X4714285Y8071429D01*
X4857142Y7547620D02*
X4380952Y7547620D01*
X4380952Y8547620D01*
X4857142Y8547620D01*
X5238095Y7833334D02*
X5714285Y7833334D01*
X5142857Y7547620D02*
X5476190Y8547620D01*
X5809523Y7547620D01*
X6142857Y7547620D02*
X6142857Y8547620D01*
X6714285Y7547620D02*
X6285714Y8119048D01*
X6714285Y8547620D02*
X6142857Y7976191D01*
X7142857Y8071429D02*
X7476190Y8071429D01*
X7619047Y7547620D02*
X7142857Y7547620D01*
X7142857Y8547620D01*
X7619047Y8547620D01*
X8619047Y7547620D02*
X8285714Y8023810D01*
X8047619Y7547620D02*
X8047619Y8547620D01*
X8428571Y8547620D01*
X8523809Y8500000D01*
X8571428Y8452381D01*
X8619047Y8357143D01*
X8619047Y8214286D01*
X8571428Y8119048D01*
X8523809Y8071429D01*
X8428571Y8023810D01*
X8047619Y8023810D01*
X32738095Y2047620D02*
X33404761Y2047620D01*
X32738095Y1047620D01*
X33404761Y1047620D01*
X33928571Y1619048D02*
X33833333Y1666667D01*
X33785714Y1714286D01*
X33738095Y1809524D01*
X33738095Y1857143D01*
X33785714Y1952381D01*
X33833333Y2000000D01*
X33928571Y2047620D01*
X34119047Y2047620D01*
X34214285Y2000000D01*
X34261904Y1952381D01*
X34309523Y1857143D01*
X34309523Y1809524D01*
X34261904Y1714286D01*
X34214285Y1666667D01*
X34119047Y1619048D01*
X33928571Y1619048D01*
X33833333Y1571429D01*
X33785714Y1523810D01*
X33738095Y1428572D01*
X33738095Y1238096D01*
X33785714Y1142858D01*
X33833333Y1095239D01*
X33928571Y1047620D01*
X34119047Y1047620D01*
X34214285Y1095239D01*
X34261904Y1142858D01*
X34309523Y1238096D01*
X34309523Y1428572D01*
X34261904Y1523810D01*
X34214285Y1571429D01*
X34119047Y1619048D01*
X34928571Y2047620D02*
X35023809Y2047620D01*
X35119047Y2000000D01*
X35166666Y1952381D01*
X35214285Y1857143D01*
X35261904Y1666667D01*
X35261904Y1428572D01*
X35214285Y1238096D01*
X35166666Y1142858D01*
X35119047Y1095239D01*
X35023809Y1047620D01*
X34928571Y1047620D01*
X34833333Y1095239D01*
X34785714Y1142858D01*
X34738095Y1238096D01*
X34690476Y1428572D01*
X34690476Y1666667D01*
X34738095Y1857143D01*
X34785714Y1952381D01*
X34833333Y2000000D01*
X34928571Y2047620D01*
X35690476Y1047620D02*
X35690476Y2047620D01*
X36071428Y2047620D01*
X36166666Y2000000D01*
X36214285Y1952381D01*
X36261904Y1857143D01*
X36261904Y1714286D01*
X36214285Y1619048D01*
X36166666Y1571429D01*
X36071428Y1523810D01*
X35690476Y1523810D01*
X36690476Y1047620D02*
X36690476Y2047620D01*
X37357142Y2047620D02*
X37547619Y2047620D01*
X37642857Y2000000D01*
X37738095Y1904762D01*
X37785714Y1714286D01*
X37785714Y1380953D01*
X37738095Y1190477D01*
X37642857Y1095239D01*
X37547619Y1047620D01*
X37357142Y1047620D01*
X37261904Y1095239D01*
X37166666Y1190477D01*
X37119047Y1380953D01*
X37119047Y1714286D01*
X37166666Y1904762D01*
X37261904Y2000000D01*
X37357142Y2047620D01*
X38928571Y1095239D02*
X39071428Y1047620D01*
X39309523Y1047620D01*
X39404761Y1095239D01*
X39452380Y1142858D01*
X39500000Y1238096D01*
X39500000Y1333334D01*
X39452380Y1428572D01*
X39404761Y1476191D01*
X39309523Y1523810D01*
X39119047Y1571429D01*
X39023809Y1619048D01*
X38976190Y1666667D01*
X38928571Y1761905D01*
X38928571Y1857143D01*
X38976190Y1952381D01*
X39023809Y2000000D01*
X39119047Y2047620D01*
X39357142Y2047620D01*
X39500000Y2000000D01*
X40119047Y2047620D02*
X40309523Y2047620D01*
X40404761Y2000000D01*
X40500000Y1904762D01*
X40547619Y1714286D01*
X40547619Y1380953D01*
X40500000Y1190477D01*
X40404761Y1095239D01*
X40309523Y1047620D01*
X40119047Y1047620D01*
X40023809Y1095239D01*
X39928571Y1190477D01*
X39880952Y1380953D01*
X39880952Y1714286D01*
X39928571Y1904762D01*
X40023809Y2000000D01*
X40119047Y2047620D01*
X41547619Y1142858D02*
X41500000Y1095239D01*
X41357142Y1047620D01*
X41261904Y1047620D01*
X41119047Y1095239D01*
X41023809Y1190477D01*
X40976190Y1285715D01*
X40928571Y1476191D01*
X40928571Y1619048D01*
X40976190Y1809524D01*
X41023809Y1904762D01*
X41119047Y2000000D01*
X41261904Y2047620D01*
X41357142Y2047620D01*
X41500000Y2000000D01*
X41547619Y1952381D01*
X41976190Y1047620D02*
X41976190Y2047620D01*
X42547619Y1047620D02*
X42119047Y1619048D01*
X42547619Y2047620D02*
X41976190Y1476191D01*
X42976190Y1571429D02*
X43309523Y1571429D01*
X43452380Y1047620D02*
X42976190Y1047620D01*
X42976190Y2047620D01*
X43452380Y2047620D01*
X43738095Y2047620D02*
X44309523Y2047620D01*
X44023809Y1047620D02*
X44023809Y2047620D01*
D11*
X2238095Y86190477D02*
X2523809Y86095239D01*
X3000000Y86095239D01*
X3190476Y86190477D01*
X3285714Y86285715D01*
X3380952Y86476191D01*
X3380952Y86666667D01*
X3285714Y86857143D01*
X3190476Y86952381D01*
X3000000Y87047620D01*
X2619047Y87142858D01*
X2428571Y87238096D01*
X2333333Y87333334D01*
X2238095Y87523810D01*
X2238095Y87714286D01*
X2333333Y87904762D01*
X2428571Y88000000D01*
X2619047Y88095239D01*
X3095238Y88095239D01*
X3380952Y88000000D01*
X4238095Y86095239D02*
X4238095Y88095239D01*
X4904761Y86666667D01*
X5571428Y88095239D01*
X5571428Y86095239D01*
X7190476Y87142858D02*
X7476190Y87047620D01*
X7571428Y86952381D01*
X7666666Y86761905D01*
X7666666Y86476191D01*
X7571428Y86285715D01*
X7476190Y86190477D01*
X7285714Y86095239D01*
X6523809Y86095239D01*
X6523809Y88095239D01*
X7190476Y88095239D01*
X7380952Y88000000D01*
X7476190Y87904762D01*
X7571428Y87714286D01*
X7571428Y87523810D01*
X7476190Y87333334D01*
X7380952Y87238096D01*
X7190476Y87142858D01*
X6523809Y87142858D01*
X8809523Y87238096D02*
X8619047Y87333334D01*
X8523809Y87428572D01*
X8428571Y87619048D01*
X8428571Y87714286D01*
X8523809Y87904762D01*
X8619047Y88000000D01*
X8809523Y88095239D01*
X9190476Y88095239D01*
X9380952Y88000000D01*
X9476190Y87904762D01*
X9571428Y87714286D01*
X9571428Y87619048D01*
X9476190Y87428572D01*
X9380952Y87333334D01*
X9190476Y87238096D01*
X8809523Y87238096D01*
X8619047Y87142858D01*
X8523809Y87047620D01*
X8428571Y86857143D01*
X8428571Y86476191D01*
X8523809Y86285715D01*
X8619047Y86190477D01*
X8809523Y86095239D01*
X9190476Y86095239D01*
X9380952Y86190477D01*
X9476190Y86285715D01*
X9571428Y86476191D01*
X9571428Y86857143D01*
X9476190Y87047620D01*
X9380952Y87142858D01*
X9190476Y87238096D01*
X10809523Y88095239D02*
X11000000Y88095239D01*
X11190476Y88000000D01*
X11285714Y87904762D01*
X11380952Y87714286D01*
X11476190Y87333334D01*
X11476190Y86857143D01*
X11380952Y86476191D01*
X11285714Y86285715D01*
X11190476Y86190477D01*
X11000000Y86095239D01*
X10809523Y86095239D01*
X10619047Y86190477D01*
X10523809Y86285715D01*
X10428571Y86476191D01*
X10333333Y86857143D01*
X10333333Y87333334D01*
X10428571Y87714286D01*
X10523809Y87904762D01*
X10619047Y88000000D01*
X10809523Y88095239D01*
X12047619Y88095239D02*
X13190476Y88095239D01*
X12619047Y86095239D02*
X12619047Y88095239D01*
X13857142Y87142858D02*
X14523809Y87142858D01*
X14809523Y86095239D02*
X13857142Y86095239D01*
X13857142Y88095239D01*
X14809523Y88095239D01*
X15190476Y85904762D02*
X16714285Y85904762D01*
X17095238Y86190477D02*
X17380952Y86095239D01*
X17857142Y86095239D01*
X18047619Y86190477D01*
X18142857Y86285715D01*
X18238095Y86476191D01*
X18238095Y86666667D01*
X18142857Y86857143D01*
X18047619Y86952381D01*
X17857142Y87047620D01*
X17476190Y87142858D01*
X17285714Y87238096D01*
X17190476Y87333334D01*
X17095238Y87523810D01*
X17095238Y87714286D01*
X17190476Y87904762D01*
X17285714Y88000000D01*
X17476190Y88095239D01*
X17952380Y88095239D01*
X18238095Y88000000D01*
X19095238Y86095239D02*
X19095238Y88095239D01*
X19571428Y88095239D01*
X19857142Y88000000D01*
X20047619Y87809524D01*
X20142857Y87619048D01*
X20238095Y87238096D01*
X20238095Y86952381D01*
X20142857Y86571429D01*
X20047619Y86380953D01*
X19857142Y86190477D01*
X19571428Y86095239D01*
X19095238Y86095239D01*
X23761904Y86095239D02*
X23095238Y87047620D01*
X22619047Y86095239D02*
X22619047Y88095239D01*
X23380952Y88095239D01*
X23571428Y88000000D01*
X23666666Y87904762D01*
X23761904Y87714286D01*
X23761904Y87428572D01*
X23666666Y87238096D01*
X23571428Y87142858D01*
X23380952Y87047620D01*
X22619047Y87047620D01*
X25380952Y86190477D02*
X25190476Y86095239D01*
X24809523Y86095239D01*
X24619047Y86190477D01*
X24523809Y86380953D01*
X24523809Y87142858D01*
X24619047Y87333334D01*
X24809523Y87428572D01*
X25190476Y87428572D01*
X25380952Y87333334D01*
X25476190Y87142858D01*
X25476190Y86952381D01*
X24523809Y86761905D01*
X26142857Y87428572D02*
X26619047Y86095239D01*
X27095238Y87428572D01*
X28904761Y86095239D02*
X27761904Y86095239D01*
X28333333Y86095239D02*
X28333333Y88095239D01*
X28142857Y87809524D01*
X27952380Y87619048D01*
X27761904Y87523810D01*
X29761904Y86285715D02*
X29857142Y86190477D01*
X29761904Y86095239D01*
X29666666Y86190477D01*
X29761904Y86285715D01*
X29761904Y86095239D01*
X31761904Y86095239D02*
X30619047Y86095239D01*
X31190476Y86095239D02*
X31190476Y88095239D01*
X30999999Y87809524D01*
X30809523Y87619048D01*
X30619047Y87523810D01*
D12*
X38590000Y58380000D02*
X62290000Y58380000D01*
X38590000Y90180000D02*
X38590000Y58380000D01*
X62290000Y90180000D02*
X38590000Y90180000D01*
X62290000Y58380000D02*
X62290000Y90180000D01*
X38940000Y58750000D02*
X38940000Y60080000D01*
X40270000Y58750000D02*
X38940000Y58750000D01*
X41540000Y58750000D02*
X41540000Y61410000D01*
X41540000Y61410000D02*
X61920000Y61410000D01*
X41540000Y58750000D02*
X61920000Y58750000D01*
X61920000Y58750000D02*
X61920000Y61410000D01*
X32637000Y81437000D02*
X14603000Y81437000D01*
X32637000Y48163000D02*
X32637000Y81437000D01*
X17270000Y76230000D02*
X17270000Y48163000D01*
X17270000Y76230000D02*
X14603000Y76230000D01*
X14603000Y48163000D02*
X32640000Y48163000D01*
X29970000Y78770000D02*
X29970000Y48163000D01*
X29970000Y78770000D02*
X32640000Y78770000D01*
X14603000Y81437000D02*
X14603000Y78770000D01*
X14603000Y76230000D02*
X14603000Y48163000D01*
X17270000Y78770000D02*
X14603000Y78770000D01*
X17270000Y76230000D02*
X17270000Y78770000D01*
X43385000Y49412000D02*
X43385000Y50742000D01*
X43385000Y50742000D02*
X44715000Y50742000D01*
X45985000Y50742000D02*
X58745000Y50742000D01*
X58745000Y48082000D02*
X58745000Y50742000D01*
X45985000Y48082000D02*
X58745000Y48082000D01*
X45985000Y48082000D02*
X45985000Y50742000D01*
X14245000Y18205000D02*
X14245000Y13145000D01*
X65165000Y18205000D02*
X14245000Y18205000D01*
X65165000Y6085000D02*
X65165000Y18205000D01*
X14245000Y6085000D02*
X65165000Y6085000D01*
X14245000Y11145000D02*
X14245000Y6085000D01*
X14245000Y13145000D02*
G75*
G02*
X14245000Y11145000I0J-1000000D01*
G01*
X14245000Y30395000D02*
X14245000Y25335000D01*
X14245000Y25335000D02*
X65165000Y25335000D01*
X65165000Y25335000D02*
X65165000Y37455000D01*
X65165000Y37455000D02*
X14245000Y37455000D01*
X14245000Y37455000D02*
X14245000Y32395000D01*
X14245000Y32395000D02*
G75*
G02*
X14245000Y30395000I0J-1000000D01*
G01*
X8330000Y6330000D02*
X8330000Y5000000D01*
X7000000Y6330000D02*
X8330000Y6330000D01*
X5730000Y6330000D02*
X5730000Y3670000D01*
X5730000Y3670000D02*
X3130000Y3670000D01*
X5730000Y6330000D02*
X3130000Y6330000D01*
X3130000Y6330000D02*
X3130000Y3670000D01*
D10*
X39666666Y57047620D02*
X39666666Y56333334D01*
X39619047Y56190477D01*
X39523809Y56095239D01*
X39380952Y56047620D01*
X39285714Y56047620D01*
X40095238Y56952381D02*
X40142857Y57000000D01*
X40238095Y57047620D01*
X40476190Y57047620D01*
X40571428Y57000000D01*
X40619047Y56952381D01*
X40666666Y56857143D01*
X40666666Y56761905D01*
X40619047Y56619048D01*
X40047619Y56047620D01*
X40666666Y56047620D01*
X47238095Y56333334D02*
X47714285Y56333334D01*
X47142857Y56047620D02*
X47476190Y57047620D01*
X47809523Y56047620D01*
X48142857Y56571429D02*
X48476190Y56571429D01*
X48619047Y56047620D02*
X48142857Y56047620D01*
X48142857Y57047620D01*
X48619047Y57047620D01*
X49047619Y56428572D02*
X49809523Y56428572D01*
X50285714Y56047620D02*
X50285714Y56714286D01*
X50285714Y56619048D02*
X50333333Y56666667D01*
X50428571Y56714286D01*
X50571428Y56714286D01*
X50666666Y56666667D01*
X50714285Y56571429D01*
X50714285Y56047620D01*
X50714285Y56571429D02*
X50761904Y56666667D01*
X50857142Y56714286D01*
X51000000Y56714286D01*
X51095238Y56666667D01*
X51142857Y56571429D01*
X51142857Y56047620D01*
X51619047Y56047620D02*
X51619047Y56714286D01*
X51619047Y57047620D02*
X51571428Y57000000D01*
X51619047Y56952381D01*
X51666666Y57000000D01*
X51619047Y57047620D01*
X51619047Y56952381D01*
X52523809Y56095239D02*
X52428571Y56047620D01*
X52238095Y56047620D01*
X52142857Y56095239D01*
X52095238Y56142858D01*
X52047619Y56238096D01*
X52047619Y56523810D01*
X52095238Y56619048D01*
X52142857Y56666667D01*
X52238095Y56714286D01*
X52428571Y56714286D01*
X52523809Y56666667D01*
X52952380Y56047620D02*
X52952380Y56714286D01*
X52952380Y56523810D02*
X53000000Y56619048D01*
X53047619Y56666667D01*
X53142857Y56714286D01*
X53238095Y56714286D01*
X53714285Y56047620D02*
X53619047Y56095239D01*
X53571428Y56142858D01*
X53523809Y56238096D01*
X53523809Y56523810D01*
X53571428Y56619048D01*
X53619047Y56666667D01*
X53714285Y56714286D01*
X53857142Y56714286D01*
X53952380Y56666667D01*
X54000000Y56619048D01*
X54047619Y56523810D01*
X54047619Y56238096D01*
X54000000Y56142858D01*
X53952380Y56095239D01*
X53857142Y56047620D01*
X53714285Y56047620D01*
X54428571Y56095239D02*
X54571428Y56047620D01*
X54809523Y56047620D01*
X54904761Y56095239D01*
X54952380Y56142858D01*
X55000000Y56238096D01*
X55000000Y56333334D01*
X54952380Y56428572D01*
X54904761Y56476191D01*
X54809523Y56523810D01*
X54619047Y56571429D01*
X54523809Y56619048D01*
X54476190Y56666667D01*
X54428571Y56761905D01*
X54428571Y56857143D01*
X54476190Y56952381D01*
X54523809Y57000000D01*
X54619047Y57047620D01*
X54857142Y57047620D01*
X55000000Y57000000D01*
X55428571Y56047620D02*
X55428571Y57047620D01*
X55666666Y57047620D01*
X55809523Y57000000D01*
X55904761Y56904762D01*
X55952380Y56809524D01*
X56000000Y56619048D01*
X56000000Y56476191D01*
X55952380Y56285715D01*
X55904761Y56190477D01*
X55809523Y56095239D01*
X55666666Y56047620D01*
X55428571Y56047620D01*
X56428571Y56428572D02*
X57190476Y56428572D01*
X58142857Y56047620D02*
X57666666Y56047620D01*
X57666666Y57047620D01*
X58952380Y56047620D02*
X58476190Y56047620D01*
X58476190Y57047620D01*
X59857142Y56142858D02*
X59809523Y56095239D01*
X59666666Y56047620D01*
X59571428Y56047620D01*
X59428571Y56095239D01*
X59333333Y56190477D01*
X59285714Y56285715D01*
X59238095Y56476191D01*
X59238095Y56619048D01*
X59285714Y56809524D01*
X59333333Y56904762D01*
X59428571Y57000000D01*
X59571428Y57047620D01*
X59666666Y57047620D01*
X59809523Y57000000D01*
X59857142Y56952381D01*
X60285714Y56047620D02*
X60285714Y57047620D01*
X60857142Y56047620D01*
X60857142Y57047620D01*
X61190476Y57047620D02*
X61523809Y56047620D01*
X61857142Y57047620D01*
X15238095Y83547620D02*
X15238095Y82738096D01*
X15285714Y82642858D01*
X15333333Y82595239D01*
X15428571Y82547620D01*
X15619047Y82547620D01*
X15714285Y82595239D01*
X15761904Y82642858D01*
X15809523Y82738096D01*
X15809523Y83547620D01*
X16238095Y83452381D02*
X16285714Y83500000D01*
X16380952Y83547620D01*
X16619047Y83547620D01*
X16714285Y83500000D01*
X16761904Y83452381D01*
X16809523Y83357143D01*
X16809523Y83261905D01*
X16761904Y83119048D01*
X16190476Y82547620D01*
X16809523Y82547620D01*
X44166666Y47547620D02*
X44166666Y46833334D01*
X44119047Y46690477D01*
X44023809Y46595239D01*
X43880952Y46547620D01*
X43785714Y46547620D01*
X44547619Y47547620D02*
X45166666Y47547620D01*
X44833333Y47166667D01*
X44976190Y47166667D01*
X45071428Y47119048D01*
X45119047Y47071429D01*
X45166666Y46976191D01*
X45166666Y46738096D01*
X45119047Y46642858D01*
X45071428Y46595239D01*
X44976190Y46547620D01*
X44690476Y46547620D01*
X44595238Y46595239D01*
X44547619Y46642858D01*
X12911666Y12692620D02*
X12911666Y11978334D01*
X12864047Y11835477D01*
X12768809Y11740239D01*
X12625952Y11692620D01*
X12530714Y11692620D01*
X13911666Y11692620D02*
X13340238Y11692620D01*
X13625952Y11692620D02*
X13625952Y12692620D01*
X13530714Y12549762D01*
X13435476Y12454524D01*
X13340238Y12406905D01*
X12483095Y31942620D02*
X12483095Y31133096D01*
X12530714Y31037858D01*
X12578333Y30990239D01*
X12673571Y30942620D01*
X12864047Y30942620D01*
X12959285Y30990239D01*
X13006904Y31037858D01*
X13054523Y31133096D01*
X13054523Y31942620D01*
X14054523Y30942620D02*
X13483095Y30942620D01*
X13768809Y30942620D02*
X13768809Y31942620D01*
X13673571Y31799762D01*
X13578333Y31704524D01*
X13483095Y31656905D01*
X4857142Y1547620D02*
X4380952Y1547620D01*
X4380952Y2547620D01*
X5142857Y1595239D02*
X5285714Y1547620D01*
X5523809Y1547620D01*
X5619047Y1595239D01*
X5666666Y1642858D01*
X5714285Y1738096D01*
X5714285Y1833334D01*
X5666666Y1928572D01*
X5619047Y1976191D01*
X5523809Y2023810D01*
X5333333Y2071429D01*
X5238095Y2119048D01*
X5190476Y2166667D01*
X5142857Y2261905D01*
X5142857Y2357143D01*
X5190476Y2452381D01*
X5238095Y2500000D01*
X5333333Y2547620D01*
X5571428Y2547620D01*
X5714285Y2500000D01*
X6666666Y1547620D02*
X6095238Y1547620D01*
X6380952Y1547620D02*
X6380952Y2547620D01*
X6285714Y2404762D01*
X6190476Y2309524D01*
X6095238Y2261905D01*
M02*
