G04 #@! TF.GenerationSoftware,KiCad,Pcbnew,(5.1.9)-1*
G04 #@! TF.CreationDate,2023-03-18T10:12:14+09:00*
G04 #@! TF.ProjectId,SMB80TE_SD,534d4238-3054-4455-9f53-442e6b696361,rev?*
G04 #@! TF.SameCoordinates,PX53920b0PY93c3260*
G04 #@! TF.FileFunction,Soldermask,Bot*
G04 #@! TF.FilePolarity,Negative*
%FSLAX46Y46*%
G04 Gerber Fmt 4.6, Leading zero omitted, Abs format (unit mm)*
G04 Created by KiCad (PCBNEW (5.1.9)-1) date 2023-03-18 10:12:14*
%MOMM*%
%LPD*%
G01*
G04 APERTURE LIST*
%ADD10R,1.700000X1.700000*%
%ADD11O,1.700000X1.700000*%
%ADD12R,1.600000X1.600000*%
%ADD13O,1.600000X1.600000*%
%ADD14O,1.600000X2.400000*%
%ADD15R,1.600000X2.400000*%
G04 APERTURE END LIST*
D10*
X40270000Y60080000D03*
D11*
X42810000Y60080000D03*
X45350000Y60080000D03*
X47890000Y60080000D03*
X50430000Y60080000D03*
X52970000Y60080000D03*
X55510000Y60080000D03*
X58050000Y60080000D03*
X60590000Y60080000D03*
X60590000Y88020000D03*
X60590000Y85480000D03*
X40270000Y88020000D03*
X40270000Y85480000D03*
D12*
X16000000Y77500000D03*
D13*
X16000000Y74960000D03*
X16000000Y72420000D03*
X31240000Y49560000D03*
X16000000Y69880000D03*
X31240000Y52100000D03*
X16000000Y67340000D03*
X31240000Y54640000D03*
X16000000Y64800000D03*
X31240000Y57180000D03*
X16000000Y62260000D03*
X31240000Y59720000D03*
X16000000Y59720000D03*
X31240000Y62260000D03*
X16000000Y57180000D03*
X31240000Y64800000D03*
X16000000Y54640000D03*
X31240000Y67340000D03*
X16000000Y52100000D03*
X31240000Y69880000D03*
X16000000Y49560000D03*
X31240000Y72420000D03*
X31240000Y74960000D03*
X31240000Y77500000D03*
X28700000Y68610000D03*
X28700000Y66070000D03*
X28700000Y58450000D03*
X28700000Y55910000D03*
D10*
X44715000Y49412000D03*
D11*
X47255000Y49412000D03*
X49795000Y49412000D03*
X52335000Y49412000D03*
X54875000Y49412000D03*
X57415000Y49412000D03*
D14*
X15575000Y19765000D03*
X63835000Y4525000D03*
X18115000Y19765000D03*
X61295000Y4525000D03*
X20655000Y19765000D03*
X58755000Y4525000D03*
X23195000Y19765000D03*
X56215000Y4525000D03*
X25735000Y19765000D03*
X53675000Y4525000D03*
X28275000Y19765000D03*
X51135000Y4525000D03*
X30815000Y19765000D03*
X48595000Y4525000D03*
X33355000Y19765000D03*
X46055000Y4525000D03*
X35895000Y19765000D03*
X43515000Y4525000D03*
X38435000Y19765000D03*
X40975000Y4525000D03*
X40975000Y19765000D03*
X38435000Y4525000D03*
X43515000Y19765000D03*
X35895000Y4525000D03*
X46055000Y19765000D03*
X33355000Y4525000D03*
X48595000Y19765000D03*
X30815000Y4525000D03*
X51135000Y19765000D03*
X28275000Y4525000D03*
X53675000Y19765000D03*
X25735000Y4525000D03*
X56215000Y19765000D03*
X23195000Y4525000D03*
X58755000Y19765000D03*
X20655000Y4525000D03*
X61295000Y19765000D03*
X18115000Y4525000D03*
X63835000Y19765000D03*
D15*
X15575000Y4525000D03*
X15575000Y23775000D03*
D14*
X63835000Y39015000D03*
X18115000Y23775000D03*
X61295000Y39015000D03*
X20655000Y23775000D03*
X58755000Y39015000D03*
X23195000Y23775000D03*
X56215000Y39015000D03*
X25735000Y23775000D03*
X53675000Y39015000D03*
X28275000Y23775000D03*
X51135000Y39015000D03*
X30815000Y23775000D03*
X48595000Y39015000D03*
X33355000Y23775000D03*
X46055000Y39015000D03*
X35895000Y23775000D03*
X43515000Y39015000D03*
X38435000Y23775000D03*
X40975000Y39015000D03*
X40975000Y23775000D03*
X38435000Y39015000D03*
X43515000Y23775000D03*
X35895000Y39015000D03*
X46055000Y23775000D03*
X33355000Y39015000D03*
X48595000Y23775000D03*
X30815000Y39015000D03*
X51135000Y23775000D03*
X28275000Y39015000D03*
X53675000Y23775000D03*
X25735000Y39015000D03*
X56215000Y23775000D03*
X23195000Y39015000D03*
X58755000Y23775000D03*
X20655000Y39015000D03*
X61295000Y23775000D03*
X18115000Y39015000D03*
X63835000Y23775000D03*
X15575000Y39015000D03*
D10*
X7000000Y5000000D03*
D11*
X4460000Y5000000D03*
M02*
